<svg xmlns="http://www.w3.org/2000/svg" width="85" height="84" viewBox="0 0 85 84">
  <g id="Grupo_58414" data-name="Grupo 58414" transform="translate(-285 -949)">
    <g id="Grupo_58410" data-name="Grupo 58410" transform="translate(0 35.569)">
      <circle id="Elipse_5290" data-name="Elipse 5290" cx="27.569" cy="27.569" r="27.569" transform="translate(299.894 927.431)" fill="#082d5e"/>
      <path id="Trazado_104625" data-name="Trazado 104625" d="M-67.133,623.708a26.812,26.812,0,0,0-1.351-8.41,27.476,27.476,0,0,0-19.33-7.918,27.569,27.569,0,0,0-27.569,27.569,27.65,27.65,0,0,0,.607,5.76,26.8,26.8,0,0,0,20.787,9.854A26.855,26.855,0,0,0-67.133,623.708Z" transform="translate(415.276 320.051)" fill="#00529f"/>
      <g id="Grupo_58406" data-name="Grupo 58406" transform="translate(313.949 943.374)">
        <path id="Trazado_104626" data-name="Trazado 104626" d="M-83.426,650.763q0,5.241-5.907,5.241t-5.893-5.241V635.5q0-5.254,5.893-5.253t5.907,5.253ZM-87.534,635.5q0-1.691-1.785-1.692h-.029q-1.771,0-1.77,1.692v15.265q0,1.691,1.785,1.692t1.8-1.692Z" transform="translate(95.226 -630.245)" fill="#fff"/>
        <path id="Trazado_104627" data-name="Trazado 104627" d="M-73.1,650.254q0-3.371,3.832-5.776t3.86-4.083v-4.9q0-1.691-1.77-1.692h-.029q-1.785,0-1.785,1.692v3.346H-73.1V635.5q0-5.254,5.892-5.253,5.907,0,5.907,5.253v4.987q0,3.434-3.846,5.851t-3.846,4.223v1.5H-61.3v3.549H-73.1Z" transform="translate(88.528 -630.245)" fill="#fff"/>
      </g>
    </g>
    <rect id="Rectángulo_5532" data-name="Rectángulo 5532" width="85" height="84" transform="translate(285 949)" fill="none"/>
  </g>
</svg>
