<svg xmlns="http://www.w3.org/2000/svg" width="85" height="84" viewBox="0 0 85 84">
  <g id="Grupo_60574" data-name="Grupo 60574" transform="translate(-285 -846)">
    <rect id="Rectángulo_5531" data-name="Rectángulo 5531" width="85" height="84" transform="translate(285 846)" fill="none"/>
    <g id="Grupo_60572" data-name="Grupo 60572" transform="translate(-1172.26 -6213.798)">
      <ellipse id="Elipse_5342" data-name="Elipse 5342" cx="27.57" cy="27.57" rx="27.57" ry="27.57" transform="translate(1472.261 7128.938) rotate(-90)" fill="#082d5e"/>
      <path id="Trazado_109315" data-name="Trazado 109315" d="M-162.265,715.744a27.646,27.646,0,0,0-1.348-8.537A27.181,27.181,0,0,0-182.9,699.17a27.75,27.75,0,0,0-27.511,27.983,28.535,28.535,0,0,0,.607,5.848,26.572,26.572,0,0,0,20.742,10A27.033,27.033,0,0,0-162.265,715.744Z" transform="translate(1682.674 6374.628)" fill="#00529f"/>
      <g id="Grupo_60561" data-name="Grupo 60561" transform="translate(1486.11 7089.533)">
        <path id="Trazado_109316" data-name="Trazado 109316" d="M-178.279,742.862q0,5.32-6,5.32t-5.982-5.32V727.367q0-5.333,5.982-5.333t6,5.333Zm-4.169-15.495q0-1.717-1.813-1.717h-.029q-1.8,0-1.8,1.717v15.495q0,1.717,1.813,1.717t1.827-1.717Z" transform="translate(190.257 -722.035)" fill="#fff"/>
        <path id="Trazado_109317" data-name="Trazado 109317" d="M-163.961,733.526a4.5,4.5,0,0,1,2.873-.916q.31,0,.633.026a5.092,5.092,0,0,1,3.138,1.252q1.164,1.1,1.164,3.939v5.036q0,5.32-6,5.32t-5.981-5.32V727.367q0-5.333,5.981-5.333t6,5.333v3.4h-4.169v-3.4q0-1.717-1.812-1.717h-.03q-1.8,0-1.8,1.717Zm3.639,4.3q0-1.357-.648-1.588a3.285,3.285,0,0,0-1.135-.142c-.128,0-.26,0-.4.013q-1.459.051-1.459,1.717v5.036q0,1.717,1.813,1.717t1.827-1.717Z" transform="translate(183.791 -722.035)" fill="#fff"/>
      </g>
    </g>
  </g>
</svg>
