<svg xmlns="http://www.w3.org/2000/svg" width="190" height="84" viewBox="0 0 190 84">
  <g id="Grupo_60631" data-name="Grupo 60631" transform="translate(-926 -1760)">
    <g id="Grupo_60541" data-name="Grupo 60541" transform="translate(11 23)">
      <path id="Trazado_109305" data-name="Trazado 109305" d="M-4290.641-9890.623h149.819" transform="translate(5226.141 11684.442)" fill="none" stroke="#707070" stroke-width="1" stroke-dasharray="5"/>
      <path id="Trazado_109306" data-name="Trazado 109306" d="M-4290.641-9890.623h149.819" transform="translate(5226.141 11669.526)" fill="none" stroke="#707070" stroke-width="1" stroke-dasharray="5"/>
      <path id="Trazado_109307" data-name="Trazado 109307" d="M-4290.641-9890.623h149.819" transform="translate(5226.141 11649.115)" fill="none" stroke="#707070" stroke-width="1" stroke-dasharray="5"/>
      <g id="Grupo_59800" data-name="Grupo 59800" transform="translate(915 1737)">
        <g id="Grupo_58803" data-name="Grupo 58803">
          <ellipse id="Elipse_5331" data-name="Elipse 5331" cx="76.5" cy="9" rx="76.5" ry="9" transform="translate(19 65)" fill="#e8e8e8"/>
          <g id="Grupo_58800" data-name="Grupo 58800" transform="translate(32 8.195)">
            <path id="Trazado_105047" data-name="Trazado 105047" d="M-400.848,711.888l-4.865-1.817-10.185,1.817v33.6c0,3.01,8.6,5.45,19.2,5.45s19.2-2.44,19.2-5.45v-33.6Z" transform="translate(458.661 -681.723)" fill="#afafaf"/>
            <ellipse id="Elipse_5326" data-name="Elipse 5326" cx="19.201" cy="5.449" rx="19.201" ry="5.449" transform="translate(42.763 24.715)" fill="#9f9c9c"/>
            <path id="Trazado_105048" data-name="Trazado 105048" d="M-368.355,693.887l-4.865-1.817-10.185,1.817V752.2c0,3.01,8.6,5.45,19.2,5.45s19.2-2.44,19.2-5.45V693.887Z" transform="translate(470.782 -688.438)" fill="#f98473"/>
            <path id="Trazado_105050" data-name="Trazado 105050" d="M19.2,0c10.6,0,19.2,2.44,19.2,5.449S29.805,10.9,19.2,10.9,0,8.458,0,5.449,8.6,0,19.2,0Z" transform="translate(87.378)" fill="#d36f6a"/>
            <path id="Trazado_105049" data-name="Trazado 105049" d="M-431.993,723.888l-4.865-1.817-10.184,1.817v17.125c0,3.01,8.6,5.45,19.2,5.45s19.2-2.44,19.2-5.45V723.888Z" transform="translate(447.042 -677.247)" fill="#afafaf"/>
            <ellipse id="Elipse_5328" data-name="Elipse 5328" cx="19.201" cy="5.449" rx="19.201" ry="5.449" transform="translate(0 41.191)" fill="#9f9c9c"/>
          </g>
          <rect id="Rect치ngulo_6594" data-name="Rect치ngulo 6594" width="190" height="84" fill="none"/>
        </g>
        <rect id="Rect치ngulo_6636" data-name="Rect치ngulo 6636" width="2" height="52" rx="1" transform="translate(153 21)" fill="#fff" opacity="0.36"/>
      </g>
    </g>
    <path id="Trazado_109464" data-name="Trazado 109464" d="M-4290.641-9890.623h149.819" transform="translate(5237.141 11655)" fill="none" stroke="#707070" stroke-width="1" stroke-dasharray="5"/>
  </g>
</svg>
