<svg xmlns="http://www.w3.org/2000/svg" width="820" height="342.941" viewBox="0 0 820 342.941">
  <g id="Grupo_58438" data-name="Grupo 58438" transform="translate(-390 -4343.059)">
    <g id="Grupo_58437" data-name="Grupo 58437">
      <g id="Grupo_58436" data-name="Grupo 58436" transform="translate(0 -12)">
        <g id="Grupo_58435" data-name="Grupo 58435" transform="translate(390 4356.059)">
          <g id="Grupo_58431" data-name="Grupo 58431" transform="translate(0 0)">
            <path id="Trazado_104639" data-name="Trazado 104639" d="M918.945,1829.189H260.485L204.694,1867.8H98.945" transform="translate(-98.945 -1645.657)" fill="none" stroke="#8a939e" stroke-miterlimit="10" stroke-width="2"/>
            <path id="Trazado_104640" data-name="Trazado 104640" d="M918.945,1789.291H260.485L204.694,1827.9H98.945" transform="translate(-98.945 -1651.414)" fill="none" stroke="#8a939e" stroke-miterlimit="10" stroke-width="2"/>
            <path id="Trazado_104641" data-name="Trazado 104641" d="M918.945,1747.689H260.485L204.694,1786.3H98.945" transform="translate(-98.945 -1657.417)" fill="none" stroke="#8a939e" stroke-miterlimit="10" stroke-width="2"/>
            <path id="Trazado_104642" data-name="Trazado 104642" d="M918.945,1708.244H260.485l-55.791,38.608H98.945" transform="translate(-98.945 -1663.108)" fill="none" stroke="#8a939e" stroke-miterlimit="10" stroke-width="2"/>
            <path id="Trazado_104643" data-name="Trazado 104643" d="M918.943,1668.8H260.483l-55.791,38.609H99.236" transform="translate(-98.943 -1668.799)" fill="none" stroke="#8a939e" stroke-miterlimit="10" stroke-width="2"/>
            <g id="Grupo_58430" data-name="Grupo 58430" transform="translate(105.749 229.186)">
              <path id="Trazado_104644" data-name="Trazado 104644" d="M203.945,1909.713H863.7l54.493-40.626H258.438Z" transform="translate(-203.945 -1869.087)" fill="#ced0d2"/>
              <line id="Línea_138" data-name="Línea 138" y1="10.812" transform="translate(163.48 40.284)" fill="none" stroke="#8a939e" stroke-miterlimit="10" stroke-width="2"/>
              <line id="Línea_139" data-name="Línea 139" y1="10.812" transform="translate(328.257 40.284)" fill="none" stroke="#8a939e" stroke-miterlimit="10" stroke-width="2"/>
              <line id="Línea_140" data-name="Línea 140" y1="10.812" transform="translate(493.899 40.284)" fill="none" stroke="#8a939e" stroke-miterlimit="10" stroke-width="2"/>
              <line id="Línea_141" data-name="Línea 141" y1="10.812" transform="translate(657.379 40.284)" fill="none" stroke="#8a939e" stroke-miterlimit="10" stroke-width="2"/>
            </g>
          </g>
          <path id="Trazado_104645" data-name="Trazado 104645" d="M465.171,1685.218l23.342-6.974v228.839l-22.207,19.462-12.65-25.625-15.569-174.833Z" transform="translate(-64.412 -1667.436)" fill="#a73a34"/>
          <path id="Trazado_104646" data-name="Trazado 104646" d="M438.37,1703.058l-32.6-8.109,22.219-16.7h65.185l-23.829,18Z" transform="translate(-69.075 -1667.436)" fill="#802a28"/>
          <rect id="Rectángulo_5577" data-name="Rectángulo 5577" width="65.197" height="231.596" transform="translate(336.697 27.512)" fill="#ea6b5f"/>
          <g id="Grupo_58432" data-name="Grupo 58432" transform="translate(501.474 45.136)">
            <path id="Trazado_104647" data-name="Trazado 104647" d="M609.171,1715.218l23.342-6.974v194.51l-22.207,19.462-12.65-25.625-15.569-140.5Z" transform="translate(-545.109 -1708.244)" fill="#a03c0f"/>
            <path id="Trazado_104648" data-name="Trazado 104648" d="M582.37,1733.058l-32.6-8.109,22.219-16.7h65.185l-23.829,18Z" transform="translate(-549.772 -1708.244)" fill="#74260e"/>
            <rect id="Rectángulo_5578" data-name="Rectángulo 5578" width="65.197" height="197.268" transform="translate(0 16.705)" fill="#ee6c15"/>
          </g>
          <g id="Grupo_58433" data-name="Grupo 58433" transform="translate(668.197 197.326)">
            <path id="Trazado_104649" data-name="Trazado 104649" d="M754.872,1848.218l23.342-6.974v42.32l-22.207,19.462-12.65-25.625-15.569,11.686Z" transform="translate(-690.81 -1841.244)" fill="#a73a34"/>
            <path id="Trazado_104650" data-name="Trazado 104650" d="M728.071,1866.058l-32.6-8.109,22.219-16.7h65.185l-23.828,18Z" transform="translate(-695.472 -1841.244)" fill="#965554"/>
            <rect id="Rectángulo_5579" data-name="Rectángulo 5579" width="65.197" height="45.078" transform="translate(0 16.705)" fill="#e5867d"/>
          </g>
          <g id="Grupo_58434" data-name="Grupo 58434" transform="translate(168.403 216.779)">
            <path id="Trazado_104651" data-name="Trazado 104651" d="M317.809,1865.218l23.342-6.974v22.868l-22.207,19.462-12.65-25.625-13.281,13.975Z" transform="translate(-253.747 -1858.244)" fill="#ae6341"/>
            <path id="Trazado_104652" data-name="Trazado 104652" d="M291.3,1883.058l-32.6-8.109,22.219-16.7H346.1l-23.829,18Z" transform="translate(-258.698 -1858.244)" fill="#8d5240"/>
            <rect id="Rectángulo_5580" data-name="Rectángulo 5580" width="65.197" height="25.625" transform="translate(0 16.705)" fill="#fe851b"/>
          </g>
        </g>
        <text id="_100" data-name="100" transform="translate(434 4389)" fill="#12263f" font-size="16" font-family="Roboto-Bold, Roboto" font-weight="700"><tspan x="-13.77" y="0">100</tspan></text>
        <text id="_80" data-name="80" transform="translate(439 4435)" fill="#12263f" font-size="16" font-family="Roboto-Bold, Roboto" font-weight="700"><tspan x="-9.18" y="0">80</tspan></text>
        <text id="_60" data-name="60" transform="translate(439 4481)" fill="#12263f" font-size="16" font-family="Roboto-Bold, Roboto" font-weight="700"><tspan x="-9.18" y="0">60</tspan></text>
        <text id="_40" data-name="40" transform="translate(439 4527)" fill="#12263f" font-size="16" font-family="Roboto-Bold, Roboto" font-weight="700"><tspan x="-9.18" y="0">40</tspan></text>
        <text id="_20" data-name="20" transform="translate(439 4573)" fill="#12263f" font-size="16" font-family="Roboto-Bold, Roboto" font-weight="700"><tspan x="-9.18" y="0">20</tspan></text>
        <text id="_0" data-name="0" transform="translate(581 4658)" fill="#12263f" font-size="16" font-family="Roboto-Bold, Roboto" font-weight="700"><tspan x="-4.59" y="0">0</tspan></text>
        <text id="_2" data-name="2" transform="translate(745 4658)" fill="#12263f" font-size="16" font-family="Roboto-Bold, Roboto" font-weight="700"><tspan x="-4.59" y="0">2</tspan></text>
        <text id="_14" data-name="14" transform="translate(914 4658)" fill="#12263f" font-size="16" font-family="Roboto-Bold, Roboto" font-weight="700"><tspan x="-9.18" y="0">14</tspan></text>
        <text id="_28" data-name="28" transform="translate(1074 4658)" fill="#12263f" font-size="16" font-family="Roboto-Bold, Roboto" font-weight="700"><tspan x="-9.18" y="0">28</tspan></text>
        <text id="_0-2" data-name="0" transform="translate(443 4627)" fill="#12263f" font-size="16" font-family="Roboto-Bold, Roboto" font-weight="700"><tspan x="-4.59" y="0">0</tspan></text>
      </g>
      <path id="Trazado_104653" data-name="Trazado 104653" d="M-6714.51-7084.71l55.51-42.461v32.221l-55,40.95Z" transform="translate(7869 11740)" fill="#da7162"/>
      <g id="Rectángulo_5581" data-name="Rectángulo 5581" transform="translate(495 4655)" fill="#f98473" stroke="#f98473" stroke-width="1">
        <rect width="660" height="31" stroke="none"/>
        <rect x="0.5" y="0.5" width="659" height="30" fill="none"/>
      </g>
      <text id="Días" transform="translate(822 4676)" fill="#fff" font-size="16" font-family="Roboto-Bold, Roboto" font-weight="700"><tspan x="-15.793" y="0">Días</tspan></text>
    </g>
  </g>
</svg>
