<svg xmlns="http://www.w3.org/2000/svg" width="66" height="66" viewBox="0 0 66 66">
  <g id="Grupo_58797" data-name="Grupo 58797" transform="translate(396.089 -613.918)">
    <circle id="Elipse_5309" data-name="Elipse 5309" cx="33" cy="33" r="33" transform="translate(-396.089 613.918)" fill="#fff"/>
    <g id="Page-1">
      <g id="_025---Vaccine" data-name="025---Vaccine">
        <path id="Shape" d="M-357.662,636.229h3.618a1.809,1.809,0,0,1,1.809,1.809v2.714h-7.236v-2.714A1.809,1.809,0,0,1-357.662,636.229Z" fill="#006faf"/>
        <path id="Shape-2" data-name="Shape" d="M-346.808,652.2v16.588a1.814,1.814,0,0,1-1.809,1.809h-14.472a1.814,1.814,0,0,1-1.809-1.809V652.2a3.618,3.618,0,0,1,1.058-2.56l2.406-2.406a3.619,3.619,0,0,0,1.059-2.56v-2.116h9.045v2.116a3.614,3.614,0,0,0,1.058,2.56l2.406,2.406a3.618,3.618,0,0,1,1.058,2.56Z" fill="#79addc"/>
        <path id="Shape-3" data-name="Shape" d="M-351.33,652.2v16.588a1.815,1.815,0,0,1-1.809,1.809h-9.95a1.814,1.814,0,0,1-1.809-1.809V652.2a3.618,3.618,0,0,1,1.058-2.56l2.406-2.406a3.619,3.619,0,0,0,1.059-2.56v-2.116h4.522v2.116a3.618,3.618,0,0,0,1.058,2.56l2.406,2.406a3.619,3.619,0,0,1,1.059,2.56Z" fill="#9dcaed"/>
        <rect id="Rectangle-path" width="12.663" height="3.618" rx="0.904" transform="translate(-362.184 639.847)" fill="#1a86cb"/>
        <path id="Rectangle-path-2" data-name="Rectangle-path" d="M-364.9,654.319h18.09v10.854H-364.9Z" fill="#df332d"/>
        <path id="Shape-4" data-name="Shape" d="M-354.044,658.842h-.9v-.9a.9.9,0,0,0-.9-.9.9.9,0,0,0-.9.9v.9h-.9a.9.9,0,0,0-.9.9.9.9,0,0,0,.9.905h.9v.9a.9.9,0,0,0,.9.905.9.9,0,0,0,.9-.905v-.9h.9a.9.9,0,0,0,.9-.905A.9.9,0,0,0-354.044,658.842Z" fill="#e8edee"/>
        <path id="Rectangle-path-3" data-name="Rectangle-path" d="M-372.134,658.842h5.427v9.045h-5.427Z" fill="#006faf"/>
        <path id="Shape-5" data-name="Shape" d="M-369.42,629.9a.9.9,0,0,1-.9-.905V618.14a.9.9,0,0,1,.9-.905.9.9,0,0,1,.9.905v10.853A.9.9,0,0,1-369.42,629.9Z" fill="#849595"/>
        <path id="Shape-6" data-name="Shape" d="M-372.134,628.993h5.427A1.809,1.809,0,0,1-364.9,630.8v2.714h-9.045V630.8A1.809,1.809,0,0,1-372.134,628.993Z" fill="#1a86cb"/>
        <path id="Shape-7" data-name="Shape" d="M-362.184,634.42v23.517h-14.472V634.42a1.815,1.815,0,0,1,1.809-1.809h10.854A1.816,1.816,0,0,1-362.184,634.42Z" fill="#79addc"/>
        <path id="Shape-8" data-name="Shape" d="M-366.707,634.42v23.517h-9.949V634.42a1.815,1.815,0,0,1,1.809-1.809h6.331A1.815,1.815,0,0,1-366.707,634.42Z" fill="#9dcaed"/>
        <path id="Shape-9" data-name="Shape" d="M-362.184,646.179v9.949h-14.472v-9.949s.9,2.713,5.427,2.713a8.9,8.9,0,0,0,4.522-1.176A8.766,8.766,0,0,1-362.184,646.179Z" fill="#f4b600"/>
        <path id="Shape-10" data-name="Shape" d="M-379.37,656.128h19.9v.905a2.713,2.713,0,0,1-2.713,2.713h-14.472a2.714,2.714,0,0,1-2.714-2.713Z" fill="#1a86cb"/>
        <path id="Shape-11" data-name="Shape" d="M-374.847,666.982h10.854a1.809,1.809,0,0,1,1.809,1.809V670.6h-14.472v-1.809A1.809,1.809,0,0,1-374.847,666.982Z" fill="#1a86cb"/>
        <g id="Grupo_58797-2" data-name="Grupo 58797">
          <path id="Shape-12" data-name="Shape" d="M-373.038,652.51a.9.9,0,0,1-.9.9h-2.713v-1.809h2.713A.9.9,0,0,1-373.038,652.51Z" fill="#14466f"/>
          <path id="Shape-13" data-name="Shape" d="M-373.038,644.37a.9.9,0,0,1-.9.9h-2.713v-1.809h2.713A.9.9,0,0,1-373.038,644.37Z" fill="#14466f"/>
          <path id="Shape-14" data-name="Shape" d="M-373.038,639.847a.9.9,0,0,1-.9.905h-2.713v-1.809h2.713A.9.9,0,0,1-373.038,639.847Z" fill="#14466f"/>
        </g>
        <path id="Shape-15" data-name="Shape" d="M-362.184,646.179v9.949h-4.523v-8.412A8.766,8.766,0,0,1-362.184,646.179Z" fill="#f3880e"/>
      </g>
    </g>
  </g>
</svg>
