<svg xmlns="http://www.w3.org/2000/svg" width="190" height="42" viewBox="0 0 190 42">
  <g id="Grupo_60632" data-name="Grupo 60632" transform="translate(-915 -3209)">
    <rect id="Rectángulo_6528" data-name="Rectángulo 6528" width="190" height="42" transform="translate(915 3209)" fill="#00357b"/>
    <path id="Trazado_109465" data-name="Trazado 109465" d="M-6.9-6.687h1.2a1.7,1.7,0,0,0,1.273-.43,1.574,1.574,0,0,0,.414-1.141,1.392,1.392,0,0,0-.41-1.07,1.59,1.59,0,0,0-1.129-.383,1.666,1.666,0,0,0-1.086.355,1.137,1.137,0,0,0-.437.926H-9.332a2.777,2.777,0,0,1,.48-1.6,3.2,3.2,0,0,1,1.344-1.105,4.485,4.485,0,0,1,1.9-.4,4.253,4.253,0,0,1,2.828.863A2.945,2.945,0,0,1-1.754-8.289,2.394,2.394,0,0,1-2.23-6.852,3.1,3.1,0,0,1-3.48-5.844,2.826,2.826,0,0,1-2.047-4.812a2.8,2.8,0,0,1,.473,1.625A2.994,2.994,0,0,1-2.68-.758,4.445,4.445,0,0,1-5.605.156a4.214,4.214,0,0,1-2.785-.9A2.934,2.934,0,0,1-9.473-3.117h2.258a1.308,1.308,0,0,0,.48,1.047,1.771,1.771,0,0,0,1.184.406A1.779,1.779,0,0,0-4.289-2.09a1.47,1.47,0,0,0,.457-1.129q0-1.7-1.875-1.7H-6.9ZM6.645-2.344H2.535L1.754,0H-.738L3.5-11.375H5.668L9.926,0H7.434Zm-3.477-1.9H6.012L4.582-8.5Z" transform="translate(1010 3236)" fill="#fff"/>
  </g>
</svg>
