<svg xmlns="http://www.w3.org/2000/svg" xmlns:xlink="http://www.w3.org/1999/xlink" width="190" height="111.601" viewBox="0 0 190 111.601">
  <defs>
    <linearGradient id="linear-gradient" x1="-0.089" y1="0.556" x2="2.048" y2="0.563" gradientUnits="objectBoundingBox">
      <stop offset="0" stop-color="#fff"/>
      <stop offset="1" stop-color="#dcebf8"/>
    </linearGradient>
  </defs>
  <g id="Grupo_59883" data-name="Grupo 59883" transform="translate(0)">
    <rect id="Rectángulo_5866" data-name="Rectángulo 5866" width="89.296" height="155.082" rx="12.895" transform="translate(165.634 12.544) rotate(90)" fill="url(#linear-gradient)"/>
    <g id="Grupo_60510" data-name="Grupo 60510" transform="translate(2.309 2.187)">
      <path id="Trazado_109243" data-name="Trazado 109243" d="M315.254,1637.009H314.6a8.353,8.353,0,0,0-.187-1.766l.646-.124A8.994,8.994,0,0,1,315.254,1637.009Z" transform="translate(-144.212 -1627.602)" fill="#6b6b6b"/>
      <path id="Trazado_109244" data-name="Trazado 109244" d="M165.677,1732.5H162.44v-.531h3.237Zm-6.475,0h-3.237v-.531H159.2Zm-6.475,0H149.49v-.531h3.237Zm-6.475,0h-3.238v-.531h3.238Zm-6.475,0H136.54v-.531h3.237Zm-6.475,0h-3.237v-.531H133.3Zm-6.475,0H123.59v-.531h3.237Zm-6.475,0h-3.238v-.531h3.238Zm-6.475,0H110.64v-.531h3.237Zm-6.475,0h-3.237v-.531H107.4Zm-6.475,0H97.689v-.531h3.238Zm-6.475,0H91.215v-.531h3.238Zm-6.475,0H84.74v-.531h3.237Zm-6.475,0H78.265v-.531H81.5Zm-6.475,0H71.789v-.531h3.238Zm-6.475,0H65.315v-.531h3.237Zm-6.475,0H58.84v-.531h3.237Zm-6.475,0H52.365v-.531H55.6Zm-6.475,0H45.889v-.531h3.238Zm-6.475,0H39.415v-.531h3.237Zm-6.475,0H32.939v-.531h3.238Zm-6.475,0H26.465v-.531H29.7Zm-6.475,0H19.989v-.531h3.237Zm-6.475,0H13.515v-.531h3.237Zm152.209-.263-.139-.513a7.742,7.742,0,0,0,2.78-1.337l.338.418A8.3,8.3,0,0,1,168.961,1732.236Zm-158.731,0a8.323,8.323,0,0,1-2.978-1.434l.338-.418a7.75,7.75,0,0,0,2.779,1.339Zm163.866-3.882-.48-.256a7.245,7.245,0,0,0,.919-2.872l.546.052A7.764,7.764,0,0,1,174.1,1728.352Zm-169,0a7.765,7.765,0,0,1-.982-3.078l.546-.051a7.227,7.227,0,0,0,.916,2.872Zm170.022-6.233h-.548v-3.136h.548Zm-170.495-.005H4.077v-3.136h.548Zm170.495-6.267h-.548V1712.7h.548Zm-170.495-.005H4.077V1712.7h.548Zm170.495-6.268h-.548v-3.137h.548Zm-170.495-.005H4.077v-3.136h.548Zm170.495-6.268h-.548v-3.137h.548Zm-170.495-.006H4.077v-3.136h.548Zm170.495-6.268h-.548v-3.136h.548Zm-170.495-.005H4.077v-3.136h.548Zm170.495-6.268h-.548v-3.136h.548Zm-170.495-.005H4.077v-3.136h.548Zm170.495-6.268h-.548v-3.136h.548Zm-170.495,0H4.077v-3.137h.548Zm0-6.274H4.077v-3.137h.548Zm0-6.273H4.077v-3.137h.548Zm0-6.273H4.077v-3.137h.548Zm0-6.273H4.077v-3.136h.548Zm0-6.273H4.077v-3.136h.548Zm0-6.273H4.077v-3.137h.548Zm0-6.274H4.077v-3.136h.548Zm0-6.273H4.077v-3.136h.548Zm.6-6.089-.5-.205a7.963,7.963,0,0,1,1.879-2.657l.38.382A7.462,7.462,0,0,0,5.225,1628.2Zm167.967-1.371a7.625,7.625,0,0,0-2.25-2.074l.29-.45a8.138,8.138,0,0,1,2.409,2.221ZM9.6,1624.1l-.195-.5a8.484,8.484,0,0,1,2.938-.52h.334v.531h-.334A7.925,7.925,0,0,0,9.6,1624.1Zm158.431-.4a8.037,8.037,0,0,0-1.178-.087h-2.013v-.531h2.013a8.585,8.585,0,0,1,1.262.093Zm-6.429-.087h-3.237v-.531H161.6Zm-6.475,0h-3.237v-.531h3.237Zm-6.475,0h-3.237v-.531h3.237Zm-6.475,0h-3.237v-.531h3.237Zm-6.475,0h-3.237v-.531H135.7Zm-6.475,0h-3.237v-.531h3.237Zm-6.475,0h-3.237v-.531h3.237Zm-6.475,0H113.04v-.531h3.238Zm-6.475,0h-3.237v-.531H109.8Zm-6.475,0h-3.237v-.531h3.237Zm-6.475,0H93.616v-.531h3.237Zm-6.475,0H87.14v-.531h3.238Zm-6.475,0H80.666v-.531H83.9Zm-6.475,0H74.19v-.531h3.237Zm-6.475,0H67.716v-.531h3.237Zm-6.475,0H61.24v-.531h3.238Zm-6.475,0H54.765v-.531H58Zm-6.475,0H48.29v-.531h3.237Zm-6.475,0H41.815v-.531h3.237Zm-6.475,0H35.34v-.531h3.238Zm-6.475,0H28.866v-.531H32.1Zm-6.475,0H22.39v-.531h3.237Zm-6.475,0H15.915v-.531h3.237Z" transform="translate(-4.077 -1623.085)" fill="#6b6b6b"/>
      <path id="Trazado_109245" data-name="Trazado 109245" d="M315.352,1725.391h-.658v-2.15h2.27v.623h-1.612Z" transform="translate(-144.309 -1670.138)" fill="#6b6b6b"/>
      <rect id="Rectángulo_5867" data-name="Rectángulo 5867" width="2.816" height="0.623" transform="translate(175.47 53.216)" fill="#6b6b6b"/>
      <rect id="Rectángulo_5868" data-name="Rectángulo 5868" width="1.941" height="0.623" transform="translate(181.101 53.216)" fill="#6b6b6b"/>
      <g id="Grupo_60509" data-name="Grupo 60509" transform="translate(181.141 51)">
        <path id="Trazado_109246" data-name="Trazado 109246" d="M337.554,1722.217l-6.55,2.535,1.554-2.535L331,1719.682Z" transform="translate(-331.004 -1719.682)" fill="#6b6b6b"/>
      </g>
    </g>
    <path id="Trazado_109247" data-name="Trazado 109247" d="M2.781,1701.9a2.366,2.366,0,0,1-2.205-2.5v-68.225c0-6.393,4.591-11.594,10.234-11.594H166c5.643,0,10.234,5.2,10.234,11.594v31.86a2.223,2.223,0,1,1-4.411,0v-31.86c0-3.637-2.613-6.6-5.823-6.6H10.81c-3.211,0-5.823,2.96-5.823,6.6V1699.4A2.366,2.366,0,0,1,2.781,1701.9Z" transform="translate(-0.576 -1619.583)" fill="#f98473"/>
    <path id="Trazado_109464" data-name="Trazado 109464" d="M33.261,12.023H28.5L27.426,15H25.879L30.222,3.625h1.313L35.886,15H34.347ZM28.949,10.8h3.867l-1.938-5.32ZM39.59,13.039l2.094-6.492H43.16L40.129,15h-1.1L35.965,6.547h1.477Zm8.367,2.117a3.693,3.693,0,0,1-2.8-1.129,4.19,4.19,0,0,1-1.078-3.02v-.266a5.073,5.073,0,0,1,.48-2.246,3.748,3.748,0,0,1,1.344-1.547,3.378,3.378,0,0,1,1.871-.559A3.166,3.166,0,0,1,50.34,7.477a4.7,4.7,0,0,1,.914,3.109v.6H45.527a3,3,0,0,0,.73,2.02,2.3,2.3,0,0,0,1.777.77,2.517,2.517,0,0,0,1.3-.312,3.259,3.259,0,0,0,.93-.828l.883.688A3.55,3.55,0,0,1,47.957,15.156Zm-.18-7.578a1.928,1.928,0,0,0-1.469.637A3.1,3.1,0,0,0,45.574,10h4.234V9.891a2.753,2.753,0,0,0-.594-1.707A1.815,1.815,0,0,0,47.777,7.578Zm9.234.266a4.331,4.331,0,0,0-.711-.055A1.9,1.9,0,0,0,54.371,9v6H52.926V6.547h1.406l.023.977a2.251,2.251,0,0,1,2.016-1.133,1.477,1.477,0,0,1,.641.109ZM59.91,15H58.465V6.547H59.91ZM58.347,4.3a.863.863,0,0,1,.215-.594.807.807,0,0,1,.637-.242.819.819,0,0,1,.641.242.854.854,0,0,1,.219.594.826.826,0,0,1-.219.586.834.834,0,0,1-.641.234.821.821,0,0,1-.637-.234A.834.834,0,0,1,58.347,4.3Zm3.531,6.4a4.968,4.968,0,0,1,.914-3.145,3.151,3.151,0,0,1,4.836-.074l.07-.937h1.32V14.8a3.439,3.439,0,0,1-.973,2.586,3.589,3.589,0,0,1-2.613.945,4.348,4.348,0,0,1-1.789-.391,3.08,3.08,0,0,1-1.336-1.07l.75-.867a2.826,2.826,0,0,0,2.273,1.148,2.214,2.214,0,0,0,1.645-.594,2.269,2.269,0,0,0,.59-1.672v-.727a2.971,2.971,0,0,1-2.367,1,2.887,2.887,0,0,1-2.4-1.2A5.224,5.224,0,0,1,61.879,10.7Zm1.453.164a3.79,3.79,0,0,0,.586,2.246,1.9,1.9,0,0,0,1.641.816,2.117,2.117,0,0,0,2.008-1.242V8.828a2.142,2.142,0,0,0-1.992-1.211,1.921,1.921,0,0,0-1.648.82A4.128,4.128,0,0,0,63.332,10.867Zm13.086,3.3a3.07,3.07,0,0,1-2.477.992,2.628,2.628,0,0,1-2.059-.785,3.4,3.4,0,0,1-.715-2.324v-5.5h1.445v5.461q0,1.922,1.563,1.922a2.163,2.163,0,0,0,2.2-1.234V6.547h1.445V15H76.449Zm8.82.836a3.036,3.036,0,0,1-.2-.891,3.225,3.225,0,0,1-2.406,1.047,2.984,2.984,0,0,1-2.051-.707,2.288,2.288,0,0,1-.8-1.793,2.39,2.39,0,0,1,1-2.051,4.733,4.733,0,0,1,2.824-.73h1.406V9.211A1.623,1.623,0,0,0,84.558,8a1.821,1.821,0,0,0-1.336-.449,2.108,2.108,0,0,0-1.3.391,1.151,1.151,0,0,0-.523.945H79.949A2,2,0,0,1,80.4,7.668a3.066,3.066,0,0,1,1.219-.934,4.1,4.1,0,0,1,1.691-.344,3.342,3.342,0,0,1,2.289.73,2.635,2.635,0,0,1,.859,2.012v3.891a4.757,4.757,0,0,0,.3,1.852V15Zm-2.4-1.1a2.54,2.54,0,0,0,1.289-.352,2.127,2.127,0,0,0,.883-.914V10.9H83.879q-2.656,0-2.656,1.555a1.316,1.316,0,0,0,.453,1.063A1.742,1.742,0,0,0,82.84,13.9Zm9.969-6.055a4.331,4.331,0,0,0-.711-.055A1.9,1.9,0,0,0,90.168,9v6H88.722V6.547h1.406l.023.977a2.251,2.251,0,0,1,2.016-1.133,1.477,1.477,0,0,1,.641.109Z" transform="translate(29.139 47.544)" fill="#12263f"/>
  </g>
</svg>
