<svg xmlns="http://www.w3.org/2000/svg" width="47.394" height="186.793" viewBox="0 0 47.394 186.793">
  <g id="Grupo_60526" data-name="Grupo 60526" transform="translate(142.369 -882.454)">
    <g id="Grupo_60525" data-name="Grupo 60525" transform="translate(-142.369 882.454)">
      <path id="Trazado_109255" data-name="Trazado 109255" d="M-141.4,1201.2s.476,7.677,1.961,7.788c.2.015,7.534.015,7.534.015l9.365-.055a3.039,3.039,0,0,0-2.8-2.733c-2.738-.477-7.319-2.4-8.978-6.019C-136.064,1196.385-141.4,1201.2-141.4,1201.2Z" transform="translate(141.942 -1022.205)" fill="#0a2a4e"/>
      <path id="Trazado_109256" data-name="Trazado 109256" d="M-142.369,1129.068a19.527,19.527,0,0,0,5.069.952,18.61,18.61,0,0,0,4.732-.675s.536-5.183,3.486-16.6c1.547-5.986,3.755-13.683,6.9-23.246,8.687-26.431,11.328-41.893,11.569-43.357.013-.078.018-.115.018-.115l-.028-.013-26.705-11.725s3.3,36.427-.91,50.41a58.95,58.95,0,0,0-1.529,6.7C-142.431,1106.581-142.369,1129.068-142.369,1129.068Z" transform="translate(142.369 -949.544)" fill="#698cba"/>
      <path id="Trazado_109257" data-name="Trazado 109257" d="M-137.715,1091.394l10.689,21.348c1.547-5.986,3.755-13.683,6.9-23.246,8.687-26.431,11.328-41.893,11.569-43.357,0-.044-.005-.085-.01-.128l-26.705-11.725s3.3,36.427-.91,50.41A58.954,58.954,0,0,0-137.715,1091.394Z" transform="translate(140.313 -949.544)" fill="#4f75a3"/>
      <path id="Trazado_109258" data-name="Trazado 109258" d="M-104.031,1201.2s.476,7.677,1.961,7.788c.2.015,7.534.015,7.534.015l9.364-.055a3.038,3.038,0,0,0-2.8-2.733c-2.737-.477-7.319-2.4-8.977-6.019C-98.692,1196.385-104.031,1201.2-104.031,1201.2Z" transform="translate(125.429 -1022.205)" fill="#0a2a4e"/>
      <path id="Trazado_109259" data-name="Trazado 109259" d="M-99.382,1035.822a380.254,380.254,0,0,1-3.737,52.589c-4.084,28.983-2.7,41.287-2.7,41.287a27.8,27.8,0,0,1-3.939,1,17.877,17.877,0,0,1-5.844-.677s-5.845-28.994-4.169-43.5-8.005-49.78-8.005-49.78Z" transform="translate(135.921 -950.223)" fill="#7697c7"/>
      <path id="Trazado_109260" data-name="Trazado 109260" d="M-126.844,935.531s-13.534,13.813-14.206,19.258,6.656,13.964,6.656,13.964Z" transform="translate(141.805 -905.907)" fill="#d17265"/>
      <path id="Trazado_109261" data-name="Trazado 109261" d="M-110.831,927.61l5.212,3.417,7.532-1.4c-.1-.608-.6-3.128-1.054-5.411-.027-.135-.055-.27-.08-.4-.388-1.942-.723-3.611-.723-3.611l-7.035-3.1-2.623-1.157c.007.041.2,2.156.231,2.464A17.936,17.936,0,0,1-110.831,927.61Z" transform="translate(128.433 -897.251)" fill="#f59763"/>
      <path id="Trazado_109262" data-name="Trazado 109262" d="M-101.219,931.523c-.146-.061-8.524-3.122-9.493-2.8s-2.841,2.92-2.841,2.92l15.348,3A7.246,7.246,0,0,0-101.219,931.523Z" transform="translate(129.637 -902.888)" fill="#d38b82"/>
      <path id="Trazado_109263" data-name="Trazado 109263" d="M-134.806,993.436c1.513,6.9,26.688,7.719,33.177,1.455.738-.714.774-4.036.5-8.515-.544-8.751-2.293-21.914-2.361-28.639a53.277,53.277,0,0,0-1.074-9.586,77.864,77.864,0,0,0-3.193-11.473s-12.3-3.976-14.6-3.3C-133.443,936.635-136.318,986.535-134.806,993.436Z" transform="translate(139.192 -904.922)" fill="#f98473"/>
      <path id="Trazado_109264" data-name="Trazado 109264" d="M-83.886,997.1c-.544-8.751-2.293-21.914-2.361-28.639a53.278,53.278,0,0,0-1.074-9.586l-7.4-1.305S-101.95,987.108-83.886,997.1Z" transform="translate(121.945 -915.645)" fill="#d38b82"/>
      <path id="Trazado_109265" data-name="Trazado 109265" d="M-107.429,919.416c1.544,2.617,7.3,4.88,9.7,5.712-.027-.134-.055-.27-.08-.4-.388-1.942-.723-3.611-.723-3.611l-7.035-3.1C-107.12,917.991-108.067,918.339-107.429,919.416Z" transform="translate(127.019 -898.166)" fill="#f38850"/>
      <path id="Trazado_109266" data-name="Trazado 109266" d="M-99.086,908.042s-11.332,3.535-13.425-3.556-4.965-11.41,2.182-13.967,9.357-.268,10.631,1.93S-96.192,906.94-99.086,908.042Z" transform="translate(130.227 -885.519)" fill="#f59763"/>
      <path id="Trazado_109267" data-name="Trazado 109267" d="M-104.068,888.7s-.723,8.252-2.429,7.894-3.254-.624-3,1.864,0,5.991-5.263,6.431-10.2-13.754-8.755-16.322C-119.35,881.156-98.043,879.661-104.068,888.7Z" transform="translate(134.152 -882.454)" fill="#0a2a4e"/>
      <path id="Trazado_109268" data-name="Trazado 109268" d="M-82.686,1004.185s.98,2.151,1.859,2.6a4.214,4.214,0,0,1,1.974,1.817,6.392,6.392,0,0,1-.79,4.78c-.649.823.041-2.868-3.45-3.707-1.129-.271-2.742-1.121-2.754-2.7a22.127,22.127,0,0,1,.207-3.271Z" transform="translate(117.394 -936.031)" fill="#f59763"/>
      <path id="Trazado_109269" data-name="Trazado 109269" d="M-85.436,1011.314s1.743,4,2.22,3.847c1.2-.389-.124-1.792-.026-2.921C-83.177,1011.484-85.436,1011.314-85.436,1011.314Z" transform="translate(117.212 -939.393)" fill="#f59763"/>
      <path id="Trazado_109270" data-name="Trazado 109270" d="M-96.851,936.179s7.214,1.35,12.962,9.82,9.53,14.769,8.471,17.822-8.162,13.642-9.826,13.642-6.074-1.116-6.225-3.839c0,0,4.757-10.55,4.06-12.456-.749-2.049-8.25-6.7-9.428-3.672C-98.785,962.5-96.851,936.179-96.851,936.179Z" transform="translate(122.634 -906.194)" fill="#f98473"/>
    </g>
  </g>
</svg>
