<svg xmlns="http://www.w3.org/2000/svg" width="190" height="42" viewBox="0 0 190 42">
  <g id="Grupo_60631" data-name="Grupo 60631" transform="translate(-705 -3209)">
    <rect id="Rectángulo_6527" data-name="Rectángulo 6527" width="190" height="42" transform="translate(705 3209)" fill="#00357b"/>
    <path id="Trazado_109466" data-name="Trazado 109466" d="M-1.4,0H-9.2V-1.547l3.68-3.922A9.078,9.078,0,0,0-4.4-6.914a2.322,2.322,0,0,0,.363-1.172,1.738,1.738,0,0,0-.383-1.191,1.382,1.382,0,0,0-1.094-.434,1.49,1.49,0,0,0-1.207.527A2.089,2.089,0,0,0-7.16-7.8H-9.426a3.729,3.729,0,0,1,.5-1.9,3.5,3.5,0,0,1,1.4-1.348,4.262,4.262,0,0,1,2.055-.488,4.036,4.036,0,0,1,2.73.844A2.985,2.985,0,0,1-1.77-8.3a3.825,3.825,0,0,1-.437,1.719,9.551,9.551,0,0,1-1.5,2.039L-6.293-1.82H-1.4ZM6.645-2.344H2.535L1.754,0H-.738L3.5-11.375H5.668L9.926,0H7.434Zm-3.477-1.9H6.012L4.582-8.5Z" transform="translate(800 3236)" fill="#fff"/>
  </g>
</svg>
