<svg xmlns="http://www.w3.org/2000/svg" xmlns:xlink="http://www.w3.org/1999/xlink" width="189.819" height="156.258" viewBox="0 0 189.819 156.258">
  <defs>
    <linearGradient id="linear-gradient" x1="0.037" y1="0.968" x2="1.103" y2="0.023" gradientUnits="objectBoundingBox">
      <stop offset="0" stop-color="#d4d4d4"/>
      <stop offset="1" stop-color="#fff"/>
    </linearGradient>
    <linearGradient id="linear-gradient-2" x1="0.029" y1="0.973" x2="1.361" y2="-0.324" gradientUnits="objectBoundingBox">
      <stop offset="0" stop-color="#fff"/>
      <stop offset="1" stop-color="#fff"/>
    </linearGradient>
  </defs>
  <g id="Grupo_58750" data-name="Grupo 58750" transform="translate(-705.181 -1548.039)">
    <rect id="Rectángulo_6318" data-name="Rectángulo 6318" width="189.819" height="156.258" rx="12" transform="translate(705.181 1548.039)" fill="url(#linear-gradient)"/>
    <rect id="Rectángulo_6319" data-name="Rectángulo 6319" width="175.106" height="141.545" rx="11.045" transform="translate(712.537 1555.061)" fill="url(#linear-gradient-2)"/>
    <path id="Trazado_105024" data-name="Trazado 105024" d="M-43.409-4.746V0h-2.224V-12.8h4.9a4.95,4.95,0,0,1,3.406,1.117A3.757,3.757,0,0,1-36.07-8.723a3.633,3.633,0,0,1-1.235,2.93,5.19,5.19,0,0,1-3.458,1.047Zm0-1.793h2.672A2.632,2.632,0,0,0-38.927-7.1,2.051,2.051,0,0,0-38.3-8.71a2.213,2.213,0,0,0-.633-1.657A2.439,2.439,0,0,0-40.676-11h-2.733ZM-29-2.584a.968.968,0,0,0-.47-.87,5,5,0,0,0-1.56-.527,8.02,8.02,0,0,1-1.819-.58,2.428,2.428,0,0,1-1.6-2.241,2.531,2.531,0,0,1,1.037-2.057,4.1,4.1,0,0,1,2.637-.826,4.266,4.266,0,0,1,2.755.844,2.677,2.677,0,0,1,1.05,2.188h-2.136a1.316,1.316,0,0,0-.457-1.024,1.752,1.752,0,0,0-1.213-.409,1.893,1.893,0,0,0-1.147.325,1.025,1.025,0,0,0-.444.87.866.866,0,0,0,.413.765,5.68,5.68,0,0,0,1.67.549,7.9,7.9,0,0,1,1.973.659A2.794,2.794,0,0,1-27.25-4,2.342,2.342,0,0,1-26.9-2.7,2.478,2.478,0,0,1-27.967-.62a4.535,4.535,0,0,1-2.786.8,4.917,4.917,0,0,1-2.083-.422,3.428,3.428,0,0,1-1.424-1.16A2.746,2.746,0,0,1-34.77-3H-32.7a1.5,1.5,0,0,0,.571,1.165,2.22,2.22,0,0,0,1.4.409,2.16,2.16,0,0,0,1.283-.321A.993.993,0,0,0-29-2.584ZM-22.772,0h-2.136V-9.51h2.136ZM-25.04-11.988a1.147,1.147,0,0,1,.312-.824,1.173,1.173,0,0,1,.892-.328,1.188,1.188,0,0,1,.9.328,1.138,1.138,0,0,1,.316.824,1.112,1.112,0,0,1-.316.811,1.2,1.2,0,0,1-.9.323,1.182,1.182,0,0,1-.892-.323A1.12,1.12,0,0,1-25.04-11.988Zm8.5,10.459A1.931,1.931,0,0,0-15.214-2a1.591,1.591,0,0,0,.563-1.151h2.013a3.137,3.137,0,0,1-.554,1.657A3.632,3.632,0,0,1-14.6-.272a4.191,4.191,0,0,1-1.916.448,4.055,4.055,0,0,1-3.164-1.292,5.124,5.124,0,0,1-1.169-3.568V-4.9a5.039,5.039,0,0,1,1.16-3.476,4.018,4.018,0,0,1,3.164-1.305,3.907,3.907,0,0,1,2.764.989,3.542,3.542,0,0,1,1.121,2.6h-2.013a1.956,1.956,0,0,0-.558-1.345,1.8,1.8,0,0,0-1.332-.527,1.879,1.879,0,0,0-1.6.751,3.834,3.834,0,0,0-.571,2.281V-4.6a3.9,3.9,0,0,0,.558,2.307A1.878,1.878,0,0,0-16.541-1.529Zm5.115-3.313a5.607,5.607,0,0,1,.554-2.518A4.044,4.044,0,0,1-9.316-9.083a4.383,4.383,0,0,1,2.3-.6A4.154,4.154,0,0,1-3.889-8.446a4.874,4.874,0,0,1,1.3,3.287l.009.5a5.658,5.658,0,0,1-.541,2.514A4,4,0,0,1-4.671-.431,4.415,4.415,0,0,1-7,.176a4.125,4.125,0,0,1-3.221-1.34,5.133,5.133,0,0,1-1.208-3.573Zm2.136.185a3.832,3.832,0,0,0,.606,2.3A1.971,1.971,0,0,0-7-1.529a1.95,1.95,0,0,0,1.683-.844,4.232,4.232,0,0,0,.6-2.47,3.782,3.782,0,0,0-.62-2.285,1.979,1.979,0,0,0-1.683-.844,1.96,1.96,0,0,0-1.661.831A4.152,4.152,0,0,0-9.29-4.658ZM1.494,0H-.642V-13.5H1.494ZM3.419-4.843a5.607,5.607,0,0,1,.554-2.518A4.044,4.044,0,0,1,5.528-9.083a4.383,4.383,0,0,1,2.3-.6,4.154,4.154,0,0,1,3.125,1.239,4.874,4.874,0,0,1,1.3,3.287l.009.5a5.658,5.658,0,0,1-.541,2.514A4,4,0,0,1,10.173-.431,4.415,4.415,0,0,1,7.849.176a4.125,4.125,0,0,1-3.221-1.34A5.133,5.133,0,0,1,3.419-4.737Zm2.136.185a3.832,3.832,0,0,0,.606,2.3,1.971,1.971,0,0,0,1.688.831,1.95,1.95,0,0,0,1.683-.844,4.232,4.232,0,0,0,.6-2.47,3.782,3.782,0,0,0-.62-2.285,1.979,1.979,0,0,0-1.683-.844,1.96,1.96,0,0,0-1.661.831A4.152,4.152,0,0,0,5.555-4.658ZM8.42-13.5h2.435L8.42-10.837l-1.714,0Zm5.273,8.675a5.562,5.562,0,0,1,1.042-3.538A3.343,3.343,0,0,1,17.5-9.686a3.132,3.132,0,0,1,2.558,1.134l.1-.958h1.925V-.29a3.832,3.832,0,0,1-1.165,2.953,4.436,4.436,0,0,1-3.142,1.081,5.064,5.064,0,0,1-2.043-.435,3.631,3.631,0,0,1-1.516-1.138L15.223.888a3.053,3.053,0,0,0,2.426,1.169,2.359,2.359,0,0,0,1.679-.576,2.206,2.206,0,0,0,.615-1.692V-.853A3.144,3.144,0,0,1,17.481.176a3.335,3.335,0,0,1-2.729-1.327A5.742,5.742,0,0,1,13.693-4.825Zm2.127.185A3.829,3.829,0,0,0,16.4-2.386a1.879,1.879,0,0,0,1.622.822,2.055,2.055,0,0,0,1.916-1.107V-6.855a2.026,2.026,0,0,0-1.9-1.081A1.887,1.887,0,0,0,16.4-7.1,4.287,4.287,0,0,0,15.82-4.641ZM26.543,0H24.407V-9.51h2.136ZM24.275-11.988a1.147,1.147,0,0,1,.312-.824,1.173,1.173,0,0,1,.892-.328,1.188,1.188,0,0,1,.9.328,1.138,1.138,0,0,1,.316.824,1.112,1.112,0,0,1-.316.811,1.2,1.2,0,0,1-.9.323,1.182,1.182,0,0,1-.892-.323A1.12,1.12,0,0,1,24.275-11.988Zm8.5,10.459A1.931,1.931,0,0,0,34.1-2a1.591,1.591,0,0,0,.563-1.151h2.013a3.137,3.137,0,0,1-.554,1.657A3.632,3.632,0,0,1,34.717-.272,4.191,4.191,0,0,1,32.8.176a4.055,4.055,0,0,1-3.164-1.292,5.124,5.124,0,0,1-1.169-3.568V-4.9a5.039,5.039,0,0,1,1.16-3.476,4.018,4.018,0,0,1,3.164-1.305,3.907,3.907,0,0,1,2.764.989,3.542,3.542,0,0,1,1.121,2.6H34.664a1.956,1.956,0,0,0-.558-1.345,1.8,1.8,0,0,0-1.332-.527,1.879,1.879,0,0,0-1.6.751A3.834,3.834,0,0,0,30.6-4.939V-4.6a3.9,3.9,0,0,0,.558,2.307A1.878,1.878,0,0,0,32.774-1.529ZM43.972,0a3.3,3.3,0,0,1-.246-.888,3.325,3.325,0,0,1-2.5,1.063,3.355,3.355,0,0,1-2.338-.817,2.615,2.615,0,0,1-.905-2.021A2.7,2.7,0,0,1,39.116-5a5.473,5.473,0,0,1,3.23-.813h1.31v-.624a1.666,1.666,0,0,0-.413-1.182,1.638,1.638,0,0,0-1.257-.444,1.881,1.881,0,0,0-1.2.365,1.129,1.129,0,0,0-.466.927H38.188a2.37,2.37,0,0,1,.519-1.463A3.455,3.455,0,0,1,40.118-9.3a4.955,4.955,0,0,1,1.991-.387,3.99,3.99,0,0,1,2.663.839,2.993,2.993,0,0,1,1.02,2.36V-2.2a4.861,4.861,0,0,0,.36,2.048V0ZM41.625-1.538a2.429,2.429,0,0,0,1.191-.308,2.055,2.055,0,0,0,.839-.826V-4.465H42.5a3.148,3.148,0,0,0-1.784.413,1.338,1.338,0,0,0-.6,1.169,1.248,1.248,0,0,0,.409.98A1.583,1.583,0,0,0,41.625-1.538Z" transform="translate(800.272 1675.854)" fill="#686868"/>
    <path id="Trazado_102240" data-name="Trazado 102240" d="M77.337-1225.534a7.435,7.435,0,0,1,5.847-2.682,7.649,7.649,0,0,1,5.678,2.222,7.645,7.645,0,0,1,2.205,5.624,16.117,16.117,0,0,1-2.131,7.346c-1.42,2.709-4.254,6.292-8.551,10.749l-5.469,5.74v18.166h27.478v-10.393H81.912l6.449-6.937q7.74-8.246,10.651-14.277a26.123,26.123,0,0,0,2.913-11.282,17.456,17.456,0,0,0-2.4-8.663,16.74,16.74,0,0,0-6.407-6.524,18.378,18.378,0,0,0-9.215-2.261,19.894,19.894,0,0,0-8.984,1.939v17.63A11.212,11.212,0,0,1,77.337-1225.534Z" transform="translate(633.721 2811.229)" fill="#f98473"/>
    <path id="Trazado_102241" data-name="Trazado 102241" d="M74.916-1196.535l-3.275,3.273v14.893h3.275Z" transform="translate(633.721 2811.229)" fill="#bd4b3a"/>
    <path id="Trazado_102242" data-name="Trazado 102242" d="M74.916-1219.137v-17.63a18.226,18.226,0,0,0-3.275,1.967v16.566h3.17C74.821-1218.518,74.916-1218.846,74.916-1219.137Z" transform="translate(633.721 2811.229)" fill="#bd4b3a"/>
    <rect id="Rectángulo_6324" data-name="Rectángulo 6324" width="48.945" height="1.512" transform="translate(775.799 1650.703)" fill="#f98473"/>
    <g id="Grupo_57026" data-name="Grupo 57026" transform="translate(633.721 2811.229)">
      <path id="Trazado_102247" data-name="Trazado 102247" d="M74.916-1219.137a11.212,11.212,0,0,1,2.421-6.4A8.212,8.212,0,0,1,79-1226.992v-11.2a17.356,17.356,0,0,0-4.082,1.427l-2.491,8.171Z" fill="#bd4b3a"/>
      <path id="Trazado_102248" data-name="Trazado 102248" d="M79-1200.819l-4.082,4.284s-.81,6.557-.81,11.1a25.388,25.388,0,0,0,.81,7.067H79Z" fill="#bd4b3a"/>
    </g>
    <g id="Grupo_58747" data-name="Grupo 58747" transform="translate(6680.462 11655.703)">
      <g id="Grupo_58745" data-name="Grupo 58745" transform="translate(-6873.652 -11007.978)">
        <path id="Trazado_104660" data-name="Trazado 104660" d="M1012.059,979.638c0-2.231-.035-4.463.009-6.693a12.111,12.111,0,0,1,2.063-6.566,24.488,24.488,0,0,0,3.87-8.962A23.548,23.548,0,0,0,998.109,929.4a23.438,23.438,0,0,0-25.9,17.692,31.72,31.72,0,0,0-.665,6.036,21.238,21.238,0,0,1-1.667,7.767c-.842,1.954-1.655,3.919-2.483,5.879-.473,1.122-.469,1.129.67,1.439.9.245,1.792.485,2.681.753a3.089,3.089,0,0,1,2.336,2.639c.5,3.164,1.008,6.327,1.493,9.493a2.444,2.444,0,0,0,2.642,2.291q4.046.008,8.091,0a5.9,5.9,0,0,0,6.162-5.848,1.34,1.34,0,0,1,1.379-1.4,1.362,1.362,0,0,1,1.35,1.508c.013,4.058-3.345,8.026-7.372,8.329-3.365.252-6.758.14-10.139.145a4.207,4.207,0,0,1-1.558-.378,5.086,5.086,0,0,1-3.249-4.345c-.354-2.615-.932-5.206-1.186-7.829a2.3,2.3,0,0,0-2.32-2.452,9.086,9.086,0,0,1-1.629-.424,3.169,3.169,0,0,1-2.11-4.364c.954-2.33,1.957-4.64,2.922-6.966a16.6,16.6,0,0,0,1.247-6.513,26.2,26.2,0,0,1,51.774-5.938,25.578,25.578,0,0,1-3.733,20.218,12.554,12.554,0,0,0-2.132,7.193c.03,4.193.005,8.386,0,12.579,0,.969-.527,1.6-1.332,1.6a1.415,1.415,0,0,1-1.367-1.585c-.014-2.427,0-4.855,0-7.282Z" fill="#b94a39"/>
      </g>
      <g id="Grupo_58746" data-name="Grupo 58746" transform="translate(-6873.652 -11007.978)">
        <path id="Shape" d="M996.813,959.362a6.638,6.638,0,1,0-6.638-6.637A6.637,6.637,0,0,0,996.813,959.362Zm0-11.379a4.742,4.742,0,1,1-4.741,4.742A4.742,4.742,0,0,1,996.813,947.983Z" fill="#b94a39"/>
        <path id="Trazado_104661" data-name="Trazado 104661" d="M1011.777,954.722l.207-2.6v-.52a1.9,1.9,0,0,0-.586-1.362,19.8,19.8,0,0,0-2.8-.875l-.967-.191a11.414,11.414,0,0,0-.663-1.6l1.612-2.407a1.882,1.882,0,0,0-.143-2.239l-.29-.335-2.463-1.925a1.919,1.919,0,0,0-1.328.292l-2.394,1.6a11.256,11.256,0,0,0-1.6-.664l-.532-2.651h0a2.114,2.114,0,0,0-1.948-1.7h-2.187a1.9,1.9,0,0,0-1.859,1.517l-.569,2.837a11.2,11.2,0,0,0-1.6.664l-2.408-1.612a1.9,1.9,0,0,0-2.382.248L985.3,942.78a1.9,1.9,0,0,0-.25,2.4l1.6,2.4a11.245,11.245,0,0,0-.664,1.6l-2.834.569a1.9,1.9,0,0,0-1.52,1.861v2.237a1.9,1.9,0,0,0,1.517,1.86l2.837.569a11.308,11.308,0,0,0,.664,1.6l-1.612,2.407a1.9,1.9,0,0,0,.247,2.382l1.574,1.574a1.9,1.9,0,0,0,2.4.249l2.4-1.6a11.2,11.2,0,0,0,1.6.664l.569,2.833a1.9,1.9,0,0,0,1.86,1.522h2.238a1.9,1.9,0,0,0,1.859-1.517l.569-2.837a11.2,11.2,0,0,0,1.6-.664l2.408,1.612a1.894,1.894,0,0,0,2.381-.248l1.574-1.573a1.9,1.9,0,0,0,.25-2.4l-1.6-2.4a11.31,11.31,0,0,0,.664-1.6l2.833-.569a1.89,1.89,0,0,0,1.306-.988Zm-1.689-.879-3.4.682a.949.949,0,0,0-.728.682,9.332,9.332,0,0,1-.929,2.239.948.948,0,0,0,.032,1l1.919,2.869-1.58,1.589-2.872-1.924a.95.95,0,0,0-1-.033,9.352,9.352,0,0,1-2.238.93.946.946,0,0,0-.682.728L997.932,966h-2.238l-.682-3.4a.949.949,0,0,0-.681-.728,9.319,9.319,0,0,1-2.239-.93.948.948,0,0,0-1,.033l-2.87,1.919-1.589-1.581,1.925-2.872a.948.948,0,0,0,.032-1,9.358,9.358,0,0,1-.929-2.239.949.949,0,0,0-.728-.682l-3.392-.679v-2.237l3.395-.682a.949.949,0,0,0,.728-.682A9.332,9.332,0,0,1,988.59,948a.948.948,0,0,0-.032-1l-1.919-2.869,1.58-1.589,2.872,1.925a.952.952,0,0,0,1,.032,9.309,9.309,0,0,1,2.238-.929.948.948,0,0,0,.678-.729l.683-3.391h2.238l.682,3.394a.948.948,0,0,0,.681.728,9.358,9.358,0,0,1,2.239.93.948.948,0,0,0,1-.033l2.87-1.919,1.589,1.581L1005.071,947a.948.948,0,0,0-.032,1,9.374,9.374,0,0,1,.929,2.239.949.949,0,0,0,.728.682l3.392.678Z" fill="#b94a39"/>
      </g>
    </g>
  </g>
</svg>
