<svg xmlns="http://www.w3.org/2000/svg" xmlns:xlink="http://www.w3.org/1999/xlink" width="190.25" height="156.297" viewBox="0 0 190.25 156.297">
  <defs>
    <linearGradient id="linear-gradient" x1="0.037" y1="0.968" x2="1.103" y2="0.023" gradientUnits="objectBoundingBox">
      <stop offset="0" stop-color="#d4d4d4"/>
      <stop offset="1" stop-color="#fff"/>
    </linearGradient>
    <linearGradient id="linear-gradient-2" x1="0.029" y1="0.973" x2="1.361" y2="-0.324" gradientUnits="objectBoundingBox">
      <stop offset="0" stop-color="#fff"/>
      <stop offset="1" stop-color="#fff"/>
    </linearGradient>
  </defs>
  <g id="Grupo_58755" data-name="Grupo 58755" transform="translate(6203.228 10152.297)">
    <g id="Grupo_58754" data-name="Grupo 58754" transform="translate(-6698 -11700)">
      <rect id="Rectángulo_6318" data-name="Rectángulo 6318" width="189.819" height="156.258" rx="12" transform="translate(495.203 1547.703)" fill="url(#linear-gradient)"/>
      <rect id="Rectángulo_6319" data-name="Rectángulo 6319" width="175.106" height="141.545" rx="11.045" transform="translate(502.559 1555.061)" fill="url(#linear-gradient-2)"/>
      <path id="Trazado_102236" data-name="Trazado 102236" d="M-147.58-1178.873h11.569v-60.481h-15.377v10.837h3.808Z" transform="translate(649.527 2811.229)" fill="#f98473"/>
      <rect id="Rectángulo_6320" data-name="Rectángulo 6320" width="3.368" height="10.837" transform="translate(494.772 1571.875)" fill="#bd4b3a"/>
      <text id="Física" transform="translate(590.113 1675.854)" fill="#686868" font-size="18" font-family="Roboto-Medium, Roboto" font-weight="500"><tspan x="-23.832" y="0">Física</tspan></text>
      <rect id="Rectángulo_6321" data-name="Rectángulo 6321" width="48.945" height="1.512" transform="translate(565.64 1650.703)" fill="#f98473"/>
      <path id="Trazado_102239" data-name="Trazado 102239" d="M-146.968-1178.873v-60.481h-4.419v10.837h3.808v49.645Z" transform="translate(649.527 2811.229)" fill="#bd4b3a"/>
      <g id="Grupo_58743" data-name="Grupo 58743" transform="translate(-168.575 663.125)">
        <g id="Grupo_58744" data-name="Grupo 58744" transform="translate(0 -15.714)">
          <path id="Trazado_104657" data-name="Trazado 104657" d="M777.722,979.638c0-2.231-.035-4.463.009-6.693a12.111,12.111,0,0,1,2.063-6.566,24.488,24.488,0,0,0,3.87-8.962A23.548,23.548,0,0,0,763.772,929.4a23.438,23.438,0,0,0-25.895,17.692,31.719,31.719,0,0,0-.664,6.036,21.257,21.257,0,0,1-1.668,7.767c-.842,1.954-1.655,3.919-2.482,5.879-.474,1.122-.469,1.129.669,1.439.9.245,1.792.485,2.681.753a3.089,3.089,0,0,1,2.336,2.639c.5,3.164,1.008,6.327,1.493,9.493a2.444,2.444,0,0,0,2.642,2.291q4.046.008,8.091,0a5.9,5.9,0,0,0,6.162-5.848,1.341,1.341,0,0,1,1.379-1.4,1.362,1.362,0,0,1,1.35,1.508c.013,4.058-3.345,8.026-7.372,8.329-3.365.252-6.758.14-10.139.145a4.206,4.206,0,0,1-1.558-.378,5.086,5.086,0,0,1-3.249-4.345c-.354-2.615-.932-5.206-1.186-7.829a2.3,2.3,0,0,0-2.32-2.452,9.084,9.084,0,0,1-1.629-.424,3.169,3.169,0,0,1-2.11-4.364c.954-2.33,1.957-4.64,2.922-6.966a16.566,16.566,0,0,0,1.247-6.513,26.2,26.2,0,0,1,51.774-5.938,25.577,25.577,0,0,1-3.733,20.218,12.561,12.561,0,0,0-2.132,7.193c.031,4.193.005,8.386,0,12.579,0,.969-.527,1.6-1.332,1.6a1.414,1.414,0,0,1-1.366-1.585c-.015-2.427-.005-4.855-.005-7.282Z" fill="#b94a39"/>
          <path id="Trazado_104658" data-name="Trazado 104658" d="M765.144,955.15a5.354,5.354,0,0,1-4.2-1.913,1.42,1.42,0,0,1,.007-2.089,1.4,1.4,0,0,1,2.013.265,2.661,2.661,0,0,0,3.051.788,2.583,2.583,0,0,0,1.558-2.728c-.042-1.024.379-1.631,1.184-1.7s1.383.439,1.506,1.437a5.056,5.056,0,0,1-2.038,4.833.812.812,0,0,0-.333.936,4.388,4.388,0,0,0,3.516,3.246A4.309,4.309,0,0,0,775.982,956a4.4,4.4,0,0,0-.47-4.82,2.509,2.509,0,0,0-.229-.205c-.112.162-.2.3-.306.44a1.363,1.363,0,0,1-1.815.434,1.328,1.328,0,0,1-.49-1.844,6.194,6.194,0,0,0,.818-3.445,5.587,5.587,0,0,0-6.075-5.067c-1.007.137-1.379-.073-1.876-1a6.5,6.5,0,0,0-6.168-3.752,6.612,6.612,0,0,0-6.359,6.455c0,.392.038.784.029,1.176a1.325,1.325,0,0,1-1.218,1.326,1.356,1.356,0,0,1-1.451-1.167c-.052-.334-.08-.672-.118-1-2.317-.177-4.869,2.265-5.049,4.771a5.466,5.466,0,0,0,5.155,6.147,15.657,15.657,0,0,1,.983-1.872,5.509,5.509,0,0,1,4.675-2.467,1.338,1.338,0,1,1,.147,2.671c-2.055.273-3.224,1.482-3.155,3.266a3.054,3.054,0,0,0,2.938,2.912c1.249.035,2.511-.048,3.744.109a5.949,5.949,0,0,1,5.35,5.995c.031,1.176.014,2.354-.007,3.531-.017.979-.552,1.579-1.367,1.586-.845.007-1.369-.6-1.378-1.634-.009-1.152.006-2.3,0-3.456a3.267,3.267,0,0,0-3.326-3.361,30.027,30.027,0,0,1-3.812-.124,5.517,5.517,0,0,1-4.561-3.877c-.134-.37-.264-.535-.694-.566a8.241,8.241,0,0,1-.864-16.283,2.635,2.635,0,0,0,2.271-1.691,9.243,9.243,0,0,1,16.019-1.03,1.256,1.256,0,0,0,1.117.633,8.182,8.182,0,0,1,7.795,8.251,2.012,2.012,0,0,0,.747,1.737,7,7,0,0,1,1.646,8.012,7.087,7.087,0,0,1-13.377-1.173C765.213,955.484,765.186,955.343,765.144,955.15Z" fill="#b94a39"/>
        </g>
        <path id="Trazado_104659" data-name="Trazado 104659" d="M762.585,947.257a2.573,2.573,0,0,0-4.615-1.744,1.427,1.427,0,0,1-2.054.374c-.672-.546-.687-1.312-.043-2.141A5.328,5.328,0,0,1,761.9,942.1a5.391,5.391,0,0,1,3.436,5.233c-.093,1.1-.624,1.731-1.451,1.687A1.387,1.387,0,0,1,762.585,947.257Z" fill="#b94a39"/>
      </g>
    </g>
    <path id="Rectángulo_6487" data-name="Rectángulo 6487" d="M0,0H190a0,0,0,0,1,0,0V43a13,13,0,0,1-13,13H13A13,13,0,0,1,0,43V0A0,0,0,0,1,0,0Z" transform="translate(-6203 -10052)" fill="#f98473"/>
    <path id="Trazado_105022" data-name="Trazado 105022" d="M-51.254,0h-1.508l-5.727-8.766V0H-60V-11.375h1.508l5.742,8.8v-8.8h1.492Zm5.945.156a3.693,3.693,0,0,1-2.8-1.129,4.19,4.19,0,0,1-1.078-3.02v-.266A5.073,5.073,0,0,1-48.7-6.5a3.748,3.748,0,0,1,1.344-1.547,3.378,3.378,0,0,1,1.871-.559,3.166,3.166,0,0,1,2.563,1.086,4.7,4.7,0,0,1,.914,3.109v.6h-5.727a3,3,0,0,0,.73,2.02,2.3,2.3,0,0,0,1.777.77,2.517,2.517,0,0,0,1.3-.312A3.259,3.259,0,0,0-43-2.164l.883.688A3.55,3.55,0,0,1-45.309.156Zm-.18-7.578a1.928,1.928,0,0,0-1.469.637A3.1,3.1,0,0,0-47.691-5h4.234v-.109a2.753,2.753,0,0,0-.594-1.707A1.815,1.815,0,0,0-45.488-7.422ZM-35.121-.836A3.07,3.07,0,0,1-37.6.156a2.628,2.628,0,0,1-2.059-.785,3.4,3.4,0,0,1-.715-2.324v-5.5h1.445v5.461q0,1.922,1.563,1.922A2.163,2.163,0,0,0-35.16-2.3V-8.453h1.445V0H-35.09Zm7.688-6.32a4.331,4.331,0,0,0-.711-.055A1.9,1.9,0,0,0-30.074-6V0H-31.52V-8.453h1.406l.023.977a2.251,2.251,0,0,1,2.016-1.133,1.477,1.477,0,0,1,.641.109Zm.789,2.852a4.993,4.993,0,0,1,.488-2.234A3.643,3.643,0,0,1-24.8-8.07a3.7,3.7,0,0,1,1.988-.539,3.565,3.565,0,0,1,2.793,1.2,4.6,4.6,0,0,1,1.066,3.18v.1a5.036,5.036,0,0,1-.473,2.215A3.589,3.589,0,0,1-20.773-.391a3.743,3.743,0,0,1-2.02.547,3.556,3.556,0,0,1-2.785-1.2A4.575,4.575,0,0,1-26.645-4.2Zm1.453.172a3.616,3.616,0,0,0,.652,2.258,2.088,2.088,0,0,0,1.746.852,2.075,2.075,0,0,0,1.75-.863A3.955,3.955,0,0,0-20.395-4.3a3.61,3.61,0,0,0-.66-2.254,2.1,2.1,0,0,0-1.754-.863,2.075,2.075,0,0,0-1.727.852A3.925,3.925,0,0,0-25.191-4.133ZM-11.918,0a3.036,3.036,0,0,1-.2-.891A3.225,3.225,0,0,1-14.527.156a2.984,2.984,0,0,1-2.051-.707,2.287,2.287,0,0,1-.8-1.793,2.39,2.39,0,0,1,1-2.051,4.733,4.733,0,0,1,2.824-.73h1.406v-.664A1.623,1.623,0,0,0-12.6-7a1.821,1.821,0,0,0-1.336-.449,2.107,2.107,0,0,0-1.3.391,1.151,1.151,0,0,0-.523.945h-1.453a2,2,0,0,1,.449-1.223,3.066,3.066,0,0,1,1.219-.934,4.1,4.1,0,0,1,1.691-.344,3.342,3.342,0,0,1,2.289.73A2.635,2.635,0,0,1-10.7-5.867v3.891a4.757,4.757,0,0,0,.3,1.852V0Zm-2.4-1.1a2.54,2.54,0,0,0,1.289-.352,2.127,2.127,0,0,0,.883-.914V-4.1h-1.133q-2.656,0-2.656,1.555a1.316,1.316,0,0,0,.453,1.063A1.742,1.742,0,0,0-14.316-1.1Zm5.531-3.2a4.952,4.952,0,0,1,.922-3.129A2.915,2.915,0,0,1-5.449-8.609,2.932,2.932,0,0,1-3.1-7.594V-12h1.445V0H-2.98l-.07-.906A2.943,2.943,0,0,1-5.465.156a2.887,2.887,0,0,1-2.395-1.2,5.008,5.008,0,0,1-.926-3.141Zm1.445.164a3.749,3.749,0,0,0,.594,2.25,1.92,1.92,0,0,0,1.641.813A2.108,2.108,0,0,0-3.1-2.3V-6.187a2.125,2.125,0,0,0-1.992-1.2,1.929,1.929,0,0,0-1.656.82A4.128,4.128,0,0,0-7.34-4.133ZM5.809,0a3.036,3.036,0,0,1-.2-.891A3.225,3.225,0,0,1,3.2.156,2.984,2.984,0,0,1,1.148-.551a2.287,2.287,0,0,1-.8-1.793,2.39,2.39,0,0,1,1-2.051,4.733,4.733,0,0,1,2.824-.73H5.582v-.664A1.623,1.623,0,0,0,5.129-7a1.821,1.821,0,0,0-1.336-.449,2.107,2.107,0,0,0-1.3.391,1.151,1.151,0,0,0-.523.945H.52A2,2,0,0,1,.969-7.332a3.066,3.066,0,0,1,1.219-.934,4.1,4.1,0,0,1,1.691-.344,3.342,3.342,0,0,1,2.289.73,2.635,2.635,0,0,1,.859,2.012v3.891a4.757,4.757,0,0,0,.3,1.852V0ZM3.41-1.1A2.54,2.54,0,0,0,4.7-1.453a2.127,2.127,0,0,0,.883-.914V-4.1H4.449q-2.656,0-2.656,1.555a1.316,1.316,0,0,0,.453,1.063A1.742,1.742,0,0,0,3.41-1.1ZM16.434-4.133a5.062,5.062,0,0,1-.883,3.109A2.829,2.829,0,0,1,13.16.156,3.1,3.1,0,0,1,10.738-.82V3.25H9.293v-11.7h1.32l.07.938a2.977,2.977,0,0,1,2.453-1.094,2.882,2.882,0,0,1,2.41,1.148,5.117,5.117,0,0,1,.887,3.2ZM14.988-4.3a3.735,3.735,0,0,0-.609-2.258,1.963,1.963,0,0,0-1.672-.828,2.125,2.125,0,0,0-1.969,1.164V-2.18a2.129,2.129,0,0,0,1.984,1.156,1.954,1.954,0,0,0,1.652-.824A4.077,4.077,0,0,0,14.988-4.3Zm5.242-6.2v2.047h1.578v1.117H20.23v5.249a1.173,1.173,0,0,0,.211.763.888.888,0,0,0,.719.254,3.5,3.5,0,0,0,.688-.094V0a4.215,4.215,0,0,1-1.109.155A1.8,1.8,0,0,1,19.277-.43a2.517,2.517,0,0,1-.492-1.664V-7.336H17.246V-8.453h1.539V-10.5ZM28.715,0a3.036,3.036,0,0,1-.2-.891A3.225,3.225,0,0,1,26.105.156a2.984,2.984,0,0,1-2.051-.707,2.287,2.287,0,0,1-.8-1.793,2.39,2.39,0,0,1,1-2.051,4.733,4.733,0,0,1,2.824-.73h1.406v-.664A1.623,1.623,0,0,0,28.035-7,1.821,1.821,0,0,0,26.7-7.445a2.108,2.108,0,0,0-1.3.391,1.151,1.151,0,0,0-.523.945H23.426a2,2,0,0,1,.449-1.223,3.066,3.066,0,0,1,1.219-.934,4.1,4.1,0,0,1,1.691-.344,3.342,3.342,0,0,1,2.289.73,2.635,2.635,0,0,1,.859,2.012v3.891a4.757,4.757,0,0,0,.3,1.852V0Zm-2.4-1.1a2.54,2.54,0,0,0,1.289-.352,2.127,2.127,0,0,0,.883-.914V-4.1H27.355Q24.7-4.1,24.7-2.547a1.316,1.316,0,0,0,.453,1.063A1.742,1.742,0,0,0,26.316-1.1Zm9.273.078a2.082,2.082,0,0,0,1.352-.469,1.649,1.649,0,0,0,.641-1.172h1.367a2.621,2.621,0,0,1-.5,1.383,3.293,3.293,0,0,1-1.23,1.047A3.55,3.55,0,0,1,35.59.156,3.482,3.482,0,0,1,32.844-1a4.59,4.59,0,0,1-1.02-3.152v-.242a5.089,5.089,0,0,1,.453-2.2,3.451,3.451,0,0,1,1.3-1.492,3.7,3.7,0,0,1,2-.531,3.39,3.39,0,0,1,2.363.852,3.043,3.043,0,0,1,1,2.211H37.582a1.992,1.992,0,0,0-.621-1.348,1.932,1.932,0,0,0-1.379-.527,2.023,2.023,0,0,0-1.707.793,3.724,3.724,0,0,0-.605,2.293v.273a3.65,3.65,0,0,0,.6,2.25A2.033,2.033,0,0,0,35.59-1.023ZM42.145,0H40.7V-8.453h1.445ZM40.582-10.7a.863.863,0,0,1,.215-.594.807.807,0,0,1,.637-.242.819.819,0,0,1,.641.242.854.854,0,0,1,.219.594.826.826,0,0,1-.219.586.834.834,0,0,1-.641.234.821.821,0,0,1-.637-.234A.834.834,0,0,1,40.582-10.7ZM44.074-4.3a4.993,4.993,0,0,1,.488-2.234A3.643,3.643,0,0,1,45.922-8.07a3.7,3.7,0,0,1,1.988-.539,3.565,3.565,0,0,1,2.793,1.2,4.6,4.6,0,0,1,1.066,3.18v.1A5.036,5.036,0,0,1,51.3-1.918,3.589,3.589,0,0,1,49.945-.391a3.743,3.743,0,0,1-2.02.547,3.556,3.556,0,0,1-2.785-1.2A4.575,4.575,0,0,1,44.074-4.2Zm1.453.172a3.616,3.616,0,0,0,.652,2.258,2.088,2.088,0,0,0,1.746.852,2.075,2.075,0,0,0,1.75-.863A3.955,3.955,0,0,0,50.324-4.3a3.61,3.61,0,0,0-.66-2.254,2.1,2.1,0,0,0-1.754-.863,2.075,2.075,0,0,0-1.727.852A3.925,3.925,0,0,0,45.527-4.133Zm3.039-7.852h1.75l-2.094,2.3-1.164,0Zm6.383,3.531L55-7.391a3.08,3.08,0,0,1,2.531-1.219q2.68,0,2.7,3.023V0H58.785V-5.594a1.946,1.946,0,0,0-.418-1.352,1.675,1.675,0,0,0-1.277-.437,2.086,2.086,0,0,0-1.234.375,2.546,2.546,0,0,0-.828.984V0H53.582V-8.453Z" transform="translate(-6108 -10018)" fill="#fff"/>
  </g>
</svg>
