<svg xmlns="http://www.w3.org/2000/svg" xmlns:xlink="http://www.w3.org/1999/xlink" width="400.219" height="336.712" viewBox="0 0 400.219 336.712">
  <defs>
    <clipPath id="clip-path">
      <path id="Trazado_104621" data-name="Trazado 104621" d="M928.376,444.41s-1.179,5.2,1.623,9.4a11.694,11.694,0,0,0,7.094,4.81l64.927-38.234-11.482-14.429Z" transform="translate(-928.13 -405.958)" fill="none"/>
    </clipPath>
  </defs>
  <g id="Grupo_58405" data-name="Grupo 58405" transform="translate(-775.409 -166.329)">
    <path id="Trazado_104624" data-name="Trazado 104624" d="M200,0C310.457,0,400,54.444,400,121.6s-89.543,121.6-200,121.6S0,188.764,0,121.6,89.543,0,200,0Z" transform="translate(775.409 259.744)" fill="#fd705c"/>
    <path id="Trazado_104574" data-name="Trazado 104574" d="M968.6,518.407c-1.28-13.921-3.813-36.662-3.813-36.662l-3.679-5.531s-60.776,3.768-61.584,3.768-47.643,6.73-47.643,6.73-.523,1.352-1.3,3.378C882.828,506.573,923.753,516.982,968.6,518.407Z" transform="translate(-3.79 -15.624)" fill="#4e4e4e" stroke="#0e0e0e" stroke-miterlimit="10" stroke-width="0.5"/>
    <path id="Trazado_104575" data-name="Trazado 104575" d="M1116.338,489.822c-.3-.839-.512-1.374-.512-1.374s-31.415,1.076-32.223,0-72.921-9.818-72.921-9.818l-5.869,39.582C1047.162,515.935,1085.714,505.634,1116.338,489.822Z" transform="translate(-11.567 -15.746)" fill="#4e4e4e" stroke="#0e0e0e" stroke-miterlimit="10" stroke-width="0.5"/>
    <g id="Grupo_58404" data-name="Grupo 58404" transform="translate(799.744 166.329)">
      <g id="Grupo_58401" data-name="Grupo 58401" transform="translate(0 7.9)">
        <path id="Trazado_104576" data-name="Trazado 104576" d="M970.13,364.681a122.412,122.412,0,0,0,77.251,61.528,99.828,99.828,0,0,1-9.73,24.355,6.2,6.2,0,0,1-1.736,2.194c-1.285.88-2.993.707-4.534.477-30.476-4.576-59.163-17.318-77.05-43.7-7.42-10.946-12.371-23.335-17.26-35.552" transform="translate(-807.895 -184.229)" fill="#ecb7b2" stroke="#0e0e0e" stroke-miterlimit="10" stroke-width="0.5"/>
        <path id="Trazado_104577" data-name="Trazado 104577" d="M946.127,395.09a81.408,81.408,0,0,0,37.713-9.652,118.16,118.16,0,0,1-13.71-20.757l-33.06,9.3C939.906,381.065,942.779,388.2,946.127,395.09Z" transform="translate(-807.895 -184.229)" fill="#ec7163" opacity="0.14" style="mix-blend-mode: multiply;isolation: isolate"/>
        <path id="Trazado_104578" data-name="Trazado 104578" d="M834.626,403.813a24.788,24.788,0,0,0,2.506-.191l1.206,18.959a4.127,4.127,0,0,1-.217,2.053c-2.323,4.865-29.9,29.334-22.269,33.777,9.11,5.3,28.178,21.414,37.991,23.867,19.359,4.838,27.294,8.783,47.3,7.484,20.631-1.34,44.037-6,61.478-18.192-.8-3.8-2.544-7.693-3.307-10.862a133.526,133.526,0,0,0-7.409-21.606c-1.646-3.826-23.285-41.958-23.521-41.7a52.974,52.974,0,0,0,10.864-17.992c7.685,1.334,17.164,1.081,24.158-2.7,1.815-.981,14.658-9.933,13.237-12.039l-14.959-22.182c-5.067-7.512-10.516-14.654-15.749-22.059-3.752-5.309-7.779-10.924-13.794-13.391-7.911-3.245-17.069-.174-25.408-2.058q.356-13.889.176-27.786a156.8,156.8,0,0,1-25.779-2.794c-.058,9.862-1.98,19.638-3.344,29.4-9.736,1.912-19.554,3.851-28.683,7.736-11.653,4.961-23.495,14.645-27.749,26.9-6.179,17.8-9.152,37.474-13.625,55.789C816.241,398.651,824.927,404.06,834.626,403.813Z" transform="translate(-801.374 -179.678)" fill="#ecb7b2" stroke="#0e0e0e" stroke-miterlimit="10" stroke-width="0.5"/>
        <path id="Trazado_104579" data-name="Trazado 104579" d="M1100.513,423.543c-1.187.957.924,2.435,2.448,2.467q11.3.245,22.6-.062c5.458-.148,11.1-.438,15.989-2.864,4.581-2.273,8.09-6.224,11.2-10.285a113.942,113.942,0,0,0,10.668-16.8c1.741-3.362,3.35-6.959,3.31-10.745s-2.166-7.8-5.79-8.894c12.663-3.829,21.331-16.8,22.131-30s-5.336-26.2-14.512-35.727c-3.411-3.542-7.812-6.875-12.711-6.447,3.995-11.3,7.924-24.128,2.554-34.846-2.332-4.654-6.211-8.348-10.3-11.564a85.73,85.73,0,0,0-20.826-12.056c1.45-13.834.878-28.221-4.538-41.032-8.291-19.61-26.343-28.713-46.852-29.9-24.605-1.422-49.97,7.766-59.822,32.022-4.908,12.084-5.645,25.623-3.4,38.471.407,2.325.815,5.018-.746,6.789-1.175,1.333-3.083,1.666-4.829,2a57.758,57.758,0,0,0-24.828,11.371c-6.133,4.852-11.436,11.337-12.812,19.036s2.156,16.585,9.389,19.558a37.231,37.231,0,0,0,23.522,64.549,47.975,47.975,0,0,0,73.273,17.766" transform="translate(-809.403 -174.648)" fill="#8c081f"/>
        <path id="Trazado_104580" data-name="Trazado 104580" d="M1142.945,312.168c-3.568-9.019-11.2-16.157-15.345-24.75a4.894,4.894,0,0,1-4.121-1.461,37.066,37.066,0,0,1-3.284-4.024,5.912,5.912,0,0,1-3.992-2.413,22.31,22.31,0,0,1-1.756-2.711,12.886,12.886,0,0,1-3.63-3.753,5.256,5.256,0,0,1,.812-6.294c.461-.528.878-1,1.285-1.452l.017-.072a125.606,125.606,0,0,1-2.823-18.5,4.2,4.2,0,0,1,2.8-4.654c-5.138-7.862-11.345-15.06-20.153-17.605-5.328-1.538-11-1.143-16.528-.735-9.6.686-22.11,4.069-31.553,2.666-6.013-.893-10.516-10.347-17.014-8.158-8.573,2.888-7.75,22.52-6.679,29.363a23.731,23.731,0,0,1,.46,7.6c-.928,5.451-5.885,9.269-10.855,11.692s-10.457,4.122-14.492,7.9a17.983,17.983,0,0,0,3.788,28.973,27.906,27.906,0,0,0,13.676,51.508c3.722,15.083,17.283,26.357,32.179,30.768s30.932,2.907,46.1-.455a77.179,77.179,0,0,0,17.64-5.736c8.249-4.08,15.127-10.419,21.879-16.671,4.375-4.05,8.86-8.251,11.32-13.681,2.061-4.548,2.546-9.635,2.805-14.621C1145.878,327.221,1145.771,319.312,1142.945,312.168Z" transform="translate(-810.407 -176.83)" fill="#632c31" opacity="0.17" style="mix-blend-mode: multiply;isolation: isolate"/>
        <path id="Trazado_104581" data-name="Trazado 104581" d="M1022.358,353.566c-3.659,15.472-2.284,25.42,7.362,38.048a3.892,3.892,0,0,1,1.036,2.165,3.837,3.837,0,0,1-.572,1.767c-11.453,22.271-19.745,47.568-22.985,72.405a15.945,15.945,0,0,0-.178,2.6c8.842,5.156,18.937,8.3,28.89,10.308a174.6,174.6,0,0,0,47.143,2.79c13.871-1.014,9.21,1.916,22.638-1.7,5.667-1.528,28.359-17.249,33.74-19.874-4.706-26.37-14.293-42.533-25.778-66.771,0-1.651,5.057-6.938,6.085-8.433,1.065-1.55,2.127-3.087,3.155-4.643,1.383-2.094,2.705-4.221,3.9-6.457a233.843,233.843,0,0,0,18.363,31.495c1.545,2.23,29.585-10.4,33.328-11.151-7.444-26.465-24.228-53.456-38.082-77.17-2.779-4.758-5.7-9.57-9.885-13.149-9.963-8.512-24.488-8.2-37.568-7.43a241.177,241.177,0,0,1-6.466-31.521,194.3,194.3,0,0,0-27.05,6.285c-.686,9.532-.48,19.06-.689,28.641-13.007-.227-22.546-2.606-34.57,3.916-28.146,15.267-56.58,32.54-88.454,35.58a124.578,124.578,0,0,0,5.755,27.939c14.294.235,28.656,1.008,42.9-.572,6.472-.718,14.424-1.421,20.352-4.323,6.218-3.043,12.191-8.418,18.014-12.332Q1022.548,352.765,1022.358,353.566Z" transform="translate(-807.827 -179.296)" fill="#e0a7a2" stroke="#0e0e0e" stroke-miterlimit="10" stroke-width="0.5"/>
        <path id="Trazado_104582" data-name="Trazado 104582" d="M1117.439,396.951c0-1.651,5.057-6.938,6.085-8.433,1.065-1.55,2.127-3.087,3.155-4.643.858-1.3,1.679-2.625,2.475-3.968-.3-.538-.616-1.073-.926-1.607-7.6-13.071-10.926-26.875-11.93-41.761-.811-12.015.663-24.045,2.267-35.99a68.574,68.574,0,0,0-11.852-.9q-.593,22-1.186,44a302.637,302.637,0,0,1-55.438-5.189q1.5-17.726,3-35.453a84.717,84.717,0,0,0-9.464-.085c.859-.051-3.333,22.607-4.17,24.633-2.159,5.237-4.026,10.993-6.759,15.941-2.789,5.051-6.449,9.073-8.255,14.736-3.864,12.111,1.674,25.37,9.06,35.039a3.892,3.892,0,0,1,1.036,2.165,3.837,3.837,0,0,1-.572,1.767c-11.453,22.271-19.745,47.568-22.985,72.405a15.945,15.945,0,0,0-.178,2.6c8.842,5.156,18.937,8.3,28.89,10.308a174.6,174.6,0,0,0,47.143,2.79c13.871-1.014,17.947,2.768,29.926-4.3,23.218-13.692,22.5-12.8,26.452-17.281C1138.511,437.351,1128.924,421.189,1117.439,396.951Z" transform="translate(-811.612 -180.951)" fill="#00537e"/>
        <path id="Trazado_104583" data-name="Trazado 104583" d="M1143.273,466.335q-.634-2.625-1.345-5.229-4.323,1.582-8.718,2.958a280.9,280.9,0,0,0-16.083-49.086c-1.843-4.26-3.844-8.45-5.9-12.609-3.363-6.784.224-10.992,4.131-16.258l8.915-12.015c-.338-.755-.667-1.512-.981-2.272l-9.794,13.2c-2.036,2.744-5.97,6.388-6.259,10.032-.3,3.825,1.349,6.83,3.011,10.182a267.555,267.555,0,0,1,20.912,59.454c-.752.229-1.5.471-2.253.692a190.517,190.517,0,0,1-47.855,7.362,187.5,187.5,0,0,1-68.2-10.711q-.506,2.664-.938,5.325a196.227,196.227,0,0,0,121.8,2.213C1136.929,468.595,1140.117,467.507,1143.273,466.335Z" transform="translate(-811.668 -184.59)" fill="#e79ec6" style="mix-blend-mode: color-burn;isolation: isolate"/>
        <path id="Trazado_104584" data-name="Trazado 104584" d="M1093.02,266.836a194.3,194.3,0,0,0-27.05,6.285c-.523,7.275-.528,14.547-.594,21.841,10.678.692,21.551-1.405,31.96-5Q1094.618,278.514,1093.02,266.836Z" transform="translate(-814.364 -179.296)" fill="#b15e51" opacity="0.21" style="mix-blend-mode: multiply;isolation: isolate"/>
        <path id="Trazado_104585" data-name="Trazado 104585" d="M1098.427,198.86a52.59,52.59,0,0,0-17.919-8.5c-14.672-3.987-30.658-1.7-40.583,10.73-11.336,14.194-15.691,34.207-12.854,51.989,1.6,10.052,8.88,20.6,18.493,24.381,18.527,7.3,42.858,6.514,56.8-9.67,14.066-16.333,15.257-46.08,1.908-63.141A31.913,31.913,0,0,0,1098.427,198.86Z" transform="translate(-812.39 -175.35)" fill="#e0a7a2" stroke="#0e0e0e" stroke-miterlimit="10" stroke-width="0.5"/>
        <path id="Trazado_104586" data-name="Trazado 104586" d="M1111.634,248.894a17.921,17.921,0,0,1,7.676-5.4c3.059-.974,6.717-.641,9.108,1.415a8.8,8.8,0,0,1,2.007,2.592,13.2,13.2,0,0,1-.944,13.143,20.408,20.408,0,0,1-11.408,8.012c-3.674,1.1-8.471.126-11.97-1.142" transform="translate(-816.418 -178.093)" fill="#cd8886" stroke="#0e0e0e" stroke-miterlimit="10" stroke-width="0.5"/>
        <g id="Grupo_58385" data-name="Grupo 58385" transform="translate(298.791 69.982)">
          <g id="Grupo_58383" data-name="Grupo 58383">
            <path id="Trazado_104587" data-name="Trazado 104587" d="M1127.705,248.359a2.169,2.169,0,0,0-.867.161,11.365,11.365,0,0,0-2.214.934,15.949,15.949,0,0,0-5.7,5.445,21.634,21.634,0,0,0-2.863,7.348,11.109,11.109,0,0,0-.336,3.244c.1.013.276-1.217.765-3.146a24.649,24.649,0,0,1,2.959-7.111,17.2,17.2,0,0,1,5.4-5.4C1126.531,248.8,1127.74,248.465,1127.705,248.359Z" transform="translate(-1115.692 -248.346)" fill="#773c36"/>
          </g>
          <g id="Grupo_58384" data-name="Grupo 58384" transform="translate(2.77 5.699)">
            <path id="Trazado_104588" data-name="Trazado 104588" d="M1118.626,262.7c.129.1,1.419-1.608,2.149-4.105a6.737,6.737,0,0,0,.329-1.828,3.026,3.026,0,0,0-.354-1.527c-.459-.814-1.095-.947-1.1-.871-.05.083.423.338.7,1.06a4.515,4.515,0,0,1-.175,2.99C1119.48,260.814,1118.47,262.6,1118.626,262.7Z" transform="translate(-1118.61 -254.348)" fill="#773c36"/>
          </g>
        </g>
        <g id="Grupo_58389" data-name="Grupo 58389" transform="translate(224.146 50.427)">
          <g id="Grupo_58386" data-name="Grupo 58386">
            <path id="Trazado_104589" data-name="Trazado 104589" d="M1037.542,238.289c.505.081,1.291-2.225,1.547-5.172s-.113-5.356-.625-5.363-.98,2.325-1.234,5.2S1037.029,238.208,1037.542,238.289Z" transform="translate(-1037.084 -227.753)" fill="#1d151a"/>
          </g>
          <g id="Grupo_58387" data-name="Grupo 58387" transform="translate(36.43 2.315)">
            <path id="Trazado_104590" data-name="Trazado 104590" d="M1075.96,240.708c.506.071,1.247-2.242,1.438-5.186s-.234-5.335-.745-5.331-.925,2.339-1.117,5.208S1075.445,240.637,1075.96,240.708Z" transform="translate(-1075.448 -230.191)" fill="#1d151a"/>
          </g>
          <g id="Grupo_58388" data-name="Grupo 58388" transform="translate(15.46 19.403)">
            <path id="Trazado_104591" data-name="Trazado 104591" d="M1064.738,248.19c-.178-.064-.521.633-1.288,1.534a7.816,7.816,0,0,1-8.133,2.629c-1.149-.281-1.835-.646-1.942-.491-.094.12.438.774,1.655,1.323a7.267,7.267,0,0,0,9.14-2.955C1064.837,249.073,1064.884,248.231,1064.738,248.19Z" transform="translate(-1053.365 -248.186)" fill="#1d151a"/>
          </g>
        </g>
        <path id="Trazado_104592" data-name="Trazado 104592" d="M1041.06,218.852c.453.073.906.143,1.358.217l5.113-9.151a45.351,45.351,0,0,0-2.4,9.579c6.918,1.078,13.836,2.027,20.832,2.514l2.793-9.71q.087,4.941.173,9.881c.246.012.491.031.737.042,8.38.373,16.77.506,25.155.744q.981-4.337,1.962-8.673c.484,2.862.776,5.906,1.4,8.776.809.027,1.618.046,2.427.076,6.31.232,12.724.494,18.858-.669-.222-3.831-.767-8.22-.84-8.831-.656-5.523-3.122-14.458-7.167-18.341a68.706,68.706,0,0,0-12.156-9.367c-13.32-7.955-29.716-10.245-44.442-5.556a48.785,48.785,0,0,0-32.946,35.71C1028.173,217.517,1034.934,217.865,1041.06,218.852Z" transform="translate(-812.173 -174.815)" fill="#8c081f"/>
        <path id="Trazado_104593" data-name="Trazado 104593" d="M1114.391,268.318c-.769-4.793,1.578-9.545,4.453-13.457,1.72-2.342,3.83-4.641,6.644-5.371a2.838,2.838,0,0,1,2.487.287,3,3,0,0,1,.894,1.966c.625,4.341-1.514,8.679-4.474,11.913a17.319,17.319,0,0,1-9.561,5.656c-.617.106-1.511-.066-1.467-.691" transform="translate(-816.784 -178.414)" fill="#b15e51" opacity="0.21" style="mix-blend-mode: multiply;isolation: isolate"/>
        <path id="Trazado_104594" data-name="Trazado 104594" d="M1101.35,210.972c7.075,11.947,5.757,27.167,1.421,40.357s-11.394,25.374-15.51,38.634-4.908,28.612,2.756,40.189c5.991,9.049,16.718,14.561,27.565,14.894s21.61-4.284,29.391-11.849c3.942-3.832,7.249-8.58,8.2-13.995.9-5.152-.386-10.426-1.973-15.411-1.509-4.739-3.333-9.463-6.337-13.426-7.8-10.28-22.591-14.318-28.3-25.887-4.2-8.513-2.217-18.583-1.706-28.064a85.6,85.6,0,0,0-2.495-25.6" transform="translate(-815.313 -176.472)" fill="#8c081f"/>
        <path id="Trazado_104595" data-name="Trazado 104595" d="M1041.867,259.415c2.671-.728,6.432-4.3,5.076-7.38a9.282,9.282,0,0,0-4.392-4.127c-4.389-2.24-12.36-.682-12.36,5.417,0,3.763,3.206,6.264,6.732,6.612A13.728,13.728,0,0,0,1041.867,259.415Z" transform="translate(-812.59 -183.293)" fill="#eaaba6" opacity="0.07" style="mix-blend-mode: multiply;isolation: isolate"/>
        <path id="Trazado_104596" data-name="Trazado 104596" d="M963.407,378.359c1.815-.981,14.658-9.933,13.237-12.039l-14.959-22.182c-5.067-7.512-10.516-14.654-15.749-22.059-3.752-5.309-7.779-10.924-13.794-13.391-4.294-1.761-8.956-1.661-13.654-1.5-5.021,9.272-14.384,16.325-24.93,17.417-12.182,1.261-24.453-5.581-30.855-15.89a93.882,93.882,0,0,0-13.6,4.472c-11.653,4.961-23.495,14.645-27.749,26.9-6.179,17.8-9.152,37.474-13.625,55.789,8.511,4.427,17.2,9.837,26.9,9.589a24.8,24.8,0,0,0,2.506-.191l1.206,18.959a4.127,4.127,0,0,1-.217,2.053c-2.323,4.865-28.49,27.511-22.269,33.777,7.305,7.357,28.178,21.414,37.991,23.867,19.359,4.838,27.294,8.783,47.3,7.484,20.631-1.34,44.037-6,61.478-18.192-.8-3.8-2.544-7.693-3.307-10.862a133.526,133.526,0,0,0-7.409-21.606c-1.646-3.826-23.285-41.958-23.521-41.7a52.974,52.974,0,0,0,10.864-17.992C946.934,382.391,956.412,382.137,963.407,378.359Z" transform="translate(-801.374 -181.326)" fill="#e0344c"/>
        <path id="Trazado_104597" data-name="Trazado 104597" d="M946.594,339.3c.025,1.795,20.515,135.542,20.515,135.542l-69.732,6.582-.648-84.341Z" transform="translate(-805.861 -182.95)" fill="#e0344c"/>
        <path id="Trazado_104598" data-name="Trazado 104598" d="M1089.385,254.609a7.709,7.709,0,0,0-.16-3.939c-.591-2.033-2.011-2.731-4.023-3.408-4.1-1.38-9.511-1.3-13.212,1.158-2.777,1.848-4.259,5.858-2.5,8.694a7.446,7.446,0,0,0,2.12,2.114,12.932,12.932,0,0,0,9.044,2.186C1084.754,260.857,1088.524,258.328,1089.385,254.609Z" transform="translate(-814.533 -183.264)" fill="#eaaba6" opacity="0.07" style="mix-blend-mode: multiply;isolation: isolate"/>
        <path id="Trazado_104599" data-name="Trazado 104599" d="M1121.371,351.694c.274,9.744,12.495,34.717,14.876,40.6a138.779,138.779,0,0,1,5.43,14.658c-4.718,1.879-6.815,2.368-11.635,3.934-5.552,1.8-13.832,4.233-19.363,6.1-1.825.617,4.326,4.818-4.734,8-.9,4.721-22.2,8.784-21.019,13.492,1.081,4.314,22.63-8.42,25.012-4.9,7.154.047,27.785-3.157,29.609-3.5,19.123-3.58-.83,13.849,9.839,13.578,24.13-.611,23.541-4.1,38.017-12.935,4.1-2.5,3.783-6.057,3.4-10.183a95.258,95.258,0,0,0-2.52-14.286,195.857,195.857,0,0,0-9.265-26.708c-1.619-3.927-3.323-7.869-5.314-11.624-1.725-3.254-4.068-6.978-5.832-10.344" transform="translate(-815.347 -183.575)" fill="#e0a7a2" stroke="#0e0e0e" stroke-miterlimit="10" stroke-width="0.5"/>
        <path id="Trazado_104600" data-name="Trazado 104600" d="M884.9,274.46c-.049,7.686-1.228,15.32-2.392,22.933a71.894,71.894,0,0,0,28.133,1.061q.177-10.627.04-21.255a156.635,156.635,0,0,1-16.237-1.255A80.557,80.557,0,0,1,884.9,274.46Z" transform="translate(-805.144 -179.68)" fill="#ec7163" opacity="0.26" style="mix-blend-mode: multiply;isolation: isolate"/>
        <path id="Trazado_104601" data-name="Trazado 104601" d="M933.8,276.905c10.287-8.986,15.18-26.606,14.552-39.221-.807-16.225-5.8-33.046-17.533-44.782-10.786-10.792-26.206-11.724-40.9-9.691-20.964,2.9-31.881,20.179-33.872,40.024-2.155,21.479,1.172,48.331,23.417,57.338,15.4,6.236,34.78,7.884,50.06-.632A25.087,25.087,0,0,0,933.8,276.905Z" transform="translate(-803.781 -175.036)" fill="#ecb7b2" stroke="#0e0e0e" stroke-miterlimit="10" stroke-width="0.5"/>
        <path id="Trazado_104602" data-name="Trazado 104602" d="M857.2,245.186c-2.037-2.239-4.23-4.467-7.017-5.649s-6.323-1.085-8.521,1a9.041,9.041,0,0,0-2.4,5.965,17.539,17.539,0,0,0,7.08,15.38,16.334,16.334,0,0,0,16.769,1.187" transform="translate(-802.961 -177.881)" fill="#ecb7b2" stroke="#0e0e0e" stroke-miterlimit="10" stroke-width="0.5"/>
        <g id="Grupo_58392" data-name="Grupo 58392" transform="translate(42.319 64.795)">
          <g id="Grupo_58390" data-name="Grupo 58390">
            <path id="Trazado_104603" data-name="Trazado 104603" d="M855.129,260.419a9.694,9.694,0,0,0-.277-3,24.322,24.322,0,0,0-6.877-12.661,9.683,9.683,0,0,0-2.368-1.868c-.153.147,3.56,3.005,6.219,7.975C854.546,255.8,854.922,260.467,855.129,260.419Z" transform="translate(-845.602 -242.883)" fill="#99433b"/>
          </g>
          <g id="Grupo_58391" data-name="Grupo 58391" transform="translate(4.094 5.321)">
            <path id="Trazado_104604" data-name="Trazado 104604" d="M853.244,257.814c.061-.079-.373-.464-.927-1.186a8.944,8.944,0,0,1-1.759-6.649c.124-.9.311-1.451.219-1.49-.064-.031-.4.469-.65,1.405a7.663,7.663,0,0,0,1.856,7.02C852.661,257.606,853.2,257.873,853.244,257.814Z" transform="translate(-849.914 -248.488)" fill="#99433b"/>
          </g>
        </g>
        <g id="Grupo_58397" data-name="Grupo 58397" transform="translate(69.896 30.718)">
          <g id="Grupo_58393" data-name="Grupo 58393" transform="translate(14.323 23.746)">
            <path id="Trazado_104605" data-name="Trazado 104605" d="M890.905,242.956c.518-.041.742-2.5.691-5.49s-.366-5.439-.885-5.462-1.037,2.436-.981,5.494S890.4,243,890.905,242.956Z" transform="translate(-889.727 -232.005)" fill="#1d151a"/>
          </g>
          <g id="Grupo_58394" data-name="Grupo 58394" transform="translate(53.155 22.213)">
            <path id="Trazado_104606" data-name="Trazado 104606" d="M931.658,241.124c.516-.009.889-2.42.834-5.384s-.517-5.359-1.031-5.35-.889,2.421-.835,5.384S931.143,241.134,931.658,241.124Z" transform="translate(-930.62 -230.39)" fill="#1d151a"/>
          </g>
          <g id="Grupo_58395" data-name="Grupo 58395" transform="translate(0 3.61)">
            <path id="Trazado_104607" data-name="Trazado 104607" d="M892.029,211.558c-.01-.41-1.182-.8-3.122-.754a17.695,17.695,0,0,0-13,6.843c-1.14,1.571-1.478,2.759-1.146,3,.733.518,3.721-2.7,8.35-5.08C887.7,213.1,892.04,212.454,892.029,211.558Z" transform="translate(-874.643 -210.8)" fill="#1d151a"/>
          </g>
          <g id="Grupo_58396" data-name="Grupo 58396" transform="translate(48.039)">
            <path id="Trazado_104608" data-name="Trazado 104608" d="M941.238,216.312c.352-.2.179-1.374-.8-2.952a14.3,14.3,0,0,0-12.341-6.338c-1.853.126-2.907.669-2.865,1.072.1.887,4.2,1.02,8.434,3.267C937.965,213.5,940.459,216.747,941.238,216.312Z" transform="translate(-925.234 -206.997)" fill="#1d151a"/>
          </g>
        </g>
        <path id="Trazado_104609" data-name="Trazado 104609" d="M897.537,253.3c-.019.122-.043.241-.057.365-.613,5.406,2.89,10.243,7.825,10.8s9.433-3.368,10.047-8.774c.014-.123.017-.246.027-.368Z" transform="translate(-805.895 -178.613)" fill="#8c081f"/>
        <path id="Trazado_104610" data-name="Trazado 104610" d="M916.457,434.355c-22.059.008-43.742-1.6-65.79-.893a165.315,165.315,0,0,0-1.9-38.25l-41.118,9.12a199.733,199.733,0,0,0,4.762,56.261,8.646,8.646,0,0,0,1.613,3.877c1.324,1.507,3.468,1.923,5.451,2.227,34.519,5.287,67.422-3.824,100.923-13.679C919.519,443.729,919.692,443.263,916.457,434.355Z" transform="translate(-801.353 -185.769)" fill="#ecb7b2" stroke="#0e0e0e" stroke-miterlimit="10" stroke-width="0.5"/>
        <path id="Trazado_104611" data-name="Trazado 104611" d="M905.4,264.744a8.61,8.61,0,0,0,6.808-2.307,8.939,8.939,0,0,0-12.926-1.467A8.612,8.612,0,0,0,905.4,264.744Z" transform="translate(-805.99 -178.894)" fill="#e0344c"/>
        <path id="Trazado_104612" data-name="Trazado 104612" d="M851,420.154a165.335,165.335,0,0,0-2.237-24.942l-41.118,9.12q-.456,7.905-.273,15.829A110.3,110.3,0,0,0,851,420.154Z" transform="translate(-801.353 -185.769)" fill="#ec7163" opacity="0.14" style="mix-blend-mode: multiply;isolation: isolate"/>
        <path id="Trazado_104613" data-name="Trazado 104613" d="M837.806,407.856a94.464,94.464,0,0,0,22.506-2.4,155.763,155.763,0,0,0,.961-69.647c-1.752-8.1-5.365-21.362-15.584-21.328-10.158.033-19.6,10.556-24.351,18.452-4.427,7.351-7.219,15.547-9.977,23.672-4.522,13.319-6.838,27.594-10.325,41.29C811.068,405.586,825.97,407.814,837.806,407.856Z" transform="translate(-801.036 -181.698)" fill="#e0344c"/>
        <g id="Grupo_58400" data-name="Grupo 58400" transform="translate(14.478 133.288)">
          <g id="Grupo_58398" data-name="Grupo 58398" transform="translate(31.077)">
            <path id="Trazado_104614" data-name="Trazado 104614" d="M861.844,405.219a3.077,3.077,0,0,0,.378-.928c.211-.619.5-1.538.832-2.733.673-2.388,1.563-5.872,2.386-10.239a125.774,125.774,0,0,0,1.909-15.49c.429-5.881.135-12.325.015-19.082-.088-3.38-.116-6.676-.259-9.881a74.561,74.561,0,0,0-.961-9.2,46.019,46.019,0,0,0-2.133-8.125A30.966,30.966,0,0,0,860.675,323a19.058,19.058,0,0,0-7.939-6.924,11.515,11.515,0,0,0-1.557-.593,7.161,7.161,0,0,0-1.176-.316,3.033,3.033,0,0,0-.993-.141c-.035.127,1.334.385,3.516,1.487a19.473,19.473,0,0,1,7.416,6.975,37.119,37.119,0,0,1,5.072,14.365,77.085,77.085,0,0,1,.874,9.068c.124,3.161.144,6.464.233,9.838.12,6.752.448,13.189.084,19.006a141.118,141.118,0,0,1-1.631,15.4c-.707,4.358-1.462,7.856-1.988,10.273A25.824,25.824,0,0,0,861.844,405.219Z" transform="translate(-849.009 -315.014)" fill="#7f0b20"/>
          </g>
          <g id="Grupo_58399" data-name="Grupo 58399" transform="translate(0 89.872)">
            <path id="Trazado_104615" data-name="Trazado 104615" d="M860.194,409.991c-.064-.194-2.458.517-6.4,1.259-1.967.384-4.33.711-6.96.974-2.635.227-5.542.362-8.595.32a93,93,0,0,1-15.544-1.66c-3.944-.752-6.36-1.381-6.416-1.194-.045.141,2.29,1.071,6.229,2.054a69.255,69.255,0,0,0,24.444,1.62,58.45,58.45,0,0,0,7.026-1.254C857.932,411.136,860.241,410.122,860.194,409.991Z" transform="translate(-816.282 -409.658)" fill="#7f0b20"/>
          </g>
        </g>
        <path id="Trazado_104616" data-name="Trazado 104616" d="M911.278,326.9a35.62,35.62,0,0,0,17.606-19.389,57.021,57.021,0,0,0-7.812-.12c-5.021,9.272-14.384,16.325-24.93,17.417-12.182,1.261-24.453-5.581-30.855-15.889q-3.193.815-6.33,1.807c3.973,8.392,12.1,14.754,21.018,17.791A41.482,41.482,0,0,0,911.278,326.9Z" transform="translate(-803.956 -181.337)" fill="#b11c35"/>
        <path id="Trazado_104617" data-name="Trazado 104617" d="M845.968,244.006a3.012,3.012,0,0,0-.976-.6c-1.088-.341-2.2.524-2.805,1.488a8.188,8.188,0,0,0-.759,6.443,15.112,15.112,0,0,0,3.276,5.753c2.552,2.985,5.587,5.183,9.65,4.981,1.225-.062-1.931-8.783-2.243-9.5A22.78,22.78,0,0,0,845.968,244.006Z" transform="translate(-803.056 -178.111)" fill="#ec7163" opacity="0.26" style="mix-blend-mode: multiply;isolation: isolate"/>
        <path id="Trazado_104618" data-name="Trazado 104618" d="M892.215,257.866c6.459-18.491-32.04-11.206-21.066,2.081,1.805,2.185,4.7,3.394,7.61,3.936,4.022.75,8.664.194,11.413-2.627A9.149,9.149,0,0,0,892.215,257.866Z" transform="translate(-804.471 -178.283)" fill="#ec7163" opacity="0.11" style="mix-blend-mode: multiply;isolation: isolate"/>
        <path id="Trazado_104619" data-name="Trazado 104619" d="M942.413,254.342c-2.587-3.877-8.218-4.439-12.4-3.549-5.72,1.217-10.958,7.337-4.98,12.079a12.161,12.161,0,0,0,7.856,2.18c2.926-.06,5.983-.771,8.125-2.766S944.037,256.777,942.413,254.342Z" transform="translate(-807.154 -178.469)" fill="#ec7163" opacity="0.11" style="mix-blend-mode: multiply;isolation: isolate"/>
      </g>
      <path id="Trazado_103164" data-name="Trazado 103164" d="M911.194,248.093a.487.487,0,0,1-.02-.973l2.659-.109a6.859,6.859,0,0,0,6.566-7.122,1.787,1.787,0,0,0-1.853-1.709,5.026,5.026,0,0,1-5.223-4.815l-.267-6.563a.485.485,0,0,1,.463-.506h0a.474.474,0,0,1,.505.442v.025l.267,6.563a4.051,4.051,0,0,0,4.213,3.882,2.758,2.758,0,0,1,2.866,2.641,7.834,7.834,0,0,1-7.5,8.136l-2.659.109Z" transform="translate(-806.566 -169.352)" fill="#1d151a"/>
      <path id="Trazado_103164-2" data-name="Trazado 103164" d="M1055.454,246.05l-2.658-.109a7.833,7.833,0,0,1-7.5-8.136,2.758,2.758,0,0,1,2.866-2.641,3.99,3.99,0,0,0,2.911-1.068,4.031,4.031,0,0,0,1.3-2.814l.267-6.563V224.7a.474.474,0,0,1,.505-.442h0a.486.486,0,0,1,.464.506l-.267,6.563a5.026,5.026,0,0,1-5.223,4.815,1.787,1.787,0,0,0-1.853,1.709,6.857,6.857,0,0,0,6.566,7.122l2.659.109a.487.487,0,0,1-.02.973Z" transform="translate(-813.351 -169.249)" fill="#1d151a"/>
      <g id="Grupo_58411" data-name="Grupo 58411" transform="translate(45.351)">
        <path id="Trazado_104609-2" data-name="Trazado 104609" d="M869.094,199.892s21.63-12.253,42.9,9.031c21.836,21.854,42.393,25.133,42.393,25.133s5.938-39.066-9.527-51.76c-12.424-10.2-56.466-26.222-73.406-6.9-14.983,17.092-10.2,18.008-11.495,21.4S865.643,197.827,869.094,199.892Z" transform="translate(-849.35 -166.329)" fill="#1b0f0c"/>
        <path id="Trazado_104610-2" data-name="Trazado 104610" d="M868.54,201.537s8.042,11.289-13.475,48.072c0,0-2.1-2.934-3.04-10.819-.537-4.526-5.309-17.626-2.168-25.9C852.189,206.749,858.483,193.33,868.54,201.537Z" transform="translate(-848.795 -167.974)" fill="#1b0f0c"/>
        <g id="Grupo_58410" data-name="Grupo 58410" transform="translate(7.623 24.365)">
          <path id="Trazado_104611-2" data-name="Trazado 104611" d="M959.713,233.378a.2.2,0,0,0-.123-.205c-6.771-2.566-11.782-7.411-15.645-14.518a.139.139,0,0,0-.208-.066.2.2,0,0,0-.055.251,24.794,24.794,0,0,0,10.658,12.7,35.05,35.05,0,0,1-16.452-12.722c-.144-.2-.448.073-.311.289,5.17,8.175,13.2,14.549,21.957,14.737a.273.273,0,0,0,.23-.3A.329.329,0,0,0,959.713,233.378Z" transform="translate(-860.893 -193.327)" fill="#0f0907"/>
          <g id="Grupo_58409" data-name="Grupo 58409">
            <path id="Trazado_104612-2" data-name="Trazado 104612" d="M958.942,230.128c-4.547-2.857-7.339-6.772-10.043-11.893a.132.132,0,0,0-.2-.059.192.192,0,0,0-.065.194,18.816,18.816,0,0,0,10.189,12.093C958.986,230.535,959.093,230.225,958.942,230.128Z" transform="translate(-861.452 -193.307)" fill="#0f0907"/>
            <path id="Trazado_104613-2" data-name="Trazado 104613" d="M866.2,209.952a.24.24,0,1,0-.473,0,42.793,42.793,0,0,1-2.606,14.61c-1.574,4.056-4.048,6.965-6.24,10.47-.2.312.177.693.428.514C863.964,230.8,867.045,218.668,866.2,209.952Z" transform="translate(-856.823 -192.879)" fill="#0f0907"/>
            <path id="Trazado_104614-2" data-name="Trazado 104614" d="M863.4,211.855a146.866,146.866,0,0,1-4.39,14.333c-.086.233.161.535.323.3a26.935,26.935,0,0,0,4.442-14.571.212.212,0,0,0-.195-.226A.2.2,0,0,0,863.4,211.855Z" transform="translate(-856.933 -192.981)" fill="#0f0907"/>
            <path id="Trazado_104615-2" data-name="Trazado 104615" d="M925.857,214.786c-3.534-8.4-12.189-14.752-19.135-18.321-7.236-3.719-15.564-5.455-23.379-3.919-.18.035-.134.382.044.378,8.2-.142,16.076,1.236,23.6,5.32a47.128,47.128,0,0,1,9.916,7.211c3.114,2.95,5.507,6.662,8.44,9.808a.292.292,0,0,0,.464-.035A.462.462,0,0,0,925.857,214.786Z" transform="translate(-858.155 -191.987)" fill="#0f0907"/>
            <path id="Trazado_104616-2" data-name="Trazado 104616" d="M939.949,224.74a30.631,30.631,0,0,1-8.973-7.108c-.2-.251-.5.121-.312.376,2.4,3.3,5.517,6.181,9.138,7.152C940,225.213,940.153,224.859,939.949,224.74Z" transform="translate(-860.543 -193.276)" fill="#0f0907"/>
            <path id="Trazado_104617-2" data-name="Trazado 104617" d="M933.8,214.741a80.872,80.872,0,0,0-9.512-11.957c-2.773-2.9-5.967-5.189-9.672-5.675-.235-.029-.273.419-.054.487,4.369,1.434,7.691,4.515,10.81,8.362,2.531,3.122,4.829,7.125,8.093,9.181C933.658,215.265,933.955,214.992,933.8,214.741Z" transform="translate(-859.727 -192.246)" fill="#0f0907"/>
            <path id="Trazado_104618-2" data-name="Trazado 104618" d="M941.448,214.881c-2.157-2.425-4.622-4.417-6.789-6.841a.339.339,0,0,0-.539,0,.525.525,0,0,0,0,.648h0c2.029,2.535,4.345,5.185,7.051,6.624C941.388,215.43,941.653,215.115,941.448,214.881Z" transform="translate(-860.715 -192.79)" fill="#0f0907"/>
          </g>
        </g>
      </g>
      <path id="Trazado_104620" data-name="Trazado 104620" d="M957.054,393.154s-9.013-60.433-12.785-65.548,0,6.191,0,6.191l14.263,81.432Z" transform="translate(-808.173 -174.393)" fill="#7f0b20"/>
      <g id="Grupo_58426" data-name="Grupo 58426" transform="translate(120.685 224.174)">
        <path id="Trazado_104646" data-name="Trazado 104646" d="M1011.76,403.778a.916.916,0,0,0-.457-.238,3.769,3.769,0,0,0-1.288-.692.994.994,0,0,0-.469-.023c-.15-.088-.285-.19-.44-.273a1.282,1.282,0,0,0-1.875,1.171,1.648,1.648,0,0,0-.1.149c-.871.122-1.651,1.329-.781,2.01l.029.024a1.28,1.28,0,0,0,.048.819,5.308,5.308,0,0,0,.59,1.038,1.726,1.726,0,0,0-.468,1.19,1.1,1.1,0,0,0,.133.463,1.291,1.291,0,0,0-.154,1.463,2.29,2.29,0,0,0-.367.665c-.273-.19-.532-.366-.582-.585-.128-.564.484-1.352.264-2.089a3.373,3.373,0,0,0-2.96-2.184,3.7,3.7,0,0,0-3.976-3.134c-1.83.067-4.037-.419-5.128,1.461a.621.621,0,0,0,.19.813,1.273,1.273,0,0,0,.024.468c.552,2.258,2.515,3.387,3.966,5.076.152.176.285.367.425.548a9.577,9.577,0,0,0,.616.794c1.1,1.489,2.063,3.069,3.066,4.626.076.19.15.38.23.57.01.032.02.07.028.095h.008c.064.15.113.3.18.448.009.022.024.038.034.06a.974.974,0,0,0,1.044,1.14c1.721-.17,3.4-.125,3.7-2.213a9.165,9.165,0,0,0-.41-2.564,3.624,3.624,0,0,1,.027-.86,1.073,1.073,0,0,0,.185.073,2.442,2.442,0,0,0,2.783-1.21,3.981,3.981,0,0,0,.491-1.7,2.942,2.942,0,0,1,.665-2.14,2.124,2.124,0,0,0,.626-1.218c.013-.259-.237-.627-.2-.855.037-.267.177-.327.33-.6C1012.3,405.442,1012.607,404.591,1011.76,403.778Z" transform="translate(-931.436 -402.406)" fill="#9b4214"/>
        <path id="Trazado_104647" data-name="Trazado 104647" d="M1013.2,405.175l-7.792,14.738,65.967,36.411s3.923-.232,7.041-4.6c2.7-3.787,1.825-8.751,1.825-8.751Z" transform="translate(-932.026 -402.545)" fill="#f1f1f1"/>
        <g id="Grupo_58425" data-name="Grupo 58425" transform="translate(0 3.372)">
          <path id="Trazado_104648" data-name="Trazado 104648" d="M928.39,444.409l8.717,14.21,64.927-38.235-11.482-14.428Z" transform="translate(-928.143 -405.957)" fill="#f1f1f1"/>
          <g id="Grupo_58424" data-name="Grupo 58424" transform="translate(0 0.001)">
            <g id="Grupo_58403" data-name="Grupo 58403">
              <g id="Grupo_58402" data-name="Grupo 58402" clip-path="url(#clip-path)">
                <g id="Grupo_58423" data-name="Grupo 58423" transform="translate(-11.958 5.951)">
                  <path id="Trazado_104649" data-name="Trazado 104649" d="M961.527,412.225l22.183,32.463-48.7,28.135-19.478-33Z" transform="translate(-915.537 -412.225)" fill="#e27726"/>
                  <g id="Grupo_58422" data-name="Grupo 58422" transform="translate(13.273 7.079)">
                    <g id="Grupo_58421" data-name="Grupo 58421">
                      <path id="Trazado_104650" data-name="Trazado 104650" d="M931.179,444.459a1.664,1.664,0,1,0,1.664,1.664A1.683,1.683,0,0,0,931.179,444.459Z" transform="translate(-929.515 -420.929)" fill="#ad551c"/>
                      <path id="Trazado_104651" data-name="Trazado 104651" d="M940,450.469a1.793,1.793,0,1,0,1.72,1.721A1.794,1.794,0,0,0,940,450.469Z" transform="translate(-929.957 -421.232)" fill="#ad551c"/>
                      <path id="Trazado_104652" data-name="Trazado 104652" d="M940.7,437.643a1.244,1.244,0,1,0,1.195,1.195A1.244,1.244,0,0,0,940.7,437.643Z" transform="translate(-930.018 -420.586)" fill="#ad551c"/>
                      <path id="Trazado_104653" data-name="Trazado 104653" d="M949.577,442.909l-.074-.085a1.085,1.085,0,0,0-1.519,0l-.074.085a1.16,1.16,0,1,0,1.667,0Z" transform="translate(-930.426 -420.831)" fill="#ad551c"/>
                      <path id="Trazado_104654" data-name="Trazado 104654" d="M940.59,443.7a3.32,3.32,0,0,0-.443.058.867.867,0,1,0,1.074,1.075,3.311,3.311,0,0,0,.058-.443A.69.69,0,0,0,940.59,443.7Z" transform="translate(-930.019 -420.891)" fill="#ad551c"/>
                      <path id="Trazado_104655" data-name="Trazado 104655" d="M953.9,434.611a1.944,1.944,0,0,0-.877.512,1.063,1.063,0,0,0,0,1.495,1.927,1.927,0,0,0,.877.512,1.323,1.323,0,0,0,1.61-.951,1.283,1.283,0,0,0-1.318-1.606A1.321,1.321,0,0,0,953.9,434.611Z" transform="translate(-930.685 -420.431)" fill="#ad551c"/>
                      <path id="Trazado_104656" data-name="Trazado 104656" d="M948.061,430.486a1.357,1.357,0,1,0,1.357,1.357A1.373,1.373,0,0,0,948.061,430.486Z" transform="translate(-930.382 -420.225)" fill="#ad551c"/>
                      <path id="Trazado_104657" data-name="Trazado 104657" d="M946.536,436.959a1.25,1.25,0,0,0-.412.31.88.88,0,1,0,1.245,1.245,1.263,1.263,0,0,0,.311-.413.843.843,0,0,0-1.143-1.142Z" transform="translate(-930.339 -420.546)" fill="#ad551c"/>
                      <path id="Trazado_104658" data-name="Trazado 104658" d="M959,440.82l-.118.071a1.183,1.183,0,0,0-.4,1.626,1.161,1.161,0,0,0,.4.4l.118.071a1.245,1.245,0,1,0,0-2.164Z" transform="translate(-930.967 -420.738)" fill="#ad551c"/>
                      <path id="Trazado_104659" data-name="Trazado 104659" d="M962.466,430.086a1.419,1.419,0,1,0,1.42,1.419A1.435,1.435,0,0,0,962.466,430.086Z" transform="translate(-931.105 -420.205)" fill="#ad551c"/>
                      <path id="Trazado_104660" data-name="Trazado 104660" d="M968.927,434.116l-.086.075a1.417,1.417,0,0,0,0,1.994l.086.075a1.543,1.543,0,0,0,1.653.312,1.5,1.5,0,0,0,.931-1.383,1.534,1.534,0,0,0-2.584-1.074Z" transform="translate(-931.477 -420.387)" fill="#ad551c"/>
                      <path id="Trazado_104661" data-name="Trazado 104661" d="M956.187,428.3a.912.912,0,0,0-.883-.883,1.121,1.121,0,0,0-.647.161,1.942,1.942,0,0,0-.689.447c-1.07,1.006.6,2.683,1.614,1.614a1.864,1.864,0,0,0,.458-.712A1.108,1.108,0,0,0,956.187,428.3Z" transform="translate(-930.731 -420.07)" fill="#ad551c"/>
                      <path id="Trazado_104662" data-name="Trazado 104662" d="M963.824,419.68a1.12,1.12,0,1,0,1.072,1.073A1.12,1.12,0,0,0,963.824,419.68Z" transform="translate(-931.191 -419.68)" fill="#ad551c"/>
                      <path id="Trazado_104663" data-name="Trazado 104663" d="M964.5,437.246a.984.984,0,1,0,.952.953A.985.985,0,0,0,964.5,437.246Z" transform="translate(-931.231 -420.566)" fill="#ad551c"/>
                      <path id="Trazado_104664" data-name="Trazado 104664" d="M950.477,448.5l-.144-.05a.877.877,0,0,0-1.072.622.846.846,0,0,0-.029.217.878.878,0,0,0,.886.869.865.865,0,0,0,.216-.029l.144-.05a.826.826,0,0,0,0-1.578Z" transform="translate(-930.509 -421.129)" fill="#ad551c"/>
                      <path id="Trazado_104665" data-name="Trazado 104665" d="M946.009,448.449l-.075-.115a.61.61,0,0,0-.839-.2.6.6,0,0,0-.2.2l-.075.115a.687.687,0,1,0,1.278.333A.707.707,0,0,0,946.009,448.449Z" transform="translate(-930.282 -421.11)" fill="#ad551c"/>
                    </g>
                  </g>
                </g>
              </g>
            </g>
          </g>
        </g>
      </g>
      <path id="Trazado_104622" data-name="Trazado 104622" d="M885.835,435.269l23.012-.058s23.485-6.572,24.644-6.877,7.276-.054,8.532-.518,7.178,2.976,7.178,2.976L936.178,437.5a20.639,20.639,0,0,0,23.61,7.109l2.282-1.44s3,4.67,0,4.849-5.5,2.951-5.5,2.951-1.448,2.612-2.7,2.792-3.769,3.1-5.923,3.7-10.048,1.5-10.048,1.5l-7.522.755a284.565,284.565,0,0,0-30.208,1.8c-6.479.8-34.083,6.756-34.083,6.756" transform="translate(-804.316 -179.511)" fill="#ecb7b2" stroke="#0e0e0e" stroke-miterlimit="10" stroke-width="0.5"/>
      <path id="Trazado_104623" data-name="Trazado 104623" d="M1135.582,411.407l-43.663,13.758s-22.587-1.148-23.744-1.453-7.276-.054-8.532-.518-7.178,2.976-7.178,2.976l13.023,6.709a20.639,20.639,0,0,1-23.61,7.109l-2.282-1.44s-3,4.67,0,4.849,5.5,2.95,5.5,2.95,1.447,2.613,2.7,2.793,3.769,3.1,5.922,3.7,10.049,1.5,10.049,1.5l7.522.755s15.169-9.125,29.745-7.321c6.48.8,54.877-1.515,54.877-1.515" transform="translate(-812.997 -178.686)" fill="#e0a7a2" stroke="#0e0e0e" stroke-linecap="round" stroke-linejoin="round" stroke-width="0.5"/>
    </g>
  </g>
</svg>
