<svg xmlns="http://www.w3.org/2000/svg" width="85" height="84" viewBox="0 0 85 84">
  <g id="Grupo_58413" data-name="Grupo 58413" transform="translate(-285 -1051)">
    <g id="Grupo_58409" data-name="Grupo 58409" transform="translate(0 72.475)">
      <circle id="Elipse_5291" data-name="Elipse 5291" cx="27.569" cy="27.569" r="27.569" transform="translate(299.894 992.525)" fill="#082d5e"/>
      <path id="Trazado_104628" data-name="Trazado 104628" d="M-67.133,717.063a26.811,26.811,0,0,0-1.351-8.41,27.476,27.476,0,0,0-19.33-7.918A27.568,27.568,0,0,0-115.382,728.3a27.661,27.661,0,0,0,.607,5.761,26.8,26.8,0,0,0,20.787,9.854A26.856,26.856,0,0,0-67.133,717.063Z" transform="translate(415.276 291.791)" fill="#00529f"/>
      <g id="Grupo_58407" data-name="Grupo 58407" transform="translate(313.949 1008.469)">
        <path id="Trazado_104629" data-name="Trazado 104629" d="M-83.426,744.118q0,5.24-5.907,5.24t-5.893-5.24V728.853q0-5.254,5.893-5.253t5.907,5.253Zm-4.108-15.265q0-1.691-1.785-1.692h-.029q-1.771,0-1.77,1.692v15.265q0,1.691,1.785,1.691t1.8-1.691Z" transform="translate(95.226 -723.6)" fill="#fff"/>
        <path id="Trazado_104630" data-name="Trazado 104630" d="M-65.407,728.858q0-1.679-1.785-1.692h-.029q-1.771,0-1.77,1.692V732.2H-73.1v-3.346q0-5.241,5.892-5.241,5.907,0,5.907,5.241V733.2a3.54,3.54,0,0,1-2.25,3.473,3.541,3.541,0,0,1,2.25,3.473v3.982q0,5.24-5.907,5.24t-5.892-5.24v-3.346h4.107v3.346q0,1.691,1.77,1.691h.029q1.785-.011,1.785-1.691v-3.982q0-1.362-.653-1.616a3.371,3.371,0,0,0-1.075-.127h-1.349V734.85h1.669a1.925,1.925,0,0,0,.871-.153q.537-.267.537-1.526Z" transform="translate(88.528 -723.605)" fill="#fff"/>
      </g>
    </g>
    <rect id="Rectángulo_5533" data-name="Rectángulo 5533" width="85" height="84" transform="translate(285 1051)" fill="none"/>
  </g>
</svg>
