<svg xmlns="http://www.w3.org/2000/svg" width="85" height="84" viewBox="0 0 85 84">
  <g id="Grupo_60573" data-name="Grupo 60573" transform="translate(-285 -846)">
    <rect id="Rectángulo_5531" data-name="Rectángulo 5531" width="85" height="84" transform="translate(285 846)" fill="none"/>
    <g id="Grupo_60570" data-name="Grupo 60570" transform="translate(-1172.26 -6120.444)">
      <ellipse id="Elipse_5341" data-name="Elipse 5341" cx="27.57" cy="27.57" rx="27.57" ry="27.57" transform="translate(1472.261 6980.444)" fill="#082d5e"/>
      <path id="Trazado_109312" data-name="Trazado 109312" d="M-162.138,622.088a26.626,26.626,0,0,0-1.352-8.381,27.544,27.544,0,0,0-19.34-7.891,27.53,27.53,0,0,0-27.584,27.475,27.464,27.464,0,0,0,.608,5.742,26.854,26.854,0,0,0,20.8,9.821A26.818,26.818,0,0,0-162.138,622.088Z" transform="translate(1682.674 6374.628)" fill="#00529f"/>
      <g id="Grupo_60560" data-name="Grupo 60560" transform="translate(1486.363 6996.437)">
        <path id="Trazado_109313" data-name="Trazado 109313" d="M-178.5,649.129q0,5.223-5.887,5.223t-5.874-5.223V633.917q0-5.237,5.874-5.236t5.887,5.236Zm-4.093-15.213q0-1.686-1.78-1.687h-.028q-1.765,0-1.765,1.687v15.213q0,1.687,1.78,1.686t1.794-1.686Z" transform="translate(190.257 -628.681)" fill="#fff"/>
        <path id="Trazado_109314" data-name="Trazado 109314" d="M-160.464,642.245q0-1.318-.637-1.559a3.227,3.227,0,0,0-1.114-.14c-.126,0-.256,0-.391.013q-1.245.05-1.388.976l-.044,1h-4.093l.607-13.273h11.152V632.8h-7.218l-.289,5.351a3.809,3.809,0,0,1,2.835-1.053c.164,0,.333.009.507.025a4.462,4.462,0,0,1,3.254,1.509,5.652,5.652,0,0,1,.911,3.613v7.062q0,5.223-5.887,5.223t-5.873-5.223v-2.941h4.093v2.941q0,1.687,1.765,1.686h.029q1.778-.012,1.779-1.686Z" transform="translate(183.507 -628.859)" fill="#fff"/>
      </g>
    </g>
  </g>
</svg>
