<svg xmlns="http://www.w3.org/2000/svg" width="820" height="342.941" viewBox="0 0 820 342.941">
  <g id="Grupo_60631" data-name="Grupo 60631" transform="translate(-410 -4435.059)">
    <g id="Grupo_58435" data-name="Grupo 58435" transform="translate(410 4436.059)">
      <g id="Grupo_58431" data-name="Grupo 58431" transform="translate(0 0)">
        <path id="Trazado_104639" data-name="Trazado 104639" d="M918.945,1829.189H260.485L204.694,1867.8H98.945" transform="translate(-98.945 -1645.657)" fill="none" stroke="#8a939e" stroke-miterlimit="10" stroke-width="2"/>
        <path id="Trazado_104640" data-name="Trazado 104640" d="M918.945,1789.291H260.485L204.694,1827.9H98.945" transform="translate(-98.945 -1651.414)" fill="none" stroke="#8a939e" stroke-miterlimit="10" stroke-width="2"/>
        <path id="Trazado_104641" data-name="Trazado 104641" d="M918.945,1747.689H260.485L204.694,1786.3H98.945" transform="translate(-98.945 -1657.417)" fill="none" stroke="#8a939e" stroke-miterlimit="10" stroke-width="2"/>
        <path id="Trazado_104642" data-name="Trazado 104642" d="M918.945,1708.244H260.485l-55.791,38.608H98.945" transform="translate(-98.945 -1663.108)" fill="none" stroke="#8a939e" stroke-miterlimit="10" stroke-width="2"/>
        <path id="Trazado_104643" data-name="Trazado 104643" d="M918.943,1668.8H260.483l-55.791,38.609H99.236" transform="translate(-98.943 -1668.799)" fill="none" stroke="#8a939e" stroke-miterlimit="10" stroke-width="2"/>
        <g id="Grupo_58430" data-name="Grupo 58430" transform="translate(105.749 229.186)">
          <path id="Trazado_104644" data-name="Trazado 104644" d="M203.945,1909.713H863.7l54.493-40.626H258.438Z" transform="translate(-203.945 -1869.087)" fill="#ced0d2"/>
          <line id="Línea_138" data-name="Línea 138" y1="10.812" transform="translate(163.48 40.284)" fill="none" stroke="#8a939e" stroke-miterlimit="10" stroke-width="2"/>
          <line id="Línea_139" data-name="Línea 139" y1="10.812" transform="translate(328.257 40.284)" fill="none" stroke="#8a939e" stroke-miterlimit="10" stroke-width="2"/>
          <line id="Línea_140" data-name="Línea 140" y1="10.812" transform="translate(493.899 40.284)" fill="none" stroke="#8a939e" stroke-miterlimit="10" stroke-width="2"/>
          <line id="Línea_141" data-name="Línea 141" y1="10.812" transform="translate(657.379 40.284)" fill="none" stroke="#8a939e" stroke-miterlimit="10" stroke-width="2"/>
        </g>
      </g>
      <path id="Trazado_104645" data-name="Trazado 104645" d="M465.171,1685.218l23.342-6.974v228.839l-22.207,19.462-12.65-25.625-15.569-174.833Z" transform="translate(-64.412 -1667.436)" fill="#a73a34"/>
      <path id="Trazado_104646" data-name="Trazado 104646" d="M438.37,1703.058l-32.6-8.109,22.219-16.7h65.185l-23.829,18Z" transform="translate(-69.075 -1667.436)" fill="#802a28"/>
      <rect id="Rectángulo_5577" data-name="Rectángulo 5577" width="65.197" height="231.596" transform="translate(336.697 27.512)" fill="#ea6b5f"/>
      <g id="Grupo_58432" data-name="Grupo 58432" transform="translate(501.474 45.136)">
        <path id="Trazado_104647" data-name="Trazado 104647" d="M609.171,1715.218l23.342-6.974v194.51l-22.207,19.462-12.65-25.625-15.569-140.5Z" transform="translate(-545.109 -1708.244)" fill="#a03c0f"/>
        <path id="Trazado_104648" data-name="Trazado 104648" d="M582.37,1733.058l-32.6-8.109,22.219-16.7h65.185l-23.829,18Z" transform="translate(-549.772 -1708.244)" fill="#74260e"/>
        <rect id="Rectángulo_5578" data-name="Rectángulo 5578" width="65.197" height="197.268" transform="translate(0 16.705)" fill="#ee6c15"/>
      </g>
      <g id="Grupo_58433" data-name="Grupo 58433" transform="translate(668.197 197.326)">
        <path id="Trazado_104649" data-name="Trazado 104649" d="M754.872,1848.218l23.342-6.974v42.32l-22.207,19.462-12.65-25.625-15.569,11.686Z" transform="translate(-690.81 -1841.244)" fill="#a73a34"/>
        <path id="Trazado_104650" data-name="Trazado 104650" d="M728.071,1866.058l-32.6-8.109,22.219-16.7h65.185l-23.828,18Z" transform="translate(-695.472 -1841.244)" fill="#965554"/>
        <rect id="Rectángulo_5579" data-name="Rectángulo 5579" width="65.197" height="45.078" transform="translate(0 16.705)" fill="#e5867d"/>
      </g>
      <g id="Grupo_58434" data-name="Grupo 58434" transform="translate(168.403 216.779)">
        <path id="Trazado_104651" data-name="Trazado 104651" d="M317.809,1865.218l23.342-6.974v22.868l-22.207,19.462-12.65-25.625-13.281,13.975Z" transform="translate(-253.747 -1858.244)" fill="#ae6341"/>
        <path id="Trazado_104652" data-name="Trazado 104652" d="M291.3,1883.058l-32.6-8.109,22.219-16.7H346.1l-23.829,18Z" transform="translate(-258.698 -1858.244)" fill="#8d5240"/>
        <rect id="Rectángulo_5580" data-name="Rectángulo 5580" width="65.197" height="25.625" transform="translate(0 16.705)" fill="#fe851b"/>
      </g>
    </g>
    <path id="Trazado_109504" data-name="Trazado 109504" d="M-7.512,0H-9.77V-8.715l-2.7.832V-9.7l4.711-1.687h.242ZM3.84-4.7a5.762,5.762,0,0,1-.977,3.609A3.409,3.409,0,0,1,0,.156,3.433,3.433,0,0,1-2.84-1.07,5.594,5.594,0,0,1-3.848-4.586V-6.68A5.687,5.687,0,0,1-2.859-10.3,3.434,3.434,0,0,1-.012-11.531a3.437,3.437,0,0,1,2.844,1.223A5.576,5.576,0,0,1,3.84-6.8Zm-2.258-2.3A4.165,4.165,0,0,0,1.2-9.066,1.307,1.307,0,0,0-.012-9.711,1.284,1.284,0,0,0-1.187-9.1a3.9,3.9,0,0,0-.4,1.92v2.768a4.372,4.372,0,0,0,.379,2.068A1.29,1.29,0,0,0,0-1.664a1.268,1.268,0,0,0,1.2-.649A4.268,4.268,0,0,0,1.582-4.3ZM13.02-4.7a5.762,5.762,0,0,1-.977,3.609A3.409,3.409,0,0,1,9.184.156,3.433,3.433,0,0,1,6.34-1.07,5.594,5.594,0,0,1,5.332-4.586V-6.68A5.687,5.687,0,0,1,6.32-10.3a3.434,3.434,0,0,1,2.848-1.234,3.437,3.437,0,0,1,2.844,1.223A5.576,5.576,0,0,1,13.02-6.8Zm-2.258-2.3a4.165,4.165,0,0,0-.387-2.061,1.307,1.307,0,0,0-1.207-.645A1.284,1.284,0,0,0,7.992-9.1a3.9,3.9,0,0,0-.4,1.92v2.768a4.372,4.372,0,0,0,.379,2.068,1.29,1.29,0,0,0,1.215.676,1.268,1.268,0,0,0,1.2-.649A4.268,4.268,0,0,0,10.762-4.3Z" transform="translate(454 4469)" fill="#12263f"/>
    <path id="Trazado_109505" data-name="Trazado 109505" d="M-.992-8.352a2.646,2.646,0,0,1-.414,1.469A2.98,2.98,0,0,1-2.547-5.859a3.3,3.3,0,0,1,1.313,1.1A2.816,2.816,0,0,1-.75-3.117,2.981,2.981,0,0,1-1.781-.723a4.183,4.183,0,0,1-2.8.879A4.2,4.2,0,0,1-7.4-.727,2.974,2.974,0,0,1-8.437-3.117a2.834,2.834,0,0,1,.484-1.648,3.239,3.239,0,0,1,1.3-1.094A2.95,2.95,0,0,1-7.785-6.883,2.664,2.664,0,0,1-8.2-8.352a2.948,2.948,0,0,1,.969-2.316,3.814,3.814,0,0,1,2.633-.863,3.839,3.839,0,0,1,2.629.855A2.937,2.937,0,0,1-.992-8.352Zm-2.023,5.07a1.638,1.638,0,0,0-.43-1.187A1.532,1.532,0,0,0-4.6-4.914a1.529,1.529,0,0,0-1.148.441,1.635,1.635,0,0,0-.43,1.191,1.634,1.634,0,0,0,.422,1.172,1.537,1.537,0,0,0,1.172.445,1.533,1.533,0,0,0,1.152-.43A1.631,1.631,0,0,0-3.016-3.281ZM-3.25-8.242A1.563,1.563,0,0,0-3.6-9.309a1.247,1.247,0,0,0-.992-.4,1.256,1.256,0,0,0-.984.391A1.553,1.553,0,0,0-5.93-8.242a1.633,1.633,0,0,0,.352,1.094,1.23,1.23,0,0,0,.992.414A1.219,1.219,0,0,0-3.6-7.148,1.645,1.645,0,0,0-3.25-8.242ZM8.43-4.7a5.762,5.762,0,0,1-.977,3.609A3.409,3.409,0,0,1,4.594.156,3.433,3.433,0,0,1,1.75-1.07,5.594,5.594,0,0,1,.742-4.586V-6.68A5.687,5.687,0,0,1,1.73-10.3a3.434,3.434,0,0,1,2.848-1.234,3.437,3.437,0,0,1,2.844,1.223A5.576,5.576,0,0,1,8.43-6.8Zm-2.258-2.3a4.165,4.165,0,0,0-.387-2.061,1.307,1.307,0,0,0-1.207-.645A1.284,1.284,0,0,0,3.4-9.1,3.9,3.9,0,0,0,3-7.177v2.768a4.372,4.372,0,0,0,.379,2.068,1.29,1.29,0,0,0,1.215.676,1.268,1.268,0,0,0,1.2-.649A4.268,4.268,0,0,0,6.172-4.3Z" transform="translate(459 4515)" fill="#12263f"/>
    <path id="Trazado_109506" data-name="Trazado 109506" d="M-2.281-11.492v1.859H-2.5a3.836,3.836,0,0,0-2.465.8A3.238,3.238,0,0,0-6.086-6.687,3.075,3.075,0,0,1-3.8-7.609,2.9,2.9,0,0,1-1.437-6.547a4.259,4.259,0,0,1,.875,2.8,4.19,4.19,0,0,1-.48,2.008A3.446,3.446,0,0,1-2.4-.344a3.949,3.949,0,0,1-1.988.5,3.689,3.689,0,0,1-2.9-1.25A4.852,4.852,0,0,1-8.4-4.43v-.812a7.3,7.3,0,0,1,.7-3.27,5.127,5.127,0,0,1,2.008-2.2,5.884,5.884,0,0,1,3.035-.785Zm-2.2,5.7a1.8,1.8,0,0,0-.992.285,1.715,1.715,0,0,0-.656.753v.686A3.04,3.04,0,0,0-5.687-2.3a1.439,1.439,0,0,0,1.25.635,1.423,1.423,0,0,0,1.176-.573,2.337,2.337,0,0,0,.449-1.485,2.333,2.333,0,0,0-.453-1.5A1.477,1.477,0,0,0-4.484-5.789ZM8.43-4.7a5.762,5.762,0,0,1-.977,3.609A3.409,3.409,0,0,1,4.594.156,3.433,3.433,0,0,1,1.75-1.07,5.594,5.594,0,0,1,.742-4.586V-6.68A5.687,5.687,0,0,1,1.73-10.3a3.434,3.434,0,0,1,2.848-1.234,3.437,3.437,0,0,1,2.844,1.223A5.576,5.576,0,0,1,8.43-6.8Zm-2.258-2.3a4.165,4.165,0,0,0-.387-2.061,1.307,1.307,0,0,0-1.207-.645A1.284,1.284,0,0,0,3.4-9.1,3.9,3.9,0,0,0,3-7.177v2.768a4.372,4.372,0,0,0,.379,2.068,1.29,1.29,0,0,0,1.215.676,1.268,1.268,0,0,0,1.2-.649A4.268,4.268,0,0,0,6.172-4.3Z" transform="translate(459 4561)" fill="#12263f"/>
    <path id="Trazado_109507" data-name="Trazado 109507" d="M-1.727-4.281H-.437v1.82H-1.727V0H-3.984V-2.461H-8.648l-.1-1.422,4.742-7.492h2.281Zm-4.773,0h2.516V-8.3l-.148.258ZM8.43-4.7a5.762,5.762,0,0,1-.977,3.609A3.409,3.409,0,0,1,4.594.156,3.433,3.433,0,0,1,1.75-1.07,5.594,5.594,0,0,1,.742-4.586V-6.68A5.687,5.687,0,0,1,1.73-10.3a3.434,3.434,0,0,1,2.848-1.234,3.437,3.437,0,0,1,2.844,1.223A5.576,5.576,0,0,1,8.43-6.8Zm-2.258-2.3a4.165,4.165,0,0,0-.387-2.061,1.307,1.307,0,0,0-1.207-.645A1.284,1.284,0,0,0,3.4-9.1,3.9,3.9,0,0,0,3-7.177v2.768a4.372,4.372,0,0,0,.379,2.068,1.29,1.29,0,0,0,1.215.676,1.268,1.268,0,0,0,1.2-.649A4.268,4.268,0,0,0,6.172-4.3Z" transform="translate(459 4607)" fill="#12263f"/>
    <path id="Trazado_109508" data-name="Trazado 109508" d="M-.609,0h-7.8V-1.547l3.68-3.922A9.078,9.078,0,0,0-3.605-6.914a2.322,2.322,0,0,0,.363-1.172,1.738,1.738,0,0,0-.383-1.191,1.382,1.382,0,0,0-1.094-.434,1.49,1.49,0,0,0-1.207.527A2.089,2.089,0,0,0-6.367-7.8H-8.633a3.729,3.729,0,0,1,.5-1.9,3.5,3.5,0,0,1,1.4-1.348,4.262,4.262,0,0,1,2.055-.488,4.036,4.036,0,0,1,2.73.844A2.985,2.985,0,0,1-.977-8.3a3.825,3.825,0,0,1-.437,1.719,9.551,9.551,0,0,1-1.5,2.039L-5.5-1.82H-.609ZM8.43-4.7a5.762,5.762,0,0,1-.977,3.609A3.409,3.409,0,0,1,4.594.156,3.433,3.433,0,0,1,1.75-1.07,5.594,5.594,0,0,1,.742-4.586V-6.68A5.687,5.687,0,0,1,1.73-10.3a3.434,3.434,0,0,1,2.848-1.234,3.437,3.437,0,0,1,2.844,1.223A5.576,5.576,0,0,1,8.43-6.8Zm-2.258-2.3a4.165,4.165,0,0,0-.387-2.061,1.307,1.307,0,0,0-1.207-.645A1.284,1.284,0,0,0,3.4-9.1,3.9,3.9,0,0,0,3-7.177v2.768a4.372,4.372,0,0,0,.379,2.068,1.29,1.29,0,0,0,1.215.676,1.268,1.268,0,0,0,1.2-.649A4.268,4.268,0,0,0,6.172-4.3Z" transform="translate(459 4653)" fill="#12263f"/>
    <path id="Trazado_109510" data-name="Trazado 109510" d="M3.84-4.7a5.762,5.762,0,0,1-.977,3.609A3.409,3.409,0,0,1,0,.156,3.433,3.433,0,0,1-2.84-1.07,5.594,5.594,0,0,1-3.848-4.586V-6.68A5.687,5.687,0,0,1-2.859-10.3,3.434,3.434,0,0,1-.012-11.531a3.437,3.437,0,0,1,2.844,1.223A5.576,5.576,0,0,1,3.84-6.8Zm-2.258-2.3A4.165,4.165,0,0,0,1.2-9.066,1.307,1.307,0,0,0-.012-9.711,1.284,1.284,0,0,0-1.187-9.1a3.9,3.9,0,0,0-.4,1.92v2.768a4.372,4.372,0,0,0,.379,2.068A1.29,1.29,0,0,0,0-1.664a1.268,1.268,0,0,0,1.2-.649A4.268,4.268,0,0,0,1.582-4.3Z" transform="translate(601 4738)" fill="#12263f"/>
    <path id="Trazado_109511" data-name="Trazado 109511" d="M3.98,0h-7.8V-1.547l3.68-3.922A9.078,9.078,0,0,0,.984-6.914a2.322,2.322,0,0,0,.363-1.172A1.738,1.738,0,0,0,.965-9.277,1.382,1.382,0,0,0-.129-9.711a1.49,1.49,0,0,0-1.207.527A2.089,2.089,0,0,0-1.777-7.8H-4.043a3.729,3.729,0,0,1,.5-1.9,3.5,3.5,0,0,1,1.4-1.348A4.262,4.262,0,0,1-.09-11.531a4.036,4.036,0,0,1,2.73.844A2.985,2.985,0,0,1,3.613-8.3a3.825,3.825,0,0,1-.437,1.719,9.551,9.551,0,0,1-1.5,2.039L-.91-1.82H3.98Z" transform="translate(765 4738)" fill="#12263f"/>
    <path id="Trazado_109512" data-name="Trazado 109512" d="M-2.922,0H-5.18V-8.715l-2.7.832V-9.7l4.711-1.687h.242ZM7.453-4.281H8.742v1.82H7.453V0H5.2V-2.461H.531L.43-3.883l4.742-7.492H7.453Zm-4.773,0H5.2V-8.3l-.148.258Z" transform="translate(934 4738)" fill="#12263f"/>
    <path id="Trazado_109515" data-name="Trazado 109515" d="M-.609,0h-7.8V-1.547l3.68-3.922A9.078,9.078,0,0,0-3.605-6.914a2.322,2.322,0,0,0,.363-1.172,1.738,1.738,0,0,0-.383-1.191,1.382,1.382,0,0,0-1.094-.434,1.49,1.49,0,0,0-1.207.527A2.089,2.089,0,0,0-6.367-7.8H-8.633a3.729,3.729,0,0,1,.5-1.9,3.5,3.5,0,0,1,1.4-1.348,4.262,4.262,0,0,1,2.055-.488,4.036,4.036,0,0,1,2.73.844A2.985,2.985,0,0,1-.977-8.3a3.825,3.825,0,0,1-.437,1.719,9.551,9.551,0,0,1-1.5,2.039L-5.5-1.82H-.609Zm8.8-8.352a2.646,2.646,0,0,1-.414,1.469A2.98,2.98,0,0,1,6.633-5.859a3.3,3.3,0,0,1,1.313,1.1A2.816,2.816,0,0,1,8.43-3.117,2.981,2.981,0,0,1,7.4-.723a4.183,4.183,0,0,1-2.8.879A4.2,4.2,0,0,1,1.781-.727,2.974,2.974,0,0,1,.742-3.117a2.834,2.834,0,0,1,.484-1.648,3.239,3.239,0,0,1,1.3-1.094A2.95,2.95,0,0,1,1.395-6.883a2.664,2.664,0,0,1-.41-1.469,2.948,2.948,0,0,1,.969-2.316,3.814,3.814,0,0,1,2.633-.863,3.839,3.839,0,0,1,2.629.855A2.937,2.937,0,0,1,8.188-8.352ZM6.164-3.281a1.638,1.638,0,0,0-.43-1.187,1.532,1.532,0,0,0-1.156-.445,1.529,1.529,0,0,0-1.148.441A1.635,1.635,0,0,0,3-3.281a1.634,1.634,0,0,0,.422,1.172,1.537,1.537,0,0,0,1.172.445,1.533,1.533,0,0,0,1.152-.43A1.631,1.631,0,0,0,6.164-3.281ZM5.93-8.242a1.563,1.563,0,0,0-.352-1.066,1.247,1.247,0,0,0-.992-.4A1.256,1.256,0,0,0,3.6-9.32,1.553,1.553,0,0,0,3.25-8.242,1.633,1.633,0,0,0,3.6-7.148a1.23,1.23,0,0,0,.992.414,1.219,1.219,0,0,0,.988-.414A1.645,1.645,0,0,0,5.93-8.242Z" transform="translate(1094 4738)" fill="#12263f"/>
    <path id="Trazado_109509" data-name="Trazado 109509" d="M3.84-4.7a5.762,5.762,0,0,1-.977,3.609A3.409,3.409,0,0,1,0,.156,3.433,3.433,0,0,1-2.84-1.07,5.594,5.594,0,0,1-3.848-4.586V-6.68A5.687,5.687,0,0,1-2.859-10.3,3.434,3.434,0,0,1-.012-11.531a3.437,3.437,0,0,1,2.844,1.223A5.576,5.576,0,0,1,3.84-6.8Zm-2.258-2.3A4.165,4.165,0,0,0,1.2-9.066,1.307,1.307,0,0,0-.012-9.711,1.284,1.284,0,0,0-1.187-9.1a3.9,3.9,0,0,0-.4,1.92v2.768a4.372,4.372,0,0,0,.379,2.068A1.29,1.29,0,0,0,0-1.664a1.268,1.268,0,0,0,1.2-.649A4.268,4.268,0,0,0,1.582-4.3Z" transform="translate(463 4707)" fill="#12263f"/>
    <path id="Trazado_104653" data-name="Trazado 104653" d="M-6714.51-7084.71l55.51-42.461v32.221l-55,40.95Z" transform="translate(7889 11832)" fill="#da7162"/>
    <g id="Trazado_109513" data-name="Trazado 109513" transform="translate(515 4747)" fill="#f98473">
      <path d="M 659.5 30.5 L 0.5 30.5 L 0.5 0.5 L 659.5 0.5 L 659.5 30.5 Z" stroke="none"/>
      <path d="M 1 1 L 1 30 L 659 30 L 659 1 L 1 1 M 0 0 L 660 0 L 660 31 L 0 31 L 0 0 Z" stroke="none" fill="#f98473"/>
    </g>
    <path id="Trazado_109514" data-name="Trazado 109514" d="M-14.777,0V-11.375h3.5a5.315,5.315,0,0,1,2.684.676A4.712,4.712,0,0,1-6.746-8.777a5.928,5.928,0,0,1,.664,2.832v.523A5.945,5.945,0,0,1-6.734-2.6,4.672,4.672,0,0,1-8.574-.687,5.355,5.355,0,0,1-11.254,0Zm2.344-9.477v7.594H-11.3a2.545,2.545,0,0,0,2.1-.9,4.06,4.06,0,0,0,.742-2.57v-.6a4.124,4.124,0,0,0-.719-2.629,2.537,2.537,0,0,0-2.1-.895ZM-2.09,0H-4.348V-8.453H-2.09Zm-.664-11.883H-.293L-2.457-9.461H-4.293ZM4.754,0a2.507,2.507,0,0,1-.227-.758A2.732,2.732,0,0,1,2.395.156,3,3,0,0,1,.336-.562,2.312,2.312,0,0,1-.48-2.375a2.389,2.389,0,0,1,1-2.062,4.915,4.915,0,0,1,2.879-.727H4.434v-.484a1.393,1.393,0,0,0-.3-.937,1.183,1.183,0,0,0-.949-.352,1.345,1.345,0,0,0-.895.273.929.929,0,0,0-.324.75H-.293A2.268,2.268,0,0,1,.16-7.273a3,3,0,0,1,1.281-.98A4.669,4.669,0,0,1,3.3-8.609a3.689,3.689,0,0,1,2.48.785A2.747,2.747,0,0,1,6.7-5.617v3.664a4.041,4.041,0,0,0,.336,1.82V0ZM2.887-1.57a1.945,1.945,0,0,0,.922-.223,1.462,1.462,0,0,0,.625-.6V-3.844H3.59q-1.7,0-1.8,1.172l-.008.133a.9.9,0,0,0,.3.7A1.153,1.153,0,0,0,2.887-1.57Zm10.125-.766a.727.727,0,0,0-.41-.652,4.659,4.659,0,0,0-1.316-.426Q8.27-4.047,8.27-5.977A2.323,2.323,0,0,1,9.2-7.855a3.766,3.766,0,0,1,2.441-.754,4.053,4.053,0,0,1,2.574.758,2.388,2.388,0,0,1,.965,1.969H12.926a1.092,1.092,0,0,0-.312-.8A1.322,1.322,0,0,0,11.637-7a1.351,1.351,0,0,0-.883.258.814.814,0,0,0-.312.656.7.7,0,0,0,.355.605,3.657,3.657,0,0,0,1.2.4,9.8,9.8,0,0,1,1.422.379A2.336,2.336,0,0,1,15.207-2.43a2.2,2.2,0,0,1-.992,1.871,4.28,4.28,0,0,1-2.562.715A4.47,4.47,0,0,1,9.766-.223,3.166,3.166,0,0,1,8.473-1.262,2.414,2.414,0,0,1,8-2.687h2.141a1.179,1.179,0,0,0,.445.922,1.766,1.766,0,0,0,1.109.32,1.635,1.635,0,0,0,.98-.246A.766.766,0,0,0,13.012-2.336Z" transform="translate(842 4768)" fill="#fff"/>
  </g>
</svg>
