<svg xmlns="http://www.w3.org/2000/svg" xmlns:xlink="http://www.w3.org/1999/xlink" width="66" height="66" viewBox="0 0 66 66">
  <defs>
    <clipPath id="clip-path">
      <circle id="Elipse_5309" data-name="Elipse 5309" cx="33" cy="33" r="33" transform="translate(-293.752 705.079)" fill="none"/>
    </clipPath>
  </defs>
  <g id="Grupo_58771" data-name="Grupo 58771" transform="translate(293.752 -705.079)">
    <circle id="Elipse_5309-2" data-name="Elipse 5309" cx="33" cy="33" r="33" transform="translate(-293.752 705.079)" fill="#fff"/>
    <g id="Grupo_58785" data-name="Grupo 58785">
      <g id="Grupo_58784" data-name="Grupo 58784" clip-path="url(#clip-path)">
        <g id="Grupo_58783" data-name="Grupo 58783">
          <g id="Grupo_58782" data-name="Grupo 58782">
            <g id="Grupo_58781" data-name="Grupo 58781">
              <g id="Grupo_58776" data-name="Grupo 58776">
                <g id="Grupo_58775" data-name="Grupo 58775">
                  <path id="Trazado_105023" data-name="Trazado 105023" d="M-261.077,726.614l8.472,9.845L-227.076,748a1.2,1.2,0,0,1,.6,1.587c-1.5,3.363-3.026,6.714-4.535,10.073a1.2,1.2,0,0,1-1.593.6l-25.732-11.635-2.407.909-7.622-20.205-3.762-1.692a3.131,3.131,0,0,1-1.568-4.145,3.131,3.131,0,0,1,4.142-1.563l5.606,2.535A8.3,8.3,0,0,1-261.077,726.614Z" fill="#bb5949"/>
                  <path id="Trazado_105024" data-name="Trazado 105024" d="M-227.082,748-252.6,736.459l-8.474-9.845a8.238,8.238,0,0,0-2.865-2.144l-5.605-2.536a3.126,3.126,0,0,0-2.395-.076,3.118,3.118,0,0,0-1.747,1.639,3.113,3.113,0,0,0-.13,2.24c.05-.024.1-.044.151-.063a3.112,3.112,0,0,1,2.4.077l5.606,2.533a8.312,8.312,0,0,1,2.865,2.145l8.474,9.845,3.96,1.791q-1.9,4.223-3.811,8.442l15.808,7.148a5.34,5.34,0,0,0,.434-4.662l-1.137-3.016a1.5,1.5,0,0,1,2.017-1.893l9.347,4.227,1.229-2.719a1.2,1.2,0,0,0-.6-1.592Z" fill="#ac473e"/>
                  <path id="Trazado_105025" data-name="Trazado 105025" d="M-237.737,736.319l-6.744-3.05a8.292,8.292,0,0,0-3.5-.735l-12.846.14a.6.6,0,0,1-.27-.061l-27.413-13.306a1.206,1.206,0,0,0-1.624.588c-1.68,3.715-3.212,7.1-4.892,10.82a1.2,1.2,0,0,0,.6,1.593l27.875,12.6a.6.6,0,0,1,.314.336l4.071,10.789a2.668,2.668,0,0,0,3.318,1.622,2.629,2.629,0,0,0,1.622-3.419l1,2.643a2.629,2.629,0,0,0,3.387,1.532,2.628,2.628,0,0,0,1.531-3.387l.476,1.261a2.669,2.669,0,0,0,3.319,1.622,2.628,2.628,0,0,0,1.621-3.419l.5,1.317a2.628,2.628,0,0,0,3.386,1.531,2.629,2.629,0,0,0,1.532-3.387l-4.951-13.123a.6.6,0,0,1,.811-.761l4.3,1.951a3.13,3.13,0,0,0,4.126-1.518,3.13,3.13,0,0,0-1.543-4.183Z" fill="#f8c0b4"/>
                  <path id="Trazado_105026" data-name="Trazado 105026" d="M-236.1,738.066a3.119,3.119,0,0,1-.1,2.436,3.11,3.11,0,0,1-1.281,1.386,3.251,3.251,0,0,0-.138-.474,3.116,3.116,0,0,0-1.638-1.746l-6.744-3.05a8.263,8.263,0,0,0-3.5-.735l-12.847.139a.6.6,0,0,1-.269-.06l-28.526-13.847,1-2.221a1.2,1.2,0,0,1,1.622-.587l27.414,13.307a.612.612,0,0,0,.269.06l12.847-.139a8.277,8.277,0,0,1,3.5.734l6.743,3.049a3.119,3.119,0,0,1,1.639,1.748Z" fill="#f39d8f"/>
                  <g id="Grupo_58771-2" data-name="Grupo 58771">
                    <path id="Trazado_105027" data-name="Trazado 105027" d="M-271.571,748.646a2.629,2.629,0,0,0,3.387,1.532l3-1.133a2.628,2.628,0,0,0,1.531-3.387,2.628,2.628,0,0,0-3.387-1.531l-3,1.132a2.629,2.629,0,0,0-1.531,3.387Z" fill="#ee7f70"/>
                    <path id="Trazado_105028" data-name="Trazado 105028" d="M-263.651,745.657a2.627,2.627,0,0,1-1.531,3.387l-2.829,1.068a2.629,2.629,0,0,0,1.532-3.388,2.615,2.615,0,0,0-1.376-1.465,2.618,2.618,0,0,0-2.011-.065l2.829-1.067a2.615,2.615,0,0,1,2.01.065A2.615,2.615,0,0,1-263.651,745.657Z" fill="#e4695c"/>
                  </g>
                  <g id="Grupo_58772" data-name="Grupo 58772">
                    <path id="Trazado_105029" data-name="Trazado 105029" d="M-277.388,745.222A2.629,2.629,0,0,0-274,746.754l5.014-1.892a2.629,2.629,0,0,0,1.532-3.387,2.629,2.629,0,0,0-3.387-1.531l-5.014,1.892a2.628,2.628,0,0,0-1.532,3.386Z" fill="#f39d8f"/>
                    <path id="Trazado_105030" data-name="Trazado 105030" d="M-267.456,741.476a2.627,2.627,0,0,1-1.53,3.386l-2.829,1.067a2.629,2.629,0,0,0,1.532-3.387,2.62,2.62,0,0,0-1.377-1.467,2.618,2.618,0,0,0-2.011-.064l2.829-1.067a2.618,2.618,0,0,1,2.011.064A2.622,2.622,0,0,1-267.456,741.476Z" fill="#f08b7d"/>
                  </g>
                  <g id="Grupo_58773" data-name="Grupo 58773">
                    <path id="Trazado_105031" data-name="Trazado 105031" d="M-282.17,741.408a2.629,2.629,0,0,0,3.387,1.532l5.072-1.914a2.628,2.628,0,0,0,1.532-3.386,2.63,2.63,0,0,0-3.387-1.532l-5.072,1.914A2.627,2.627,0,0,0-282.17,741.408Z" fill="#ee7f70"/>
                    <path id="Trazado_105032" data-name="Trazado 105032" d="M-272.179,737.639a2.629,2.629,0,0,1-1.532,3.387l-2.829,1.067a2.628,2.628,0,0,0,1.532-3.387,2.613,2.613,0,0,0-1.376-1.466,2.618,2.618,0,0,0-2.011-.064l2.829-1.067a2.618,2.618,0,0,1,2.011.064A2.613,2.613,0,0,1-272.179,737.639Z" fill="#e4695c"/>
                  </g>
                  <g id="Grupo_58774" data-name="Grupo 58774">
                    <path id="Trazado_105033" data-name="Trazado 105033" d="M-287.323,737.734a2.629,2.629,0,0,0,3.387,1.532l3.864-1.458a2.628,2.628,0,0,0,1.532-3.387,2.628,2.628,0,0,0-3.387-1.531l-3.865,1.458A2.627,2.627,0,0,0-287.323,737.734Z" fill="#f39d8f"/>
                    <path id="Trazado_105034" data-name="Trazado 105034" d="M-278.54,734.421a2.628,2.628,0,0,1-1.531,3.387l-2.829,1.067a2.628,2.628,0,0,0,1.532-3.387,2.617,2.617,0,0,0-1.377-1.467,2.616,2.616,0,0,0-2.01-.065l2.828-1.067a2.618,2.618,0,0,1,2.011.065A2.612,2.612,0,0,1-278.54,734.421Z" fill="#f08b7d"/>
                  </g>
                </g>
              </g>
              <g id="Grupo_58777" data-name="Grupo 58777">
                <path id="Trazado_105035" data-name="Trazado 105035" d="M-258.259,751.513l1.029,2.728a2.627,2.627,0,0,1-.809,2.971l-1.909-5.062a.9.9,0,0,1,.525-1.163.9.9,0,0,1,1.164.526Z" fill="#f39d8f"/>
              </g>
              <g id="Grupo_58778" data-name="Grupo 58778">
                <path id="Trazado_105036" data-name="Trazado 105036" d="M-252.88,750.879l1.565,4.149a2.62,2.62,0,0,1-.064,2.01,2.594,2.594,0,0,1-.744.962l-2.446-6.484a.9.9,0,0,1,.526-1.163A.9.9,0,0,1-252.88,750.879Z" fill="#f39d8f"/>
              </g>
              <g id="Grupo_58779" data-name="Grupo 58779">
                <path id="Trazado_105037" data-name="Trazado 105037" d="M-244.624,740.069a.6.6,0,0,0-.812.76l4.951,13.124a2.615,2.615,0,0,1-.063,2.01,2.635,2.635,0,0,1-.744.963l-5.551-14.713a1.678,1.678,0,0,1,2.219-2.144Z" fill="#f39d8f"/>
              </g>
              <g id="Grupo_58780" data-name="Grupo 58780">
                <path id="Trazado_105038" data-name="Trazado 105038" d="M-247.325,750.713l1.426,3.779a2.628,2.628,0,0,1-.808,2.973l-2.307-6.115a.9.9,0,0,1,.526-1.163A.9.9,0,0,1-247.325,750.713Z" fill="#f39d8f"/>
              </g>
            </g>
          </g>
        </g>
      </g>
    </g>
  </g>
</svg>
