<svg xmlns="http://www.w3.org/2000/svg" width="58.617" height="191.5" viewBox="0 0 58.617 191.5">
  <g id="Grupo_60539" data-name="Grupo 60539" transform="translate(224.798 -885.766)">
    <g id="Grupo_60528" data-name="Grupo 60528" transform="translate(-224.798 906.617)">
      <path id="Trazado_109271" data-name="Trazado 109271" d="M-193.288,951.219-205.71,921.44l-19.088,5.327,12.422,29.778Z" transform="translate(224.798 -921.44)" fill="#af3a49"/>
      <path id="Trazado_109272" data-name="Trazado 109272" d="M-194.111,951.627l-10.795-25.878-15.017,4.191,10.795,25.879Z" transform="translate(222.772 -923.23)" fill="#ffeac7"/>
      <g id="Grupo_60527" data-name="Grupo 60527" transform="translate(5.073 0.313)">
        <path id="Trazado_109273" data-name="Trazado 109273" d="M-214.038,928.178l-.655-4,7.632-2.205.655,4Z" transform="translate(215.526 -921.975)" fill="#b7cad0"/>
        <path id="Trazado_109274" data-name="Trazado 109274" d="M-215.285,925.749l-.832,1.393,1.014-.283Z" transform="translate(216.118 -923.543)" fill="#8395a4"/>
      </g>
      <path id="Trazado_109275" data-name="Trazado 109275" d="M-206.2,928.235l-7.632,2.205-.362-2.205.153.242a1.572,1.572,0,0,0,1.77.672l5.937-1.729Z" transform="translate(220.39 -923.925)" fill="#8395a4"/>
    </g>
    <g id="Grupo_60529" data-name="Grupo 60529" transform="translate(-203.583 984.551)">
      <path id="Trazado_109276" data-name="Trazado 109276" d="M-159.973,1064.548V1139.7h12.311l4.286-84.922Z" transform="translate(176.646 -1054.781)" fill="#2c3e5a"/>
      <path id="Trazado_109277" data-name="Trazado 109277" d="M-157.876,1063.314l-.851,15.145-1.246.2v24.71l3.479-17.238a62.592,62.592,0,0,0,11.5-2.515l1.62-28.83Z" transform="translate(176.646 -1054.781)" fill="#341d3f"/>
      <path id="Trazado_109278" data-name="Trazado 109278" d="M-188.5,1064.548V1139.7h12.368l4.305-84.922Z" transform="translate(188.5 -1054.781)" fill="#2c3e5a"/>
      <path id="Trazado_109279" data-name="Trazado 109279" d="M-188.5,1064.548v18.372c4.178,2.814,8.931,3.579,13.841,3.487q.545-.01,1.089-.041l1.261-23.052.482-8.533Z" transform="translate(188.5 -1054.781)" fill="#341d3f"/>
    </g>
    <path id="Trazado_109280" data-name="Trazado 109280" d="M-193.376,962.659l-.475-.75a10.21,10.21,0,0,1-.906-9.138c1.87-4.852,4.2-9.92,5.591-14.546h19.921c4.238,2.16,6.582,7.509,7.032,12.244s-.354,9.506-.145,14.257c.324,7.351,3.043,14.348,4.957,21.453a100.078,100.078,0,0,1,1.658,44.629,60.942,60.942,0,0,1-8.218,2.368l-2.532-13.808-2.455,14.658a54.8,54.8,0,0,1-25.217-2.57c-.79-20.646-.352-41.3,2.348-61.769A10.578,10.578,0,0,0-193.376,962.659Z" transform="translate(-12.199 -21.798)" fill="#d9e1eb"/>
    <path id="Trazado_109281" data-name="Trazado 109281" d="M-218.73,952.425l-.622-2.294,1.466-1.572a2.624,2.624,0,0,0,.552-.9l1.018-2.817a.78.78,0,0,0-.3-.914h0a.78.78,0,0,0-1.023.139l-2.237,2.592-2.392-5.734-.375.556a3.754,3.754,0,0,0-.641,2.1h0l-1.286,2.548a2.1,2.1,0,0,0-.131,1.576l2.236,7.18Z" transform="translate(0 -22.919)" fill="#f8af89"/>
    <path id="Trazado_109282" data-name="Trazado 109282" d="M-177.773,919.221l-.262-4.527c-2.293,0-4.386-1.945-5.164-4.1a8.028,8.028,0,0,1-.088-4.618,23.941,23.941,0,0,1,1.7-4.357l2.823-6.027c1.129-2.41,4.412-3.239,7.069-3.081a8.111,8.111,0,0,1,6.53,4,10.037,10.037,0,0,1,.5,7.669A29.8,29.8,0,0,1-168.2,911.2l-2.329,3.758.448,4.258Z" transform="translate(-17.126 -2.794)" fill="#f8af89"/>
    <g id="Grupo_60531" data-name="Grupo 60531" transform="translate(-202.836 1008.275)">
      <path id="Trazado_109284" data-name="Trazado 109284" d="M-173.865,1097.547a46.665,46.665,0,0,1-13.264-1.919.131.131,0,0,1-.088-.163.13.13,0,0,1,.163-.088,46.385,46.385,0,0,0,18.958,1.545.129.129,0,0,1,.147.114.131.131,0,0,1-.113.146A45.948,45.948,0,0,1-173.865,1097.547Z" transform="translate(187.223 -1095.37)" fill="#b8c1cd"/>
    </g>
    <g id="Grupo_60532" data-name="Grupo 60532" transform="translate(-181.97 994.346)">
      <path id="Trazado_109285" data-name="Trazado 109285" d="M-151.392,1085.032l-.019,0a.13.13,0,0,1-.11-.148l1.953-13.23a.13.13,0,0,1,.148-.11.131.131,0,0,1,.111.148l-1.954,13.23A.131.131,0,0,1-151.392,1085.032Z" transform="translate(151.523 -1071.54)" fill="#b8c1cd"/>
    </g>
    <g id="Grupo_60533" data-name="Grupo 60533" transform="translate(-177.203 995.759)">
      <path id="Trazado_109286" data-name="Trazado 109286" d="M-142.069,1078.763a.13.13,0,0,1-.129-.106,38.361,38.361,0,0,0-1.163-4.529.132.132,0,0,1,.085-.165.133.133,0,0,1,.165.084,38.649,38.649,0,0,1,1.169,4.561.13.13,0,0,1-.1.153Z" transform="translate(143.366 -1073.957)" fill="#b8c1cd"/>
    </g>
    <g id="Grupo_60534" data-name="Grupo 60534" transform="translate(-175.159 1008.158)">
      <path id="Trazado_109287" data-name="Trazado 109287" d="M-139.738,1096.2a.131.131,0,0,1-.129-.106.13.13,0,0,1,.1-.154l3.856-.771a.131.131,0,0,1,.154.1.13.13,0,0,1-.1.154l-3.856.772Z" transform="translate(139.87 -1095.17)" fill="#b8c1cd"/>
    </g>
    <path id="Trazado_109288" data-name="Trazado 109288" d="M-169.169,1003.248a22.761,22.761,0,0,1-1.717,5.933c10.9.783,16.36-2.21,16.36-2.21Z" transform="translate(-22.402 -48.817)" fill="#adbaca"/>
    <g id="Grupo_60535" data-name="Grupo 60535" transform="translate(-191.808 954.061)">
      <path id="Trazado_109289" data-name="Trazado 109289" d="M-153.3,1005.352a7.131,7.131,0,0,1-.086,1.448,103.5,103.5,0,0,1-14.75,1.287,17.656,17.656,0,0,0,.107-5.01q1.643-.132,3.288-.239" transform="translate(168.262 -1002.708)" fill="#d9e1eb"/>
      <path id="Trazado_109290" data-name="Trazado 109290" d="M-168.246,1008.123a.132.132,0,0,1-.077-.042.133.133,0,0,1-.031-.108,17.563,17.563,0,0,0,.106-4.971.129.129,0,0,1,.028-.1.132.132,0,0,1,.091-.049c1.088-.088,2.2-.168,3.29-.239a.13.13,0,0,1,.139.122.13.13,0,0,1-.122.139c-1.047.068-2.106.144-3.149.228a17.908,17.908,0,0,1-.1,4.755,102.937,102.937,0,0,0,14.48-1.264,7.045,7.045,0,0,0,.07-1.331.132.132,0,0,1,.126-.136.132.132,0,0,1,.136.127,7.276,7.276,0,0,1-.088,1.475.13.13,0,0,1-.106.107,103.559,103.559,0,0,1-14.769,1.289A.1.1,0,0,1-168.246,1008.123Zm14.771-1.416h0Z" transform="translate(168.355 -1002.615)" fill="#d9e1eb"/>
    </g>
    <path id="Trazado_109291" data-name="Trazado 109291" d="M-192.047,973.433l-.195-.307h0l5.418-8.974a10.716,10.716,0,0,1-1.535,6.417,8.688,8.688,0,0,0-1.371,2.188,6.684,6.684,0,0,0,.285,3.685,25.967,25.967,0,0,1,.722,10.309,16.5,16.5,0,0,1-3.265,7.716q.589-7.014,1.5-14.006A10.579,10.579,0,0,0-192.047,973.433Z" transform="translate(-13.528 -32.571)" fill="#adbaca"/>
    <path id="Trazado_109292" data-name="Trazado 109292" d="M-200.7,938.224h0a6.061,6.061,0,0,0-5.534,3.59l-7.6,17.023-3.711-8.719c-3.647-.563-5.656,3.455-5.656,3.455l4.92,14.259a5.148,5.148,0,0,0,4.866,3.469h0a5.149,5.149,0,0,0,4.407-2.488l10.1-16.725A11.275,11.275,0,0,0-200.7,938.224Z" transform="translate(-0.664 -21.798)" fill="#d9e1eb"/>
    <path id="Trazado_109293" data-name="Trazado 109293" d="M-209.937,966.411l1.645,3.945-1.2,2.684C-210.45,970.551-209.937,966.411-209.937,966.411Z" transform="translate(-6.118 -33.51)" fill="#dfdfd9"/>
    <path id="Trazado_109296" data-name="Trazado 109296" d="M-181.312,892.748a8.882,8.882,0,0,1,5.427-6.39,10.5,10.5,0,0,1,7.959.434,13.116,13.116,0,0,1,7.544,11.706c-.006,2.732-.881,5.387-1.153,8.106a18.47,18.47,0,0,0,1.048,8.194c1.087,2.945,2.906,5.559,4.245,8.4s2.191,6.132,1.194,9.108a9.652,9.652,0,0,1-6.033,5.764,15.892,15.892,0,0,1-8.526.3c-3.379-.715-6.854-2.429-8.279-5.576a14.517,14.517,0,0,1-.814-6.328c0-5.093.207-10.194.312-15.285.051-2.489.278-5.049.12-7.533a8.3,8.3,0,0,0-1.551-3.887A9.769,9.769,0,0,1-181.312,892.748Z" transform="translate(-18.001)" fill="#642439"/>
    <path id="Trazado_109297" data-name="Trazado 109297" d="M-189.766,1207.87h-9.671a6.287,6.287,0,0,1,3.321-2.978l.264-.1a6.287,6.287,0,0,0,2.756-2.079l1.988-2.634h6.941a7.8,7.8,0,0,1-1.023,7.793h-2.533v-2.24Z" transform="translate(-10.538 -130.604)" fill="#341d3f"/>
    <path id="Trazado_109298" data-name="Trazado 109298" d="M-161.266,1207.87h-9.671a6.287,6.287,0,0,1,3.321-2.978l.264-.1a6.287,6.287,0,0,0,2.756-2.079l1.988-2.634h6.941a7.8,7.8,0,0,1-1.023,7.793h-2.533v-2.24Z" transform="translate(-22.38 -130.604)" fill="#341d3f"/>
  </g>
</svg>
