<svg xmlns="http://www.w3.org/2000/svg" xmlns:xlink="http://www.w3.org/1999/xlink" width="190.25" height="156.258" viewBox="0 0 190.25 156.258">
  <defs>
    <linearGradient id="linear-gradient" x1="0.037" y1="0.968" x2="1.103" y2="0.023" gradientUnits="objectBoundingBox">
      <stop offset="0" stop-color="#d4d4d4"/>
      <stop offset="1" stop-color="#fff"/>
    </linearGradient>
    <linearGradient id="linear-gradient-2" x1="0.029" y1="0.973" x2="1.361" y2="-0.324" gradientUnits="objectBoundingBox">
      <stop offset="0" stop-color="#fff"/>
      <stop offset="1" stop-color="#fff"/>
    </linearGradient>
  </defs>
  <g id="Grupo_58749" data-name="Grupo 58749" transform="translate(-494.772 -1547.703)">
    <rect id="Rectángulo_6318" data-name="Rectángulo 6318" width="189.819" height="156.258" rx="12" transform="translate(495.203 1547.703)" fill="url(#linear-gradient)"/>
    <rect id="Rectángulo_6319" data-name="Rectángulo 6319" width="175.106" height="141.545" rx="11.045" transform="translate(502.559 1555.061)" fill="url(#linear-gradient-2)"/>
    <path id="Trazado_102236" data-name="Trazado 102236" d="M-147.58-1178.873h11.569v-60.481h-15.377v10.837h3.808Z" transform="translate(649.527 2811.229)" fill="#f98473"/>
    <rect id="Rectángulo_6320" data-name="Rectángulo 6320" width="3.368" height="10.837" transform="translate(494.772 1571.875)" fill="#bd4b3a"/>
    <path id="Trazado_105023" data-name="Trazado 105023" d="M-15.157-5.405h-5.15V0h-2.224V-12.8h8.13V-11h-5.906V-7.2h5.15ZM-10.551,0h-2.136V-9.51h2.136Zm-.4-13.438h2.435l-2.435,2.663-1.714,0ZM-2.791-2.584a.968.968,0,0,0-.47-.87,5,5,0,0,0-1.56-.527,8.02,8.02,0,0,1-1.819-.58A2.428,2.428,0,0,1-8.24-6.8,2.531,2.531,0,0,1-7.2-8.859a4.1,4.1,0,0,1,2.637-.826,4.266,4.266,0,0,1,2.755.844A2.677,2.677,0,0,1-.76-6.653H-2.9a1.316,1.316,0,0,0-.457-1.024,1.752,1.752,0,0,0-1.213-.409,1.893,1.893,0,0,0-1.147.325,1.025,1.025,0,0,0-.444.87.866.866,0,0,0,.413.765,5.68,5.68,0,0,0,1.67.549A7.9,7.9,0,0,1-2.1-4.917,2.794,2.794,0,0,1-1.037-4,2.342,2.342,0,0,1-.69-2.7,2.478,2.478,0,0,1-1.753-.62a4.535,4.535,0,0,1-2.786.8A4.917,4.917,0,0,1-6.623-.246a3.428,3.428,0,0,1-1.424-1.16A2.746,2.746,0,0,1-8.556-3h2.074a1.5,1.5,0,0,0,.571,1.165,2.22,2.22,0,0,0,1.4.409A2.16,2.16,0,0,0-3.23-1.745.993.993,0,0,0-2.791-2.584ZM3.441,0H1.305V-9.51H3.441ZM1.173-11.988a1.147,1.147,0,0,1,.312-.824,1.173,1.173,0,0,1,.892-.328,1.188,1.188,0,0,1,.9.328,1.138,1.138,0,0,1,.316.824,1.112,1.112,0,0,1-.316.811,1.2,1.2,0,0,1-.9.323,1.182,1.182,0,0,1-.892-.323A1.12,1.12,0,0,1,1.173-11.988Zm8.5,10.459A1.931,1.931,0,0,0,11-2a1.591,1.591,0,0,0,.563-1.151h2.013a3.137,3.137,0,0,1-.554,1.657A3.632,3.632,0,0,1,11.615-.272,4.191,4.191,0,0,1,9.7.176,4.055,4.055,0,0,1,6.535-1.116,5.124,5.124,0,0,1,5.366-4.685V-4.9A5.039,5.039,0,0,1,6.526-8.38,4.018,4.018,0,0,1,9.69-9.686a3.907,3.907,0,0,1,2.764.989,3.542,3.542,0,0,1,1.121,2.6H11.562A1.956,1.956,0,0,0,11-7.444a1.8,1.8,0,0,0-1.332-.527,1.879,1.879,0,0,0-1.6.751A3.834,3.834,0,0,0,7.5-4.939V-4.6A3.9,3.9,0,0,0,8.06-2.29,1.878,1.878,0,0,0,9.672-1.529ZM20.87,0a3.3,3.3,0,0,1-.246-.888,3.325,3.325,0,0,1-2.5,1.063A3.355,3.355,0,0,1,15.79-.642a2.615,2.615,0,0,1-.905-2.021A2.7,2.7,0,0,1,16.014-5a5.473,5.473,0,0,1,3.23-.813h1.31v-.624a1.666,1.666,0,0,0-.413-1.182,1.638,1.638,0,0,0-1.257-.444,1.881,1.881,0,0,0-1.2.365,1.129,1.129,0,0,0-.466.927H15.086A2.37,2.37,0,0,1,15.6-8.231,3.455,3.455,0,0,1,17.016-9.3a4.955,4.955,0,0,1,1.991-.387,3.99,3.99,0,0,1,2.663.839,2.993,2.993,0,0,1,1.02,2.36V-2.2a4.861,4.861,0,0,0,.36,2.048V0ZM18.523-1.538a2.429,2.429,0,0,0,1.191-.308,2.055,2.055,0,0,0,.839-.826V-4.465H19.4a3.148,3.148,0,0,0-1.784.413,1.338,1.338,0,0,0-.6,1.169,1.248,1.248,0,0,0,.409.98A1.583,1.583,0,0,0,18.523-1.538Z" transform="translate(590.113 1675.854)" fill="#686868"/>
    <rect id="Rectángulo_6321" data-name="Rectángulo 6321" width="48.945" height="1.512" transform="translate(565.64 1650.703)" fill="#f98473"/>
    <path id="Trazado_102239" data-name="Trazado 102239" d="M-146.968-1178.873v-60.481h-4.419v10.837h3.808v49.645Z" transform="translate(649.527 2811.229)" fill="#bd4b3a"/>
    <g id="Grupo_58743" data-name="Grupo 58743" transform="translate(-168.575 663.125)">
      <g id="Grupo_58744" data-name="Grupo 58744" transform="translate(0 -15.714)">
        <path id="Trazado_104657" data-name="Trazado 104657" d="M777.722,979.638c0-2.231-.035-4.463.009-6.693a12.111,12.111,0,0,1,2.063-6.566,24.488,24.488,0,0,0,3.87-8.962A23.548,23.548,0,0,0,763.772,929.4a23.438,23.438,0,0,0-25.895,17.692,31.719,31.719,0,0,0-.664,6.036,21.257,21.257,0,0,1-1.668,7.767c-.842,1.954-1.655,3.919-2.482,5.879-.474,1.122-.469,1.129.669,1.439.9.245,1.792.485,2.681.753a3.089,3.089,0,0,1,2.336,2.639c.5,3.164,1.008,6.327,1.493,9.493a2.444,2.444,0,0,0,2.642,2.291q4.046.008,8.091,0a5.9,5.9,0,0,0,6.162-5.848,1.341,1.341,0,0,1,1.379-1.4,1.362,1.362,0,0,1,1.35,1.508c.013,4.058-3.345,8.026-7.372,8.329-3.365.252-6.758.14-10.139.145a4.206,4.206,0,0,1-1.558-.378,5.086,5.086,0,0,1-3.249-4.345c-.354-2.615-.932-5.206-1.186-7.829a2.3,2.3,0,0,0-2.32-2.452,9.084,9.084,0,0,1-1.629-.424,3.169,3.169,0,0,1-2.11-4.364c.954-2.33,1.957-4.64,2.922-6.966a16.566,16.566,0,0,0,1.247-6.513,26.2,26.2,0,0,1,51.774-5.938,25.577,25.577,0,0,1-3.733,20.218,12.561,12.561,0,0,0-2.132,7.193c.031,4.193.005,8.386,0,12.579,0,.969-.527,1.6-1.332,1.6a1.414,1.414,0,0,1-1.366-1.585c-.015-2.427-.005-4.855-.005-7.282Z" fill="#b94a39"/>
        <path id="Trazado_104658" data-name="Trazado 104658" d="M765.144,955.15a5.354,5.354,0,0,1-4.2-1.913,1.42,1.42,0,0,1,.007-2.089,1.4,1.4,0,0,1,2.013.265,2.661,2.661,0,0,0,3.051.788,2.583,2.583,0,0,0,1.558-2.728c-.042-1.024.379-1.631,1.184-1.7s1.383.439,1.506,1.437a5.056,5.056,0,0,1-2.038,4.833.812.812,0,0,0-.333.936,4.388,4.388,0,0,0,3.516,3.246A4.309,4.309,0,0,0,775.982,956a4.4,4.4,0,0,0-.47-4.82,2.509,2.509,0,0,0-.229-.205c-.112.162-.2.3-.306.44a1.363,1.363,0,0,1-1.815.434,1.328,1.328,0,0,1-.49-1.844,6.194,6.194,0,0,0,.818-3.445,5.587,5.587,0,0,0-6.075-5.067c-1.007.137-1.379-.073-1.876-1a6.5,6.5,0,0,0-6.168-3.752,6.612,6.612,0,0,0-6.359,6.455c0,.392.038.784.029,1.176a1.325,1.325,0,0,1-1.218,1.326,1.356,1.356,0,0,1-1.451-1.167c-.052-.334-.08-.672-.118-1-2.317-.177-4.869,2.265-5.049,4.771a5.466,5.466,0,0,0,5.155,6.147,15.657,15.657,0,0,1,.983-1.872,5.509,5.509,0,0,1,4.675-2.467,1.338,1.338,0,1,1,.147,2.671c-2.055.273-3.224,1.482-3.155,3.266a3.054,3.054,0,0,0,2.938,2.912c1.249.035,2.511-.048,3.744.109a5.949,5.949,0,0,1,5.35,5.995c.031,1.176.014,2.354-.007,3.531-.017.979-.552,1.579-1.367,1.586-.845.007-1.369-.6-1.378-1.634-.009-1.152.006-2.3,0-3.456a3.267,3.267,0,0,0-3.326-3.361,30.027,30.027,0,0,1-3.812-.124,5.517,5.517,0,0,1-4.561-3.877c-.134-.37-.264-.535-.694-.566a8.241,8.241,0,0,1-.864-16.283,2.635,2.635,0,0,0,2.271-1.691,9.243,9.243,0,0,1,16.019-1.03,1.256,1.256,0,0,0,1.117.633,8.182,8.182,0,0,1,7.795,8.251,2.012,2.012,0,0,0,.747,1.737,7,7,0,0,1,1.646,8.012,7.087,7.087,0,0,1-13.377-1.173C765.213,955.484,765.186,955.343,765.144,955.15Z" fill="#b94a39"/>
      </g>
      <path id="Trazado_104659" data-name="Trazado 104659" d="M762.585,947.257a2.573,2.573,0,0,0-4.615-1.744,1.427,1.427,0,0,1-2.054.374c-.672-.546-.687-1.312-.043-2.141A5.328,5.328,0,0,1,761.9,942.1a5.391,5.391,0,0,1,3.436,5.233c-.093,1.1-.624,1.731-1.451,1.687A1.387,1.387,0,0,1,762.585,947.257Z" fill="#b94a39"/>
    </g>
  </g>
</svg>
