<svg xmlns="http://www.w3.org/2000/svg" width="294" height="161.365" viewBox="0 0 294 161.365">
  <g id="Grupo_60627" data-name="Grupo 60627" transform="translate(-567.827 -519.489)">
    <ellipse id="Elipse_5344" data-name="Elipse 5344" cx="147" cy="5.662" rx="147" ry="5.662" transform="translate(567.827 669.53)" fill="#999b9d"/>
    <rect id="Rectángulo_6693" data-name="Rectángulo 6693" width="12.115" height="140.369" transform="translate(589.326 532.894)" fill="#cfcfd0"/>
    <rect id="Rectángulo_6694" data-name="Rectángulo 6694" width="12.115" height="35.309" transform="translate(589.326 637.954)" fill="#d8800d"/>
    <rect id="Rectángulo_6695" data-name="Rectángulo 6695" width="12.115" height="140.369" transform="translate(607.73 532.894)" fill="#cfcfd0"/>
    <rect id="Rectángulo_6696" data-name="Rectángulo 6696" width="12.115" height="35.309" transform="translate(607.73 637.954)" fill="#d8800d"/>
    <g id="Grupo_60626" data-name="Grupo 60626">
      <g id="Grupo_60612" data-name="Grupo 60612">
        <g id="Grupo_60607" data-name="Grupo 60607">
          <g id="Grupo_60606" data-name="Grupo 60606">
            <g id="Grupo_60605" data-name="Grupo 60605">
              <path id="Trazado_109321" data-name="Trazado 109321" d="M729.353,552.557v62.532a7,7,0,0,1-6.978,6.978H685.208a6.908,6.908,0,0,1-2.8-.591,7,7,0,0,1-4.177-6.387V552.557a7,7,0,0,1,6.978-6.977h37.167A7,7,0,0,1,729.353,552.557Z" fill="#e8e8e8"/>
              <circle id="Elipse_5345" data-name="Elipse 5345" cx="7.595" cy="7.595" r="7.595" transform="matrix(0.98, -0.197, 0.197, 0.98, 706.616, 556.034)" fill="#d4d5d9"/>
              <path id="Trazado_109322" data-name="Trazado 109322" d="M722.669,564.654l-14.221-5.34a7.6,7.6,0,0,1,14.221,5.34Z" fill="#b5bfc7"/>
              <path id="Trazado_109323" data-name="Trazado 109323" d="M687.222,567.868a7.6,7.6,0,1,1,10.686-1.081A7.595,7.595,0,0,1,687.222,567.868Z" fill="#d4d5d9"/>
              <path id="Trazado_109324" data-name="Trazado 109324" d="M697.908,566.787l-11.767-9.606a7.6,7.6,0,0,1,11.767,9.606Z" fill="#b5bfc7"/>
              <circle id="Elipse_5346" data-name="Elipse 5346" cx="7.595" cy="7.595" r="7.595" transform="translate(706.207 603.032) rotate(-15.53)" fill="#d4d5d9"/>
              <path id="Trazado_109325" data-name="Trazado 109325" d="M722.669,611.5l-14.221-5.339a7.6,7.6,0,1,1,14.221,5.339Z" fill="#b5bfc7"/>
              <path id="Trazado_109326" data-name="Trazado 109326" d="M687.222,614.2a7.6,7.6,0,1,1,10.686-1.081A7.595,7.595,0,0,1,687.222,614.2Z" fill="#d4d5d9"/>
              <path id="Trazado_109327" data-name="Trazado 109327" d="M697.908,613.636l-11.767-9.607a7.6,7.6,0,1,1,11.767,9.607Z" fill="#b5bfc7"/>
              <g id="Grupo_60604" data-name="Grupo 60604">
                <path id="Trazado_109328" data-name="Trazado 109328" d="M718.811,592.876a7.6,7.6,0,1,1,3.611-10.116A7.595,7.595,0,0,1,718.811,592.876Z" fill="#d4d5d9"/>
                <path id="Trazado_109329" data-name="Trazado 109329" d="M722.422,582.76,708.7,589.265a7.6,7.6,0,1,1,13.727-6.505Z" fill="#b5bfc7"/>
              </g>
              <path id="Trazado_109330" data-name="Trazado 109330" d="M684.973,583.19a7.6,7.6,0,1,1,4.229,9.874A7.6,7.6,0,0,1,684.973,583.19Z" fill="#d4d5d9"/>
              <path id="Trazado_109331" data-name="Trazado 109331" d="M689.2,593.064l5.645-14.1a7.6,7.6,0,0,1-5.645,14.1Z" fill="#b5bfc7"/>
            </g>
          </g>
          <path id="Trazado_109332" data-name="Trazado 109332" d="M729.353,561.115V615.53a6.481,6.481,0,0,1-6.385,6.537h-34.01a6.182,6.182,0,0,1-2.563-.554V568.648a7.6,7.6,0,0,1,2.34-5.5,7.4,7.4,0,0,1,1.8-1.271,7.145,7.145,0,0,1,3.221-.766Z" fill="#b5bfc7" opacity="0.5"/>
        </g>
        <g id="Grupo_60610" data-name="Grupo 60610">
          <g id="Grupo_60609" data-name="Grupo 60609">
            <rect id="Rectángulo_6697" data-name="Rectángulo 6697" width="76.487" height="51.123" rx="6.978" transform="translate(738.732 561.466) rotate(90)" fill="#e8e8e8"/>
            <path id="Trazado_109333" data-name="Trazado 109333" d="M722.268,584.982a7.6,7.6,0,1,1,9.78-4.441A7.6,7.6,0,0,1,722.268,584.982Z" fill="#d4d5d9"/>
            <path id="Trazado_109334" data-name="Trazado 109334" d="M732.048,580.541l-14.221-5.34a7.6,7.6,0,0,1,14.221,5.34Z" fill="#b5bfc7"/>
            <path id="Trazado_109335" data-name="Trazado 109335" d="M696.6,583.755a7.6,7.6,0,1,1,10.687-1.08A7.595,7.595,0,0,1,696.6,583.755Z" fill="#d4d5d9"/>
            <path id="Trazado_109336" data-name="Trazado 109336" d="M707.288,582.675l-11.768-9.607a7.6,7.6,0,0,1,11.768,9.607Z" fill="#b5bfc7"/>
            <path id="Trazado_109337" data-name="Trazado 109337" d="M722.268,631.314a7.6,7.6,0,1,1,9.78-4.441A7.594,7.594,0,0,1,722.268,631.314Z" fill="#d4d5d9"/>
            <path id="Trazado_109338" data-name="Trazado 109338" d="M732.048,627.39l-14.221-5.34a7.6,7.6,0,1,1,14.221,5.34Z" fill="#b5bfc7"/>
            <path id="Trazado_109339" data-name="Trazado 109339" d="M696.6,630.087a7.595,7.595,0,1,1,10.687-1.08A7.595,7.595,0,0,1,696.6,630.087Z" fill="#d4d5d9"/>
            <path id="Trazado_109340" data-name="Trazado 109340" d="M707.288,629.523l-11.768-9.606a7.6,7.6,0,0,1,11.768,9.606Z" fill="#b5bfc7"/>
            <g id="Grupo_60608" data-name="Grupo 60608">
              <path id="Trazado_109341" data-name="Trazado 109341" d="M728.191,608.763a7.595,7.595,0,1,1,3.61-10.116A7.6,7.6,0,0,1,728.191,608.763Z" fill="#d4d5d9"/>
              <path id="Trazado_109342" data-name="Trazado 109342" d="M731.8,598.647l-13.727,6.506a7.6,7.6,0,0,1,13.727-6.506Z" fill="#b5bfc7"/>
            </g>
            <path id="Trazado_109343" data-name="Trazado 109343" d="M694.353,599.078a7.595,7.595,0,1,1,4.229,9.873A7.593,7.593,0,0,1,694.353,599.078Z" fill="#d4d5d9"/>
            <path id="Trazado_109344" data-name="Trazado 109344" d="M698.582,608.951l5.644-14.1a7.595,7.595,0,1,1-5.644,14.1Z" fill="#b5bfc7"/>
          </g>
        </g>
        <g id="Grupo_60611" data-name="Grupo 60611">
          <rect id="Rectángulo_6698" data-name="Rectángulo 6698" width="58.376" height="87.119" transform="translate(674.604 586.409)" fill="#046fb6"/>
          <rect id="Rectángulo_6699" data-name="Rectángulo 6699" width="58.376" height="87.119" transform="translate(682.735 586.409)" fill="#203a71"/>
          <path id="Trazado_109345" data-name="Trazado 109345" d="M677.748,593.273h-8.131l4.986-6.863h8.131Z" fill="#006498"/>
          <path id="Trazado_109346" data-name="Trazado 109346" d="M745.234,593.273H686.858l-4.124-6.863H741.11Z" fill="#046fb6"/>
        </g>
      </g>
      <g id="Grupo_60617" data-name="Grupo 60617">
        <g id="Grupo_60613" data-name="Grupo 60613">
          <path id="Trazado_109347" data-name="Trazado 109347" d="M757.627,566.46a1.449,1.449,0,0,0-.367-.69,3.929,3.929,0,0,1-.44-1.223c-.018-.548-.632-.763-.883-.306a1.107,1.107,0,0,0-.132.51,14.035,14.035,0,0,0-4.817-1.008s-1.79-.2-.63,1.32c.776,1.014,1.447,1.02,2.563,2.432s2.793,2.191,4.068,1.819l1.49.178.969-2.376Z" fill="#f8bc96"/>
          <path id="Trazado_109348" data-name="Trazado 109348" d="M805.648,550.726s-1.468,16.159-22.374,22.981c-5.645,1.842-26.757-3.814-26.757-3.814s.12-2.781,1.834-3.479c0,0,19.778-1.215,21.443-.4,1.477.724,14.106-12.279,18.187-14.373A10.7,10.7,0,0,1,805.648,550.726Z" fill="#bc574b"/>
        </g>
        <path id="Trazado_109349" data-name="Trazado 109349" d="M831.452,661.923s2.5,2.284,2.015,3.906-2.747,2.705-3.052,4.688-1.526,3.065-2.625,3.065h-5.238s-.808-1.395,1.145-1.816,2.689-2.751,2.567-4.915a38.163,38.163,0,0,1,.183-5.048l4.151-.962Z" fill="#14202e"/>
        <path id="Trazado_109350" data-name="Trazado 109350" d="M831.453,660.491c-.458,1.353-5.495,3.336-5.495,3.336s-2.745-4.327-11.535-19.834c-.757-1.336-1.548-2.8-2.362-4.362-8.631-16.582-19.794-44.138-19.794-44.138l21.333-5.948s1.006,8.563,1.189,12.891c.112,2.644,1.616,8.294,3.527,13.229a31.263,31.263,0,0,0,3.889,7.594C828.091,630.558,831.453,660.491,831.453,660.491Z" fill="#364153"/>
        <path id="Trazado_109351" data-name="Trazado 109351" d="M818.316,615.665c-1.342,6.8-3.8,18.19-6.255,23.966-8.631-16.582-19.794-44.138-19.794-44.138l21.333-5.948s1.006,8.563,1.189,12.891C814.9,605.08,816.405,610.73,818.316,615.665Z" fill="#14202e"/>
        <path id="Trazado_109352" data-name="Trazado 109352" d="M800.751,667.83s.449,5.2-.649,5.738l-14.061-.029s0-1.622,2.259-1.983,6.226-1.683,6.9-4.628S800.751,667.83,800.751,667.83Z" fill="#14202e"/>
        <path id="Trazado_109353" data-name="Trazado 109353" d="M788.88,594.412s.742,9.11,1.614,20.061c1.184,14.877,2.609,33.15,2.75,36.612.244,6.011,1.221,15.626,1.221,15.626s2.318,2.285,6.958,1.322a155.147,155.147,0,0,0,5.316-28.249c.018-.238.037-.478.055-.718,1.1-14.784,2.807-45.916,2.807-45.916Z" fill="#364153"/>
        <path id="Trazado_109354" data-name="Trazado 109354" d="M808.288,545.108s-13.069,3.983-11.531,2.03c-.2-1.167-.784-4.3-.873-5.155a28.042,28.042,0,0,1-.246-3.1l3.889-3.059,3.688-2.927A14.859,14.859,0,0,0,808.288,545.108Z" fill="#e6b7b1"/>
        <path id="Trazado_109355" data-name="Trazado 109355" d="M820.1,602.259c-10.6,6.187-32.034,4.42-32.2,4.3-.356-3.937-.558-10.43-.67-16.439-.138-7.465-.14-14.181-.129-14.323,0,0,.007-.226.017-.608.035-1.213.121-3.994.213-6.066.016-.388.033-.748.051-1.071,0-.018,0-.035,0-.053a40.077,40.077,0,0,1,1.652-6.316c1.359-4.25,3.291-9.377,4.774-11.761.761-1.224,3.318-4.766,3.318-4.766,1.806.308,3.107-.152,5.012-.955,2.086-.869,4.332-1.807,4.693-1.569,2.728,1.723,4.573,5.6,5.556,10.543C812.953,556.025,820.622,601.953,820.1,602.259Z" fill="#ef8174"/>
        <path id="Trazado_109356" data-name="Trazado 109356" d="M803.282,536.041s-2.548,4.643-7.4,5.942a28.042,28.042,0,0,1-.246-3.1l3.889-3.059Z" fill="#eb6342" opacity="0.22"/>
        <path id="Trazado_109357" data-name="Trazado 109357" d="M793.865,538.746s9.616,1.573,10.519-4.339,2.751-9.69-3.35-10.944-7.642.824-8.431,2.725S791.386,538.184,793.865,538.746Z" fill="#e6b7b1"/>
        <path id="Trazado_109358" data-name="Trazado 109358" d="M807.878,522.755c.088-.1.289-.181.737-.205a1.817,1.817,0,0,0-.837-.236,2.254,2.254,0,0,0-1.5-1.994,1.342,1.342,0,0,1,.652.969c-1.242-1.275-3.9-2.2-11.273-1.622-9.713.767-6.512,6.985-5.254,7.727s4.422-1.291,6.765-1.106,2.788,3.572,3.583,4.036.482-.357,1.557-.843,1.178,1.3.868,2.455,1.167,2.686,1.167,2.686l1.492-1.608c1.494-1.608,2.9-8.418,2.222-9.87C808,523.015,807.94,522.885,807.878,522.755Z" fill="#14202e"/>
        <path id="Trazado_109359" data-name="Trazado 109359" d="M787.233,597.6c-.138-8.64-.14-16.414-.129-16.578,0,0,.007-.262.017-.7,8.315-10.29,19.026-20.977,19.026-20.977S808.468,589.529,787.233,597.6Z" fill="#bc574b"/>
        <path id="Trazado_109360" data-name="Trazado 109360" d="M798.513,557.587c-.114.185-2.747,15.731-9.505,15.9a5.332,5.332,0,0,1-1.676-.191c.016-.449.033-.866.051-1.24,0-.021,0-.04,0-.061a52.327,52.327,0,0,1,1.652-7.311C791.8,564.121,795.036,561.587,798.513,557.587Z" fill="#bc574b"/>
        <path id="Trazado_109361" data-name="Trazado 109361" d="M806.86,542.639s-.8-2.33-1.455-2.593a17.828,17.828,0,0,0-12.109,12.13S796.83,546.018,806.86,542.639Z" fill="#bc574b"/>
        <g id="Grupo_60615" data-name="Grupo 60615">
          <g id="Grupo_60614" data-name="Grupo 60614">
            <path id="Trazado_109362" data-name="Trazado 109362" d="M788.705,617.752l-18.08,2.514-9.564,1.331a6.834,6.834,0,0,1-7.687-5.812l-9.292-66.811a6.831,6.831,0,0,1,5.809-7.687l8.482-1.18,19.163-2.666a6.834,6.834,0,0,1,7.687,5.811l9.293,66.811A6.835,6.835,0,0,1,788.705,617.752Z" fill="#d4d5d9"/>
            <path id="Trazado_109363" data-name="Trazado 109363" d="M789.9,598.277l-.969-3.45h0l-.971-3.45a3.336,3.336,0,0,0-4.1-2.3,2.963,2.963,0,0,0-.285.1,3.294,3.294,0,0,0,.35-1.636,3.324,3.324,0,0,0,5.958-2.9l-1.307-3.337h0l-1.307-3.337a3.327,3.327,0,0,0-6.2,2.427l1.97,5.027a1.742,1.742,0,0,1-2.356-2.553,18.215,18.215,0,0,0-2.091-5.337l-6.1-3.76a3.326,3.326,0,0,0-3.821,5.429,3.292,3.292,0,0,0-.862.235l-3.294,1.414h0l-3.292,1.414a3.332,3.332,0,0,0-1.994,2.725l-.479-.811h0l-1.825-3.084a3.327,3.327,0,0,0-5.726,3.388l1.825,3.083h0l1.169,1.977a3.334,3.334,0,0,0-1.678,3.183l.315,3.57h0l.315,3.57a3.337,3.337,0,0,0,3.6,3.021,3.27,3.27,0,0,0,1.093-.294,3.351,3.351,0,0,0,.049,2.263,3.3,3.3,0,0,0-1.176,1.781l-.9,3.469h0l-.9,3.47a12.045,12.045,0,0,1,7.161,3.906,3.334,3.334,0,0,0,4.533-1.257l1.764-3.119h0l1.765-3.12a2.17,2.17,0,0,1,2.529-2.2l.511-.469-.64,1.132h0l-1.764,3.118a3.326,3.326,0,1,0,5.79,3.276l1.765-3.118h0l1.764-3.12c.023-.04.041-.082.062-.123a3.314,3.314,0,0,0,.735.655l-.629,1.111a3.327,3.327,0,0,0,5.791,3.276l3.529-6.239a3.316,3.316,0,0,0-2.106-4.866c.04-.009.079-.016.119-.027A3.334,3.334,0,0,0,789.9,598.277Zm-30.127.995-.108-1.218a3.284,3.284,0,0,0,.956.817,3.178,3.178,0,0,0,.437.2l-1.364,1.251A3.293,3.293,0,0,0,759.772,599.272Zm21.783-6.094,1.3,4.638a1.955,1.955,0,1,1-2.887-2.263l1.514-2.678C781.505,592.976,781.527,593.077,781.555,593.178Zm-9.274-11.73.926.57-.773.709A3.285,3.285,0,0,0,772.281,581.448Zm2.172,10.348a.9.9,0,0,1-.12-1.783l2.346-2.152Zm3.015,5.864a3.349,3.349,0,0,0-2.588-.4l-.054-.9a1.708,1.708,0,1,1,2.642,1.3Zm-8.376-11.544a3.333,3.333,0,0,0,.541,3.694c.017.019.036.035.054.054a3.311,3.311,0,0,0-.629.445,3.352,3.352,0,0,0-.07-1.459,3.318,3.318,0,0,0-1.563-2.008l-.011-.005Zm-2.175,8.379,1.039-1.837c0,.1,0,.211,0,.318l.184,3.081a3.328,3.328,0,0,0-1.786-.572l.56-.99Zm-4.008,14.755.248-.955a3.3,3.3,0,0,0-.122-2.026c.069-.054.139-.108.205-.169l5.282-4.845c.033-.031.063-.065.1-.1a3.365,3.365,0,0,0,.5.85l-.941.862a5.029,5.029,0,0,1-3.823,3.831Zm14.936-6.223.289.737a3.283,3.283,0,0,0-.949-.131Zm7.066-.2-.4-1.026h0l-.076-.2a3.361,3.361,0,0,0,1.484.8A3.35,3.35,0,0,0,784.911,602.827Zm-22.322-14.192-1.463,2.585h0l-1.764,3.118c-.008.014-.014.029-.022.044l-.2-2.25c-.005-.058-.016-.114-.024-.171.1-.045.193-.095.287-.15a2.281,2.281,0,0,1,3.184-3.176Z" fill="#657283"/>
            <path id="Trazado_109364" data-name="Trazado 109364" d="M784.277,539.713,758.6,543.284l-14.575,2.026a1.326,1.326,0,0,1-1.494-1.13l-.875-6.291a1.328,1.328,0,0,1,1.13-1.495l14.553-2.024h0l25.7-3.575a1.328,1.328,0,0,1,1.494,1.13l.876,6.292A1.33,1.33,0,0,1,784.277,539.713Z" fill="#4397d3"/>
          </g>
        </g>
        <g id="Grupo_60616" data-name="Grupo 60616">
          <path id="Trazado_109365" data-name="Trazado 109365" d="M767.026,578.747a1.454,1.454,0,0,0-.543-.563,3.967,3.967,0,0,1-.76-1.054c-.168-.522-.818-.559-.933-.051a1.1,1.1,0,0,0,.014.526,14.068,14.068,0,0,0-4.908.358s-1.776.3-.242,1.442c1.024.761,1.671.583,3.133,1.633s3.288,1.337,4.412.628l1.482-.239.276-2.551Z" fill="#f8bc96"/>
          <path id="Trazado_109366" data-name="Trazado 109366" d="M808.858,550.4s3.038,15.938-15.181,28.254c-4.919,3.325-26.773,3.7-26.773,3.7s-.65-2.706.8-3.849c0,0,18.679-6.614,20.505-6.288,1.619.289,10.179-15.688,13.525-18.826A10.707,10.707,0,0,1,808.858,550.4Z" fill="#ef8174"/>
        </g>
      </g>
      <g id="Grupo_60622" data-name="Grupo 60622">
        <g id="Grupo_60621" data-name="Grupo 60621">
          <path id="Trazado_109367" data-name="Trazado 109367" d="M643.7,592.122a4.553,4.553,0,0,0-8.208-1.088,4.134,4.134,0,0,0-.615,2.07c-.111,4.354,8.475,21.205,9.615,22.7,2.075,2.714,14.6,9.24,14.6,9.24l2.661-.388a19.71,19.71,0,0,1-3.062-2.5c-3.218-3.212-7.909-8.435-8.769-9.158C648.448,611.751,645.9,599.172,643.7,592.122Z" fill="#eb6342"/>
          <g id="Grupo_60620" data-name="Grupo 60620">
            <g id="Grupo_60619" data-name="Grupo 60619">
              <rect id="Rectángulo_6700" data-name="Rectángulo 6700" width="69.999" height="46.786" rx="6.386" transform="translate(654.611 626.477)" fill="#e8e8e8"/>
              <path id="Trazado_109368" data-name="Trazado 109368" d="M676.132,641.545a6.951,6.951,0,1,1-4.064-8.951A6.951,6.951,0,0,1,676.132,641.545Z" fill="#d4d5d9"/>
              <path id="Trazado_109369" data-name="Trazado 109369" d="M672.068,632.594l-4.887,13.015a6.951,6.951,0,1,1,4.887-13.015Z" fill="#b5bfc7"/>
              <circle id="Elipse_5347" data-name="Elipse 5347" cx="6.951" cy="6.951" r="6.951" transform="translate(659.838 661.568) rotate(-50.428)" fill="#d4d5d9"/>
              <path id="Trazado_109370" data-name="Trazado 109370" d="M674.02,655.254l-8.791,10.769a6.951,6.951,0,1,1,8.791-10.769Z" fill="#b5bfc7"/>
              <path id="Trazado_109371" data-name="Trazado 109371" d="M718.533,641.545a6.951,6.951,0,1,1-4.064-8.951A6.95,6.95,0,0,1,718.533,641.545Z" fill="#d4d5d9"/>
              <path id="Trazado_109372" data-name="Trazado 109372" d="M714.471,632.594l-4.887,13.015a6.951,6.951,0,0,1,4.887-13.015Z" fill="#b5bfc7"/>
              <path id="Trazado_109373" data-name="Trazado 109373" d="M717.41,665.034a6.946,6.946,0,0,1-9.468,1.226c-.106-.074-.209-.154-.312-.237a6.951,6.951,0,0,1,8.791-10.769c.1.084.2.167.3.255A6.95,6.95,0,0,1,717.41,665.034Z" fill="#d4d5d9"/>
              <path id="Trazado_109374" data-name="Trazado 109374" d="M716.717,655.509l-8.775,10.751c-.106-.074-.209-.154-.312-.237a6.951,6.951,0,0,1,8.791-10.769C716.523,655.338,716.621,655.421,716.717,655.509Z" fill="#b5bfc7"/>
              <g id="Grupo_60618" data-name="Grupo 60618">
                <path id="Trazado_109375" data-name="Trazado 109375" d="M697.9,636.124a6.951,6.951,0,1,1-9.258-3.3A6.95,6.95,0,0,1,697.9,636.124Z" fill="#d4d5d9"/>
                <path id="Trazado_109376" data-name="Trazado 109376" d="M688.638,632.82l5.953,12.562a6.951,6.951,0,1,1-5.953-12.562Z" fill="#b5bfc7"/>
              </g>
              <path id="Trazado_109377" data-name="Trazado 109377" d="M689.032,667.092a6.951,6.951,0,1,1,9.036-3.87A6.95,6.95,0,0,1,689.032,667.092Z" fill="#d4d5d9"/>
              <path id="Trazado_109378" data-name="Trazado 109378" d="M698.068,663.222l-12.907-5.166a6.951,6.951,0,0,1,12.907,5.166Z" fill="#b5bfc7"/>
            </g>
          </g>
          <path id="Trazado_109379" data-name="Trazado 109379" d="M647.336,570.822c.07-.279-6.075,2.777-6.387,3.123-2.882,3.2-2.06,7.368-.411,7.408,1.058.026.853,1.784.853,1.784l11.781-4.984S651.754,569.881,647.336,570.822Z" fill="#14202e"/>
          <path id="Trazado_109380" data-name="Trazado 109380" d="M648.787,571.467s.421-4.589-4.707-4.589a6.013,6.013,0,0,1,2.357,1.264,6.064,6.064,0,0,0-6.83,1.031c-3.559,2.95-1.347,10.35-2.43,11.755s-5.3,1.686-4.782,6.228,13.377,10.233,12.551,13.992c0,0,5.041-7.41,1.437-10.791a6.677,6.677,0,0,1,1.935,3.622s.477-3.841-1.967-5.069c-2.162-1.087-3.934-5.063-3.746-5.773S648.787,571.467,648.787,571.467Z" fill="#14202e"/>
          <path id="Trazado_109381" data-name="Trazado 109381" d="M634.383,670.707l-2.55-.375a30.141,30.141,0,0,1-9.849-19.524c-.13-1.293-1.11-5.842-2.034-7.34-.912-1.476-2.471-4.268-4.187-7.4-3.091-5.64-6.69-12.386-7.924-14.535-3.933-6.848-2.038-11.453-2.038-11.453s10.972-1.084,13.979-3.714l1.083,1.669s2.377,10.524,2.265,10.573l.357,1.093a182.9,182.9,0,0,1,5.21,18.922c.662,3.317.838,9.889,1.017,11.17C630.775,657.346,634.383,670.707,634.383,670.707Z" fill="#364153"/>
          <path id="Trazado_109382" data-name="Trazado 109382" d="M639.731,673.932H629.094a5.84,5.84,0,0,1,.3-2.85c.533-1.181,1.292-1.218.1-3.068.676.7,2.849.984,4.387.777a13.03,13.03,0,0,0,1.844,2.807C636.417,672.1,639.517,671.919,639.731,673.932Z" fill="#14202e"/>
          <path id="Trazado_109383" data-name="Trazado 109383" d="M615.763,636.068c-3.091-5.64-6.69-12.386-7.924-14.535-3.933-6.848-2.038-11.453-2.038-11.453s5.319-1.755,8.325-4.385C614.126,605.7,616.583,627.1,615.763,636.068Z" fill="#14202e"/>
          <path id="Trazado_109384" data-name="Trazado 109384" d="M616.025,610.872l.036-1.99c-3.964.5-13.667-4.736-13.667-4.736s-4.147,2.758-4.714,10.634c-.278,3.845-2.03,20.1-2.224,24.958-.071,1.759-1.8,6.078-2.418,7.223-6.048,11.253-2.885,26.544-2.885,26.544l1.4-.357s5.114-15.851,8.457-22.708c.567-1.162,4.1-6.709,5.4-9.829a189.1,189.1,0,0,0,6.576-19.707C612.112,620.926,616.025,610.872,616.025,610.872Z" fill="#364153"/>
          <path id="Trazado_109385" data-name="Trazado 109385" d="M639.22,597.594c-6.48-1.487-2.34-10.592-1.965-10.432.9-.183,2.87-1.759,4.634-4.838l.238.207,3.98,3.489s-.92,1.357-1.694,2.686a6.064,6.064,0,0,0-1.037,2.418C643.7,591.376,640.948,597.991,639.22,597.594Z" fill="#ee7859"/>
          <path id="Trazado_109386" data-name="Trazado 109386" d="M643.311,590.831a32.669,32.669,0,0,1,1.747,4.2c.608,1.948,2.129,8.142,2.129,8.142s-3.137,3.579-7.5,3.37c0,0-2.346-3.672-1.519-6.989S643.311,590.831,643.311,590.831Z" fill="#b42718"/>
          <path id="Trazado_109387" data-name="Trazado 109387" d="M646.107,586.021s-.921,1.355-1.694,2.686c-2.475-1.525-2.477-4.588-2.287-6.175Z" fill="#eb6342"/>
          <path id="Trazado_109388" data-name="Trazado 109388" d="M646.217,587.769s-6.008-3.344-3.869-7.053,2.8-6.639,6.732-4.661,3.848,3.819,3.435,5.231S647.835,588.542,646.217,587.769Z" fill="#ee7859"/>
          <path id="Trazado_109389" data-name="Trazado 109389" d="M653.53,579.122c-.275-1.647-1.111-1.8-1.7-1.694a4.8,4.8,0,0,0-5.843-2.237,8.183,8.183,0,0,1-4.736,2.844s.7,1.3,3.57,2.1a4.915,4.915,0,0,0,2.834-.226,16.025,16.025,0,0,1-4.077,1.536c3.785.347,7.387-3.114,7.76-3.484a5.387,5.387,0,0,1,.3,2.48c-.249,1.115-1.24,3.136-.635,3.4C651.006,583.838,653.943,581.592,653.53,579.122Z" fill="#14202e"/>
          <path id="Trazado_109390" data-name="Trazado 109390" d="M598.611,673.932H587.974a5.833,5.833,0,0,1,.3-2.85c.532-1.181,1.366-1.717,1.167-3.145a3.828,3.828,0,0,0,3.315,1.268A11.646,11.646,0,0,0,594.6,671.6C595.3,672.1,598.4,671.919,598.611,673.932Z" fill="#14202e"/>
          <path id="Trazado_109391" data-name="Trazado 109391" d="M639.982,604.813a25.872,25.872,0,0,1-5.254.952c-2.8.306-5.685.514-7.2,1.118a9.592,9.592,0,0,0-2.018,1.1h0a.576.576,0,0,0-.059.045,6.4,6.4,0,0,0-.834.72,4.559,4.559,0,0,0-.976,1.448c-.555,1.37.18,5.17.651,7.247a1.889,1.889,0,0,1-.966,2.094q-1.6.824-3.136,1.522l-.162.073c.01-.212.013-.421.013-.626a19.264,19.264,0,0,0-.18-2.625,10.991,10.991,0,0,1-2.093,4.21c-14.275,5.728-24.248,3.238-24.084.385.563-9.907,7.243-18.333,7.243-18.333,12.46-14.489,37.664-18.3,37.664-18.3s1.207-.145,2.663,1.605c2.095,2.521,2.2,3.179,2.2,3.179S644.01,603.408,639.982,604.813Z" fill="#bc3e35"/>
          <path id="Trazado_109392" data-name="Trazado 109392" d="M634.727,605.765c-2.8.3-5.684.514-7.2,1.118a29.5,29.5,0,0,1,3.741-16.186S634.115,602.27,634.727,605.765Z" fill="#832018"/>
          <path id="Trazado_109393" data-name="Trazado 109393" d="M637.665,588.91s-7.01.692-7.572,5.247,6.721,23.107,7.764,24.787c1.9,3.058,13.079,13.541,13.079,13.541l2.06-1.249s-7.93-13.425-9.158-14.682C641.91,614.582,640.038,590.488,637.665,588.91Z" fill="#ee7859"/>
          <path id="Trazado_109394" data-name="Trazado 109394" d="M641.256,597.611s.72-11.743-8.268-8.9,1.4,23.039,1.4,23.039,5.275-.26,7.146-4.863Z" fill="#b42718"/>
          <path id="Trazado_109395" data-name="Trazado 109395" d="M624.295,617.446a1.889,1.889,0,0,1-.966,2.094q-1.6.824-3.136,1.522c-.055-.175-.1-.358-.149-.553a9.674,9.674,0,0,1-.18-2.625c.238-4.386,3.225-7.707,4.756-9.133a4.559,4.559,0,0,0-.976,1.448C623.089,611.569,623.824,615.369,624.295,617.446Z" fill="#832018"/>
          <path id="Trazado_109396" data-name="Trazado 109396" d="M638.594,585.842s1.1-1.387,1.839-1.342c0,0,3,4.2,3.023,6.126C643.456,590.626,639.715,585.647,638.594,585.842Z" fill="#b42718"/>
          <path id="Trazado_109397" data-name="Trazado 109397" d="M667.37,626.476s-1.595.029-1.939-.021a10.375,10.375,0,0,0-1.244-.211,5.28,5.28,0,0,0-1.276.214.934.934,0,0,1-.19.018h-2.645a1.569,1.569,0,0,1-.556-.594c-.125-.2-.143-.683-.428-.842-1.6-.894,2.661-.388,2.661-.388a16.441,16.441,0,0,1,2.924.136A29.392,29.392,0,0,1,667.37,626.476Z" fill="#eb6342"/>
          <path id="Trazado_109398" data-name="Trazado 109398" d="M660.076,626.477a12.283,12.283,0,0,1,2.065.77l.466.294s.27-.3-.155-.635a2.043,2.043,0,0,1-.863-1.284C661.569,625.03,659.736,625.547,660.076,626.477Z" fill="#eb6342"/>
          <path id="Trazado_109399" data-name="Trazado 109399" d="M653,631.236a6.5,6.5,0,0,0,2.044,1.249c.882.218,1.885,2.746,2.046,3.107s-.843-.161-1.244-.776-.675-.856-.792-.722a4.711,4.711,0,0,0,.739,2.755c.668.936,1.069,1.765.588,1.712s-3.344-.749-3.932-2.488-.157-1.8-1.509-3.588S653,631.236,653,631.236Z" fill="#ee7859"/>
        </g>
      </g>
      <g id="Grupo_60625" data-name="Grupo 60625">
        <g id="Grupo_60623" data-name="Grupo 60623">
          <path id="Trazado_109400" data-name="Trazado 109400" d="M685.566,669.53a4.012,4.012,0,0,1-4,4H662.693a4,4,0,0,1,0-7.993h18.875A4.009,4.009,0,0,1,685.566,669.53Z" fill="#14202e"/>
          <path id="Trazado_109401" data-name="Trazado 109401" d="M675.828,669.53a4.008,4.008,0,0,1-4,4h-9.139a4,4,0,0,1,0-7.993h9.139A4.007,4.007,0,0,1,675.828,669.53Z" fill="#364153"/>
          <path id="Rectángulo_6701" data-name="Rectángulo 6701" d="M.566,0h18a.566.566,0,0,1,.566.566V.694a.567.567,0,0,1-.567.567h-18A.566.566,0,0,1,0,.694V.566A.566.566,0,0,1,.566,0Z" transform="translate(663.317 666.42)" fill="#e6f2fc" opacity="0.4"/>
        </g>
        <g id="Grupo_60624" data-name="Grupo 60624">
          <path id="Trazado_109402" data-name="Trazado 109402" d="M669.459,658.208a4.253,4.253,0,0,1-1.89,5.688l-17.891,8.965a4.237,4.237,0,0,1-3.8-7.576l17.891-8.965A4.25,4.25,0,0,1,669.459,658.208Z" fill="#046fb6"/>
          <path id="Trazado_109403" data-name="Trazado 109403" d="M660.23,662.833a4.251,4.251,0,0,1-1.889,5.687l-8.663,4.341a4.237,4.237,0,0,1-3.8-7.576l8.663-4.341A4.249,4.249,0,0,1,660.23,662.833Z" fill="#4397d3"/>
          <path id="Rectángulo_6702" data-name="Rectángulo 6702" d="M.6,0H19.688a.6.6,0,0,1,.6.6V.736a.6.6,0,0,1-.6.6H.6a.6.6,0,0,1-.6-.6V.6A.6.6,0,0,1,.6,0Z" transform="translate(646.894 665.828) rotate(-26.617)" fill="#fcdeca" opacity="0.5"/>
        </g>
      </g>
    </g>
  </g>
</svg>
