<svg xmlns="http://www.w3.org/2000/svg" xmlns:xlink="http://www.w3.org/1999/xlink" width="190.228" height="155.922" viewBox="0 0 190.228 155.922">
  <defs>
    <linearGradient id="linear-gradient" x1="0.037" y1="0.968" x2="1.103" y2="0.023" gradientUnits="objectBoundingBox">
      <stop offset="0" stop-color="#d4d4d4"/>
      <stop offset="1" stop-color="#fff"/>
    </linearGradient>
    <linearGradient id="linear-gradient-2" x1="0.029" y1="0.973" x2="1.361" y2="-0.324" gradientUnits="objectBoundingBox">
      <stop offset="0" stop-color="#fff"/>
      <stop offset="1" stop-color="#fff"/>
    </linearGradient>
  </defs>
  <g id="Grupo_58751" data-name="Grupo 58751" transform="translate(-914.771 -1548.039)">
    <g id="Grupo_57022" data-name="Grupo 57022" transform="translate(1069.505 2811.564)">
      <rect id="Rectángulo_6318" data-name="Rectángulo 6318" width="189.819" height="155.923" rx="12" transform="translate(-154.324 -1263.525)" fill="url(#linear-gradient)"/>
      <rect id="Rectángulo_6319" data-name="Rectángulo 6319" width="175.106" height="141.21" rx="11.045" transform="translate(-146.968 -1256.169)" fill="url(#linear-gradient-2)"/>
    </g>
    <path id="Trazado_105025" data-name="Trazado 105025" d="M-16.743-3.3a1.545,1.545,0,0,0-.593-1.3,7.138,7.138,0,0,0-2.14-.923,10.335,10.335,0,0,1-2.461-1.037,3.284,3.284,0,0,1-1.749-2.865,3.118,3.118,0,0,1,1.261-2.549,5.1,5.1,0,0,1,3.274-1,5.53,5.53,0,0,1,2.382.492,3.909,3.909,0,0,1,1.644,1.4,3.6,3.6,0,0,1,.6,2.017h-2.215a1.981,1.981,0,0,0-.628-1.556,2.608,2.608,0,0,0-1.8-.562,2.717,2.717,0,0,0-1.692.464,1.542,1.542,0,0,0-.6,1.3,1.4,1.4,0,0,0,.65,1.169,7.509,7.509,0,0,0,2.145.91,9.821,9.821,0,0,1,2.4,1.009,3.816,3.816,0,0,1,1.327,1.3,3.388,3.388,0,0,1,.422,1.718A3.045,3.045,0,0,1-15.746-.769a5.318,5.318,0,0,1-3.327.945,6.251,6.251,0,0,1-2.553-.514,4.289,4.289,0,0,1-1.811-1.419,3.537,3.537,0,0,1-.646-2.109h2.224a2.07,2.07,0,0,0,.721,1.688,3.156,3.156,0,0,0,2.065.6,2.742,2.742,0,0,0,1.745-.47A1.517,1.517,0,0,0-16.743-3.3Zm3.568-1.547a5.607,5.607,0,0,1,.554-2.518,4.044,4.044,0,0,1,1.556-1.723,4.383,4.383,0,0,1,2.3-.6A4.154,4.154,0,0,1-5.638-8.446a4.874,4.874,0,0,1,1.3,3.287l.009.5a5.658,5.658,0,0,1-.541,2.514A4,4,0,0,1-6.42-.431,4.415,4.415,0,0,1-8.745.176a4.125,4.125,0,0,1-3.221-1.34,5.133,5.133,0,0,1-1.208-3.573Zm2.136.185a3.832,3.832,0,0,0,.606,2.3,1.971,1.971,0,0,0,1.688.831,1.95,1.95,0,0,0,1.683-.844,4.232,4.232,0,0,0,.6-2.47,3.782,3.782,0,0,0-.62-2.285,1.979,1.979,0,0,0-1.683-.844,1.96,1.96,0,0,0-1.661.831A4.152,4.152,0,0,0-11.039-4.658ZM1.38-1.529A1.931,1.931,0,0,0,2.707-2,1.591,1.591,0,0,0,3.27-3.146H5.282A3.137,3.137,0,0,1,4.729-1.49,3.632,3.632,0,0,1,3.322-.272,4.191,4.191,0,0,1,1.406.176,4.055,4.055,0,0,1-1.758-1.116,5.124,5.124,0,0,1-2.927-4.685V-4.9A5.039,5.039,0,0,1-1.767-8.38,4.018,4.018,0,0,1,1.4-9.686,3.907,3.907,0,0,1,4.162-8.7,3.542,3.542,0,0,1,5.282-6.1H3.27a1.956,1.956,0,0,0-.558-1.345A1.8,1.8,0,0,0,1.38-7.972a1.879,1.879,0,0,0-1.6.751A3.834,3.834,0,0,0-.791-4.939V-4.6A3.9,3.9,0,0,0-.233-2.29,1.878,1.878,0,0,0,1.38-1.529ZM9.167,0H7.031V-9.51H9.167ZM6.9-11.988a1.147,1.147,0,0,1,.312-.824A1.173,1.173,0,0,1,8.1-13.14a1.188,1.188,0,0,1,.9.328,1.138,1.138,0,0,1,.316.824A1.112,1.112,0,0,1,9-11.178a1.2,1.2,0,0,1-.9.323,1.182,1.182,0,0,1-.892-.323A1.12,1.12,0,0,1,6.9-11.988ZM17.174,0a3.3,3.3,0,0,1-.246-.888,3.325,3.325,0,0,1-2.5,1.063,3.355,3.355,0,0,1-2.338-.817,2.615,2.615,0,0,1-.905-2.021A2.7,2.7,0,0,1,12.318-5a5.473,5.473,0,0,1,3.23-.813h1.31v-.624a1.666,1.666,0,0,0-.413-1.182,1.638,1.638,0,0,0-1.257-.444,1.881,1.881,0,0,0-1.2.365,1.129,1.129,0,0,0-.466.927H11.391a2.37,2.37,0,0,1,.519-1.463A3.455,3.455,0,0,1,13.32-9.3a4.955,4.955,0,0,1,1.991-.387,3.99,3.99,0,0,1,2.663.839,2.993,2.993,0,0,1,1.02,2.36V-2.2a4.861,4.861,0,0,0,.36,2.048V0ZM14.827-1.538a2.429,2.429,0,0,0,1.191-.308,2.055,2.055,0,0,0,.839-.826V-4.465H15.706a3.148,3.148,0,0,0-1.784.413,1.338,1.338,0,0,0-.6,1.169,1.248,1.248,0,0,0,.409.98A1.583,1.583,0,0,0,14.827-1.538ZM23.5,0H21.366V-13.5H23.5Z" transform="translate(1009.681 1675.854)" fill="#686868"/>
    <g id="Grupo_57033" data-name="Grupo 57033" transform="translate(617.027 2811.564)">
      <path id="Trazado_102249" data-name="Trazado 102249" d="M303.415-1227.342a7.031,7.031,0,0,1,4.3-1.442,6.083,6.083,0,0,1,4.344,1.561,5.166,5.166,0,0,1,1.659,3.931,6.07,6.07,0,0,1-1.087,3.438,7.166,7.166,0,0,1-2.972,2.548,18.168,18.168,0,0,1-5.877,1.244v9.483c4.216.053,7.556.988,9.847,2.8a8.207,8.207,0,0,1,3.4,6.677,8.2,8.2,0,0,1-2.566,6.085,8.838,8.838,0,0,1-6.429,2.489,8.82,8.82,0,0,1-6.143-2.193,6.1,6.1,0,0,1-1.063-1.184v12.608a23.007,23.007,0,0,0,6.61.923q8.928,0,14.7-5.432a17.52,17.52,0,0,0,5.767-13.256,14.89,14.89,0,0,0-2.984-9.265,15.665,15.665,0,0,0-8.278-5.512,15.1,15.1,0,0,0,6.144-5.176,12.56,12.56,0,0,0,2.114-7.072,14.309,14.309,0,0,0-4.84-10.786,16.84,16.84,0,0,0-11.986-4.544,19.4,19.4,0,0,0-7.242,1.327v14.29A6.82,6.82,0,0,1,303.415-1227.342Z" fill="#f98473"/>
      <path id="Trazado_102250" data-name="Trazado 102250" d="M300.835-1223.8v-14.29a15.566,15.566,0,0,0-3.091,1.685v12.836h3.018A.512.512,0,0,0,300.835-1223.8Z" fill="#bd4b3a"/>
      <path id="Trazado_102251" data-name="Trazado 102251" d="M297.744-1191.948v11.36a16.566,16.566,0,0,0,3.091,1.3V-1191.9a.075.075,0,0,0-.044-.048Z" fill="#bd4b3a"/>
      <g id="Grupo_57032" data-name="Grupo 57032">
        <path id="Trazado_102252" data-name="Trazado 102252" d="M303.786-1206.579c.45.006.885.027,1.314.052v-9.671c-.423.052-.857.1-1.314.136Z" fill="#bd4b3a"/>
        <path id="Trazado_102253" data-name="Trazado 102253" d="M305.1-1188.934a8.194,8.194,0,0,1-3.2-1.782,6.1,6.1,0,0,1-1.063-1.184l-1.139,7.256,1.139,5.352a22.586,22.586,0,0,0,4.265.8Z" fill="#bd4b3a"/>
        <path id="Trazado_102254" data-name="Trazado 102254" d="M300.835-1223.8a6.82,6.82,0,0,1,2.58-3.547,7.363,7.363,0,0,1,1.685-.927v-10.918a18.808,18.808,0,0,0-4.265,1.1,54.987,54.987,0,0,0-.586,7.33A46.364,46.364,0,0,0,300.835-1223.8Z" fill="#bd4b3a"/>
      </g>
    </g>
    <rect id="Rectángulo_6327" data-name="Rectángulo 6327" width="48.945" height="1.512" transform="translate(985.208 1650.703)" fill="#f98473"/>
    <g id="Grupo_58748" data-name="Grupo 58748" transform="translate(-242.184 645.426)">
      <g id="Grupo_58451" data-name="Grupo 58451" transform="translate(1236.494 928.809)">
        <g id="Grupo_58450" data-name="Grupo 58450">
          <path id="Trazado_104662" data-name="Trazado 104662" d="M1283.155,981.949c0-2.229-.034-4.457.009-6.685a12.1,12.1,0,0,1,2.06-6.558,24.412,24.412,0,0,0,3.865-8.952,23.521,23.521,0,0,0-19.868-27.981,23.409,23.409,0,0,0-25.864,17.671,31.63,31.63,0,0,0-.665,6.029,21.211,21.211,0,0,1-1.665,7.759c-.841,1.951-1.653,3.914-2.48,5.872-.474,1.121-.469,1.128.669,1.437.894.244,1.789.485,2.677.752a3.086,3.086,0,0,1,2.334,2.636c.5,3.16,1.006,6.32,1.491,9.483a2.442,2.442,0,0,0,2.639,2.288q4.041.008,8.082,0a5.891,5.891,0,0,0,6.154-5.842,1.338,1.338,0,0,1,1.377-1.4,1.361,1.361,0,0,1,1.349,1.506c.013,4.053-3.342,8.016-7.364,8.319-3.361.252-6.75.14-10.127.146a4.2,4.2,0,0,1-1.556-.378,5.078,5.078,0,0,1-3.245-4.339c-.353-2.613-.932-5.2-1.184-7.82-.153-1.579-.815-2.293-2.318-2.449a9.075,9.075,0,0,1-1.627-.424,3.166,3.166,0,0,1-2.107-4.359c.952-2.327,1.954-4.635,2.919-6.957a16.562,16.562,0,0,0,1.244-6.507,26.174,26.174,0,0,1,51.714-5.931,25.551,25.551,0,0,1-3.729,20.194,12.538,12.538,0,0,0-2.13,7.185c.03,4.188.005,8.376,0,12.564,0,.968-.527,1.6-1.33,1.6a1.412,1.412,0,0,1-1.365-1.583c-.015-2.425-.005-4.85-.005-7.274Z" transform="translate(-1235.524 -928.808)" fill="#b94a39"/>
        </g>
      </g>
      <path id="Trazado_104663" data-name="Trazado 104663" d="M1241.425,985.046q-3.145,0-6.291,0a2.341,2.341,0,0,1-2.53-2.192c-.464-3.031-.95-6.06-1.429-9.089a2.956,2.956,0,0,0-2.237-2.527c-.851-.257-1.71-.487-2.566-.721-1.091-.3-1.095-.3-.641-1.378.791-1.876,1.57-3.758,2.376-5.628a20.338,20.338,0,0,0,1.6-7.437,30.3,30.3,0,0,1,.636-5.779,22.406,22.406,0,0,1,15.5-16.225,25.609,25.609,0,0,1,2.24-3.214c-.463.078-.926.166-1.39.271a25.105,25.105,0,0,0-19.613,24.685,15.9,15.9,0,0,1-1.193,6.236c-.924,2.226-1.885,4.438-2.8,6.668a3.034,3.034,0,0,0,2.02,4.178,8.785,8.785,0,0,0,1.56.406c1.439.15,2.075.834,2.221,2.347.242,2.512.8,4.991,1.135,7.5a4.867,4.867,0,0,0,3.11,4.159,4.03,4.03,0,0,0,1.491.361c2.855,0,5.718.065,8.564-.081A15.311,15.311,0,0,1,1241.425,985.046Z" transform="translate(0.48 0.079)" fill="#b94a39"/>
      <path id="Trazado_104664" data-name="Trazado 104664" d="M1227.31,985.093q-2.867,0-5.734,0a2.132,2.132,0,0,1-2.3-2c-.424-2.762-.866-5.523-1.3-8.283a2.7,2.7,0,0,0-2.038-2.3c-.776-.234-1.558-.443-2.34-.656-.993-.271-1-.277-.583-1.256.722-1.71,1.432-3.425,2.166-5.129a18.541,18.541,0,0,0,1.455-6.778,27.557,27.557,0,0,1,.579-5.265,20.416,20.416,0,0,1,14.126-14.786,23.522,23.522,0,0,1,2.042-2.93c-.422.071-.844.151-1.266.247a22.876,22.876,0,0,0-17.873,22.495,14.468,14.468,0,0,1-1.087,5.683c-.842,2.029-1.718,4.045-2.55,6.078a2.765,2.765,0,0,0,1.84,3.807,7.869,7.869,0,0,0,1.422.371c1.313.136,1.891.76,2.024,2.139.221,2.288.726,4.548,1.035,6.831a4.435,4.435,0,0,0,2.834,3.791,3.676,3.676,0,0,0,1.359.329c2.6,0,5.21.06,7.8-.074A13.848,13.848,0,0,1,1227.31,985.093Z" transform="translate(0 0.266)" fill="#b94a39"/>
    </g>
  </g>
</svg>
