<svg xmlns="http://www.w3.org/2000/svg" xmlns:xlink="http://www.w3.org/1999/xlink" width="190.229" height="155.961" viewBox="0 0 190.229 155.961">
  <defs>
    <linearGradient id="linear-gradient" x1="0.037" y1="0.968" x2="1.103" y2="0.023" gradientUnits="objectBoundingBox">
      <stop offset="0" stop-color="#d4d4d4"/>
      <stop offset="1" stop-color="#fff"/>
    </linearGradient>
    <linearGradient id="linear-gradient-2" x1="0.029" y1="0.973" x2="1.361" y2="-0.324" gradientUnits="objectBoundingBox">
      <stop offset="0" stop-color="#fff"/>
      <stop offset="1" stop-color="#fff"/>
    </linearGradient>
  </defs>
  <g id="Grupo_58757" data-name="Grupo 58757" transform="translate(5783.229 10151.961)">
    <g id="Grupo_58752" data-name="Grupo 58752" transform="translate(-6698 -11700)">
      <g id="Grupo_57022" data-name="Grupo 57022" transform="translate(1069.505 2811.564)">
        <rect id="Rectángulo_6318" data-name="Rectángulo 6318" width="189.819" height="155.923" rx="12" transform="translate(-154.324 -1263.525)" fill="url(#linear-gradient)"/>
        <rect id="Rectángulo_6319" data-name="Rectángulo 6319" width="175.106" height="141.21" rx="11.045" transform="translate(-146.968 -1256.169)" fill="url(#linear-gradient-2)"/>
      </g>
      <text id="Social" transform="translate(1009.681 1675.854)" fill="#686868" font-size="18" font-family="Roboto-Medium, Roboto" font-weight="500"><tspan x="-24.732" y="0">Social</tspan></text>
      <g id="Grupo_57033" data-name="Grupo 57033" transform="translate(617.027 2811.564)">
        <path id="Trazado_102249" data-name="Trazado 102249" d="M303.415-1227.342a7.031,7.031,0,0,1,4.3-1.442,6.083,6.083,0,0,1,4.344,1.561,5.166,5.166,0,0,1,1.659,3.931,6.07,6.07,0,0,1-1.087,3.438,7.166,7.166,0,0,1-2.972,2.548,18.168,18.168,0,0,1-5.877,1.244v9.483c4.216.053,7.556.988,9.847,2.8a8.207,8.207,0,0,1,3.4,6.677,8.2,8.2,0,0,1-2.566,6.085,8.838,8.838,0,0,1-6.429,2.489,8.82,8.82,0,0,1-6.143-2.193,6.1,6.1,0,0,1-1.063-1.184v12.608a23.007,23.007,0,0,0,6.61.923q8.928,0,14.7-5.432a17.52,17.52,0,0,0,5.767-13.256,14.89,14.89,0,0,0-2.984-9.265,15.665,15.665,0,0,0-8.278-5.512,15.1,15.1,0,0,0,6.144-5.176,12.56,12.56,0,0,0,2.114-7.072,14.309,14.309,0,0,0-4.84-10.786,16.84,16.84,0,0,0-11.986-4.544,19.4,19.4,0,0,0-7.242,1.327v14.29A6.82,6.82,0,0,1,303.415-1227.342Z" fill="#f98473"/>
        <path id="Trazado_102250" data-name="Trazado 102250" d="M300.835-1223.8v-14.29a15.566,15.566,0,0,0-3.091,1.685v12.836h3.018A.512.512,0,0,0,300.835-1223.8Z" fill="#bd4b3a"/>
        <path id="Trazado_102251" data-name="Trazado 102251" d="M297.744-1191.948v11.36a16.566,16.566,0,0,0,3.091,1.3V-1191.9a.075.075,0,0,0-.044-.048Z" fill="#bd4b3a"/>
        <g id="Grupo_57032" data-name="Grupo 57032">
          <path id="Trazado_102252" data-name="Trazado 102252" d="M303.786-1206.579c.45.006.885.027,1.314.052v-9.671c-.423.052-.857.1-1.314.136Z" fill="#bd4b3a"/>
          <path id="Trazado_102253" data-name="Trazado 102253" d="M305.1-1188.934a8.194,8.194,0,0,1-3.2-1.782,6.1,6.1,0,0,1-1.063-1.184l-1.139,7.256,1.139,5.352a22.586,22.586,0,0,0,4.265.8Z" fill="#bd4b3a"/>
          <path id="Trazado_102254" data-name="Trazado 102254" d="M300.835-1223.8a6.82,6.82,0,0,1,2.58-3.547,7.363,7.363,0,0,1,1.685-.927v-10.918a18.808,18.808,0,0,0-4.265,1.1,54.987,54.987,0,0,0-.586,7.33A46.364,46.364,0,0,0,300.835-1223.8Z" fill="#bd4b3a"/>
        </g>
      </g>
      <rect id="Rectángulo_6327" data-name="Rectángulo 6327" width="48.945" height="1.512" transform="translate(985.208 1650.703)" fill="#f98473"/>
      <g id="Grupo_58748" data-name="Grupo 58748" transform="translate(-242.184 645.426)">
        <g id="Grupo_58451" data-name="Grupo 58451" transform="translate(1236.494 928.809)">
          <g id="Grupo_58450" data-name="Grupo 58450">
            <path id="Trazado_104662" data-name="Trazado 104662" d="M1283.155,981.949c0-2.229-.034-4.457.009-6.685a12.1,12.1,0,0,1,2.06-6.558,24.412,24.412,0,0,0,3.865-8.952,23.521,23.521,0,0,0-19.868-27.981,23.409,23.409,0,0,0-25.864,17.671,31.63,31.63,0,0,0-.665,6.029,21.211,21.211,0,0,1-1.665,7.759c-.841,1.951-1.653,3.914-2.48,5.872-.474,1.121-.469,1.128.669,1.437.894.244,1.789.485,2.677.752a3.086,3.086,0,0,1,2.334,2.636c.5,3.16,1.006,6.32,1.491,9.483a2.442,2.442,0,0,0,2.639,2.288q4.041.008,8.082,0a5.891,5.891,0,0,0,6.154-5.842,1.338,1.338,0,0,1,1.377-1.4,1.361,1.361,0,0,1,1.349,1.506c.013,4.053-3.342,8.016-7.364,8.319-3.361.252-6.75.14-10.127.146a4.2,4.2,0,0,1-1.556-.378,5.078,5.078,0,0,1-3.245-4.339c-.353-2.613-.932-5.2-1.184-7.82-.153-1.579-.815-2.293-2.318-2.449a9.075,9.075,0,0,1-1.627-.424,3.166,3.166,0,0,1-2.107-4.359c.952-2.327,1.954-4.635,2.919-6.957a16.562,16.562,0,0,0,1.244-6.507,26.174,26.174,0,0,1,51.714-5.931,25.551,25.551,0,0,1-3.729,20.194,12.538,12.538,0,0,0-2.13,7.185c.03,4.188.005,8.376,0,12.564,0,.968-.527,1.6-1.33,1.6a1.412,1.412,0,0,1-1.365-1.583c-.015-2.425-.005-4.85-.005-7.274Z" transform="translate(-1235.524 -928.808)" fill="#b94a39"/>
          </g>
        </g>
        <path id="Trazado_104663" data-name="Trazado 104663" d="M1241.425,985.046q-3.145,0-6.291,0a2.341,2.341,0,0,1-2.53-2.192c-.464-3.031-.95-6.06-1.429-9.089a2.956,2.956,0,0,0-2.237-2.527c-.851-.257-1.71-.487-2.566-.721-1.091-.3-1.095-.3-.641-1.378.791-1.876,1.57-3.758,2.376-5.628a20.338,20.338,0,0,0,1.6-7.437,30.3,30.3,0,0,1,.636-5.779,22.406,22.406,0,0,1,15.5-16.225,25.609,25.609,0,0,1,2.24-3.214c-.463.078-.926.166-1.39.271a25.105,25.105,0,0,0-19.613,24.685,15.9,15.9,0,0,1-1.193,6.236c-.924,2.226-1.885,4.438-2.8,6.668a3.034,3.034,0,0,0,2.02,4.178,8.785,8.785,0,0,0,1.56.406c1.439.15,2.075.834,2.221,2.347.242,2.512.8,4.991,1.135,7.5a4.867,4.867,0,0,0,3.11,4.159,4.03,4.03,0,0,0,1.491.361c2.855,0,5.718.065,8.564-.081A15.311,15.311,0,0,1,1241.425,985.046Z" transform="translate(0.48 0.079)" fill="#b94a39"/>
        <path id="Trazado_104664" data-name="Trazado 104664" d="M1227.31,985.093q-2.867,0-5.734,0a2.132,2.132,0,0,1-2.3-2c-.424-2.762-.866-5.523-1.3-8.283a2.7,2.7,0,0,0-2.038-2.3c-.776-.234-1.558-.443-2.34-.656-.993-.271-1-.277-.583-1.256.722-1.71,1.432-3.425,2.166-5.129a18.541,18.541,0,0,0,1.455-6.778,27.557,27.557,0,0,1,.579-5.265,20.416,20.416,0,0,1,14.126-14.786,23.522,23.522,0,0,1,2.042-2.93c-.422.071-.844.151-1.266.247a22.876,22.876,0,0,0-17.873,22.495,14.468,14.468,0,0,1-1.087,5.683c-.842,2.029-1.718,4.045-2.55,6.078a2.765,2.765,0,0,0,1.84,3.807,7.869,7.869,0,0,0,1.422.371c1.313.136,1.891.76,2.024,2.139.221,2.288.726,4.548,1.035,6.831a4.435,4.435,0,0,0,2.834,3.791,3.676,3.676,0,0,0,1.359.329c2.6,0,5.21.06,7.8-.074A13.848,13.848,0,0,1,1227.31,985.093Z" transform="translate(0 0.266)" fill="#b94a39"/>
      </g>
    </g>
    <path id="Rectángulo_6489" data-name="Rectángulo 6489" d="M0,0H190a0,0,0,0,1,0,0V43a13,13,0,0,1-13,13H13A13,13,0,0,1,0,43V0A0,0,0,0,1,0,0Z" transform="translate(-5783 -10052)" fill="#f98473"/>
    <path id="Trazado_105020" data-name="Trazado 105020" d="M-55.691-2.977h-4.766L-61.527,0h-1.547l4.344-11.375h1.313L-53.066,0h-1.539ZM-60-4.2h3.867l-1.937-5.32Zm11.633,3.18a2.082,2.082,0,0,0,1.352-.469,1.649,1.649,0,0,0,.641-1.172h1.367a2.621,2.621,0,0,1-.5,1.383,3.293,3.293,0,0,1-1.23,1.047,3.55,3.55,0,0,1-1.629.391A3.482,3.482,0,0,1-51.117-1a4.59,4.59,0,0,1-1.02-3.152v-.242a5.089,5.089,0,0,1,.453-2.2,3.451,3.451,0,0,1,1.3-1.492,3.7,3.7,0,0,1,2-.531,3.39,3.39,0,0,1,2.363.852,3.043,3.043,0,0,1,1,2.211h-1.367A1.992,1.992,0,0,0-47-6.895a1.932,1.932,0,0,0-1.379-.527,2.023,2.023,0,0,0-1.707.793,3.724,3.724,0,0,0-.605,2.293v.273a3.65,3.65,0,0,0,.6,2.25A2.033,2.033,0,0,0-48.371-1.023Zm8.492,1.18a3.693,3.693,0,0,1-2.8-1.129,4.19,4.19,0,0,1-1.078-3.02v-.266a5.073,5.073,0,0,1,.48-2.246A3.748,3.748,0,0,1-41.93-8.051a3.378,3.378,0,0,1,1.871-.559A3.166,3.166,0,0,1-37.5-7.523a4.7,4.7,0,0,1,.914,3.109v.6h-5.727a3,3,0,0,0,.73,2.02,2.3,2.3,0,0,0,1.777.77,2.517,2.517,0,0,0,1.3-.312,3.259,3.259,0,0,0,.93-.828l.883.688A3.55,3.55,0,0,1-39.879.156Zm-.18-7.578a1.928,1.928,0,0,0-1.469.637A3.1,3.1,0,0,0-42.262-5h4.234v-.109a2.753,2.753,0,0,0-.594-1.707A1.815,1.815,0,0,0-40.059-7.422ZM-27.77-4.133a5.062,5.062,0,0,1-.883,3.109A2.829,2.829,0,0,1-31.043.156,3.1,3.1,0,0,1-33.465-.82V3.25H-34.91v-11.7h1.32l.07.938a2.977,2.977,0,0,1,2.453-1.094,2.882,2.882,0,0,1,2.41,1.148,5.117,5.117,0,0,1,.887,3.2ZM-29.215-4.3a3.735,3.735,0,0,0-.609-2.258A1.963,1.963,0,0,0-31.5-7.383a2.125,2.125,0,0,0-1.969,1.164V-2.18A2.129,2.129,0,0,0-31.48-1.023a1.954,1.954,0,0,0,1.652-.824A4.077,4.077,0,0,0-29.215-4.3Zm5.242-6.2v2.047h1.578v1.117h-1.578v5.249a1.173,1.173,0,0,0,.211.763.888.888,0,0,0,.719.254,3.5,3.5,0,0,0,.688-.094V0a4.215,4.215,0,0,1-1.109.155A1.8,1.8,0,0,1-24.926-.43a2.517,2.517,0,0,1-.492-1.664V-7.336h-1.539V-8.453h1.539V-10.5ZM-15.488,0a3.036,3.036,0,0,1-.2-.891A3.225,3.225,0,0,1-18.1.156a2.984,2.984,0,0,1-2.051-.707,2.287,2.287,0,0,1-.8-1.793,2.39,2.39,0,0,1,1-2.051,4.733,4.733,0,0,1,2.824-.73h1.406v-.664A1.623,1.623,0,0,0-16.168-7,1.821,1.821,0,0,0-17.5-7.445a2.108,2.108,0,0,0-1.3.391,1.151,1.151,0,0,0-.523.945h-1.453a2,2,0,0,1,.449-1.223,3.066,3.066,0,0,1,1.219-.934,4.1,4.1,0,0,1,1.691-.344,3.342,3.342,0,0,1,2.289.73,2.635,2.635,0,0,1,.859,2.012v3.891a4.757,4.757,0,0,0,.3,1.852V0Zm-2.4-1.1A2.54,2.54,0,0,0-16.6-1.453a2.127,2.127,0,0,0,.883-.914V-4.1h-1.133Q-19.5-4.1-19.5-2.547a1.316,1.316,0,0,0,.453,1.063A1.742,1.742,0,0,0-17.887-1.1Zm9.273.078a2.082,2.082,0,0,0,1.352-.469,1.649,1.649,0,0,0,.641-1.172h1.367a2.621,2.621,0,0,1-.5,1.383A3.293,3.293,0,0,1-6.984-.234,3.55,3.55,0,0,1-8.613.156,3.482,3.482,0,0,1-11.359-1a4.59,4.59,0,0,1-1.02-3.152v-.242a5.089,5.089,0,0,1,.453-2.2,3.451,3.451,0,0,1,1.3-1.492,3.7,3.7,0,0,1,2-.531,3.39,3.39,0,0,1,2.363.852,3.043,3.043,0,0,1,1,2.211H-6.621a1.992,1.992,0,0,0-.621-1.348,1.932,1.932,0,0,0-1.379-.527,2.023,2.023,0,0,0-1.707.793,3.724,3.724,0,0,0-.605,2.293v.273a3.65,3.65,0,0,0,.6,2.25A2.033,2.033,0,0,0-8.613-1.023ZM-2.059,0H-3.5V-8.453h1.445ZM-3.621-10.7a.863.863,0,0,1,.215-.594.807.807,0,0,1,.637-.242.819.819,0,0,1,.641.242.854.854,0,0,1,.219.594.826.826,0,0,1-.219.586.834.834,0,0,1-.641.234.821.821,0,0,1-.637-.234A.834.834,0,0,1-3.621-10.7ZM-.129-4.3A4.993,4.993,0,0,1,.359-6.539,3.643,3.643,0,0,1,1.719-8.07a3.7,3.7,0,0,1,1.988-.539A3.565,3.565,0,0,1,6.5-7.414a4.6,4.6,0,0,1,1.066,3.18v.1a5.036,5.036,0,0,1-.473,2.215A3.589,3.589,0,0,1,5.742-.391a3.743,3.743,0,0,1-2.02.547,3.556,3.556,0,0,1-2.785-1.2A4.575,4.575,0,0,1-.129-4.2Zm1.453.172a3.616,3.616,0,0,0,.652,2.258,2.088,2.088,0,0,0,1.746.852,2.075,2.075,0,0,0,1.75-.863A3.955,3.955,0,0,0,6.121-4.3a3.61,3.61,0,0,0-.66-2.254,2.1,2.1,0,0,0-1.754-.863A2.075,2.075,0,0,0,1.98-6.57,3.925,3.925,0,0,0,1.324-4.133Zm3.039-7.852h1.75L4.02-9.687l-1.164,0Zm6.383,3.531.047,1.063a3.08,3.08,0,0,1,2.531-1.219q2.68,0,2.7,3.023V0H14.582V-5.594a1.946,1.946,0,0,0-.418-1.352,1.675,1.675,0,0,0-1.277-.437,2.086,2.086,0,0,0-1.234.375,2.546,2.546,0,0,0-.828.984V0H9.379V-8.453ZM27.09-2.242a1.064,1.064,0,0,0-.441-.91,4.249,4.249,0,0,0-1.539-.559,7.277,7.277,0,0,1-1.742-.562,2.479,2.479,0,0,1-.953-.781,1.869,1.869,0,0,1-.309-1.078,2.193,2.193,0,0,1,.879-1.758,3.432,3.432,0,0,1,2.246-.719,3.532,3.532,0,0,1,2.332.742,2.357,2.357,0,0,1,.895,1.9H27a1.3,1.3,0,0,0-.5-1.023,1.888,1.888,0,0,0-1.27-.43A1.976,1.976,0,0,0,24-7.078a1.082,1.082,0,0,0-.445.9.877.877,0,0,0,.414.789,5.1,5.1,0,0,0,1.5.508,7.8,7.8,0,0,1,1.754.578,2.558,2.558,0,0,1,1,.809,1.988,1.988,0,0,1,.324,1.152,2.163,2.163,0,0,1-.906,1.816,3.8,3.8,0,0,1-2.352.684A4.257,4.257,0,0,1,23.48-.2a2.922,2.922,0,0,1-1.223-1A2.42,2.42,0,0,1,21.816-2.6h1.445a1.5,1.5,0,0,0,.582,1.152,2.258,2.258,0,0,0,1.434.426,2.331,2.331,0,0,0,1.316-.332A1.02,1.02,0,0,0,27.09-2.242ZM30.035-4.3a4.993,4.993,0,0,1,.488-2.234A3.643,3.643,0,0,1,31.883-8.07a3.7,3.7,0,0,1,1.988-.539,3.565,3.565,0,0,1,2.793,1.2,4.6,4.6,0,0,1,1.066,3.18v.1a5.036,5.036,0,0,1-.473,2.215A3.589,3.589,0,0,1,35.906-.391a3.743,3.743,0,0,1-2.02.547,3.556,3.556,0,0,1-2.785-1.2A4.575,4.575,0,0,1,30.035-4.2Zm1.453.172a3.616,3.616,0,0,0,.652,2.258,2.088,2.088,0,0,0,1.746.852,2.075,2.075,0,0,0,1.75-.863A3.955,3.955,0,0,0,36.285-4.3a3.61,3.61,0,0,0-.66-2.254,2.1,2.1,0,0,0-1.754-.863,2.075,2.075,0,0,0-1.727.852A3.925,3.925,0,0,0,31.488-4.133ZM42.934-1.023a2.082,2.082,0,0,0,1.352-.469,1.649,1.649,0,0,0,.641-1.172h1.367a2.621,2.621,0,0,1-.5,1.383,3.293,3.293,0,0,1-1.23,1.047,3.55,3.55,0,0,1-1.629.391A3.482,3.482,0,0,1,40.188-1a4.59,4.59,0,0,1-1.02-3.152v-.242a5.089,5.089,0,0,1,.453-2.2,3.451,3.451,0,0,1,1.3-1.492,3.7,3.7,0,0,1,2-.531,3.39,3.39,0,0,1,2.363.852,3.043,3.043,0,0,1,1,2.211H44.926A1.992,1.992,0,0,0,44.3-6.895a1.932,1.932,0,0,0-1.379-.527,2.023,2.023,0,0,0-1.707.793,3.724,3.724,0,0,0-.605,2.293v.273a3.65,3.65,0,0,0,.6,2.25A2.033,2.033,0,0,0,42.934-1.023ZM49.488,0H48.043V-8.453h1.445ZM47.926-10.7a.863.863,0,0,1,.215-.594.807.807,0,0,1,.637-.242.819.819,0,0,1,.641.242.854.854,0,0,1,.219.594.826.826,0,0,1-.219.586.834.834,0,0,1-.641.234.821.821,0,0,1-.637-.234A.834.834,0,0,1,47.926-10.7ZM57.02,0a3.036,3.036,0,0,1-.2-.891A3.225,3.225,0,0,1,54.41.156a2.984,2.984,0,0,1-2.051-.707,2.287,2.287,0,0,1-.8-1.793,2.39,2.39,0,0,1,1-2.051,4.733,4.733,0,0,1,2.824-.73h1.406v-.664A1.623,1.623,0,0,0,56.34-7,1.821,1.821,0,0,0,55-7.445a2.107,2.107,0,0,0-1.3.391,1.151,1.151,0,0,0-.523.945H51.73a2,2,0,0,1,.449-1.223A3.066,3.066,0,0,1,53.4-8.266a4.1,4.1,0,0,1,1.691-.344,3.342,3.342,0,0,1,2.289.73,2.635,2.635,0,0,1,.859,2.012v3.891a4.757,4.757,0,0,0,.3,1.852V0Zm-2.4-1.1a2.54,2.54,0,0,0,1.289-.352,2.127,2.127,0,0,0,.883-.914V-4.1H55.66Q53-4.1,53-2.547a1.316,1.316,0,0,0,.453,1.063A1.742,1.742,0,0,0,54.621-1.1ZM62.074,0H60.629V-12h1.445Z" transform="translate(-5688 -10018)" fill="#fff"/>
  </g>
</svg>
