<svg xmlns="http://www.w3.org/2000/svg" xmlns:xlink="http://www.w3.org/1999/xlink" width="190" height="156.258" viewBox="0 0 190 156.258">
  <defs>
    <linearGradient id="linear-gradient" x1="0.037" y1="0.968" x2="1.103" y2="0.023" gradientUnits="objectBoundingBox">
      <stop offset="0" stop-color="#d4d4d4"/>
      <stop offset="1" stop-color="#fff"/>
    </linearGradient>
    <linearGradient id="linear-gradient-2" x1="0.029" y1="0.973" x2="1.361" y2="-0.324" gradientUnits="objectBoundingBox">
      <stop offset="0" stop-color="#fff"/>
      <stop offset="1" stop-color="#fff"/>
    </linearGradient>
  </defs>
  <g id="Grupo_58756" data-name="Grupo 58756" transform="translate(5993 10151.961)">
    <g id="Grupo_58753" data-name="Grupo 58753" transform="translate(-6698 -11700)">
      <rect id="Rectángulo_6318" data-name="Rectángulo 6318" width="189.819" height="156.258" rx="12" transform="translate(705.181 1548.039)" fill="url(#linear-gradient)"/>
      <rect id="Rectángulo_6319" data-name="Rectángulo 6319" width="175.106" height="141.545" rx="11.045" transform="translate(712.537 1555.061)" fill="url(#linear-gradient-2)"/>
      <text id="Psicológica" transform="translate(800.272 1675.854)" fill="#686868" font-size="18" font-family="Roboto-Medium, Roboto" font-weight="500"><tspan x="-46.934" y="0">Psicológica</tspan></text>
      <path id="Trazado_102240" data-name="Trazado 102240" d="M77.337-1225.534a7.435,7.435,0,0,1,5.847-2.682,7.649,7.649,0,0,1,5.678,2.222,7.645,7.645,0,0,1,2.205,5.624,16.117,16.117,0,0,1-2.131,7.346c-1.42,2.709-4.254,6.292-8.551,10.749l-5.469,5.74v18.166h27.478v-10.393H81.912l6.449-6.937q7.74-8.246,10.651-14.277a26.123,26.123,0,0,0,2.913-11.282,17.456,17.456,0,0,0-2.4-8.663,16.74,16.74,0,0,0-6.407-6.524,18.378,18.378,0,0,0-9.215-2.261,19.894,19.894,0,0,0-8.984,1.939v17.63A11.212,11.212,0,0,1,77.337-1225.534Z" transform="translate(633.721 2811.229)" fill="#f98473"/>
      <path id="Trazado_102241" data-name="Trazado 102241" d="M74.916-1196.535l-3.275,3.273v14.893h3.275Z" transform="translate(633.721 2811.229)" fill="#bd4b3a"/>
      <path id="Trazado_102242" data-name="Trazado 102242" d="M74.916-1219.137v-17.63a18.226,18.226,0,0,0-3.275,1.967v16.566h3.17C74.821-1218.518,74.916-1218.846,74.916-1219.137Z" transform="translate(633.721 2811.229)" fill="#bd4b3a"/>
      <rect id="Rectángulo_6324" data-name="Rectángulo 6324" width="48.945" height="1.512" transform="translate(775.799 1650.703)" fill="#f98473"/>
      <g id="Grupo_57026" data-name="Grupo 57026" transform="translate(633.721 2811.229)">
        <path id="Trazado_102247" data-name="Trazado 102247" d="M74.916-1219.137a11.212,11.212,0,0,1,2.421-6.4A8.212,8.212,0,0,1,79-1226.992v-11.2a17.356,17.356,0,0,0-4.082,1.427l-2.491,8.171Z" fill="#bd4b3a"/>
        <path id="Trazado_102248" data-name="Trazado 102248" d="M79-1200.819l-4.082,4.284s-.81,6.557-.81,11.1a25.388,25.388,0,0,0,.81,7.067H79Z" fill="#bd4b3a"/>
      </g>
      <g id="Grupo_58747" data-name="Grupo 58747" transform="translate(6680.462 11655.703)">
        <g id="Grupo_58745" data-name="Grupo 58745" transform="translate(-6873.652 -11007.978)">
          <path id="Trazado_104660" data-name="Trazado 104660" d="M1012.059,979.638c0-2.231-.035-4.463.009-6.693a12.111,12.111,0,0,1,2.063-6.566,24.488,24.488,0,0,0,3.87-8.962A23.548,23.548,0,0,0,998.109,929.4a23.438,23.438,0,0,0-25.9,17.692,31.72,31.72,0,0,0-.665,6.036,21.238,21.238,0,0,1-1.667,7.767c-.842,1.954-1.655,3.919-2.483,5.879-.473,1.122-.469,1.129.67,1.439.9.245,1.792.485,2.681.753a3.089,3.089,0,0,1,2.336,2.639c.5,3.164,1.008,6.327,1.493,9.493a2.444,2.444,0,0,0,2.642,2.291q4.046.008,8.091,0a5.9,5.9,0,0,0,6.162-5.848,1.34,1.34,0,0,1,1.379-1.4,1.362,1.362,0,0,1,1.35,1.508c.013,4.058-3.345,8.026-7.372,8.329-3.365.252-6.758.14-10.139.145a4.207,4.207,0,0,1-1.558-.378,5.086,5.086,0,0,1-3.249-4.345c-.354-2.615-.932-5.206-1.186-7.829a2.3,2.3,0,0,0-2.32-2.452,9.086,9.086,0,0,1-1.629-.424,3.169,3.169,0,0,1-2.11-4.364c.954-2.33,1.957-4.64,2.922-6.966a16.6,16.6,0,0,0,1.247-6.513,26.2,26.2,0,0,1,51.774-5.938,25.578,25.578,0,0,1-3.733,20.218,12.554,12.554,0,0,0-2.132,7.193c.03,4.193.005,8.386,0,12.579,0,.969-.527,1.6-1.332,1.6a1.415,1.415,0,0,1-1.367-1.585c-.014-2.427,0-4.855,0-7.282Z" fill="#b94a39"/>
        </g>
        <g id="Grupo_58746" data-name="Grupo 58746" transform="translate(-6873.652 -11007.978)">
          <path id="Shape" d="M996.813,959.362a6.638,6.638,0,1,0-6.638-6.637A6.637,6.637,0,0,0,996.813,959.362Zm0-11.379a4.742,4.742,0,1,1-4.741,4.742A4.742,4.742,0,0,1,996.813,947.983Z" fill="#b94a39"/>
          <path id="Trazado_104661" data-name="Trazado 104661" d="M1011.777,954.722l.207-2.6v-.52a1.9,1.9,0,0,0-.586-1.362,19.8,19.8,0,0,0-2.8-.875l-.967-.191a11.414,11.414,0,0,0-.663-1.6l1.612-2.407a1.882,1.882,0,0,0-.143-2.239l-.29-.335-2.463-1.925a1.919,1.919,0,0,0-1.328.292l-2.394,1.6a11.256,11.256,0,0,0-1.6-.664l-.532-2.651h0a2.114,2.114,0,0,0-1.948-1.7h-2.187a1.9,1.9,0,0,0-1.859,1.517l-.569,2.837a11.2,11.2,0,0,0-1.6.664l-2.408-1.612a1.9,1.9,0,0,0-2.382.248L985.3,942.78a1.9,1.9,0,0,0-.25,2.4l1.6,2.4a11.245,11.245,0,0,0-.664,1.6l-2.834.569a1.9,1.9,0,0,0-1.52,1.861v2.237a1.9,1.9,0,0,0,1.517,1.86l2.837.569a11.308,11.308,0,0,0,.664,1.6l-1.612,2.407a1.9,1.9,0,0,0,.247,2.382l1.574,1.574a1.9,1.9,0,0,0,2.4.249l2.4-1.6a11.2,11.2,0,0,0,1.6.664l.569,2.833a1.9,1.9,0,0,0,1.86,1.522h2.238a1.9,1.9,0,0,0,1.859-1.517l.569-2.837a11.2,11.2,0,0,0,1.6-.664l2.408,1.612a1.894,1.894,0,0,0,2.381-.248l1.574-1.573a1.9,1.9,0,0,0,.25-2.4l-1.6-2.4a11.31,11.31,0,0,0,.664-1.6l2.833-.569a1.89,1.89,0,0,0,1.306-.988Zm-1.689-.879-3.4.682a.949.949,0,0,0-.728.682,9.332,9.332,0,0,1-.929,2.239.948.948,0,0,0,.032,1l1.919,2.869-1.58,1.589-2.872-1.924a.95.95,0,0,0-1-.033,9.352,9.352,0,0,1-2.238.93.946.946,0,0,0-.682.728L997.932,966h-2.238l-.682-3.4a.949.949,0,0,0-.681-.728,9.319,9.319,0,0,1-2.239-.93.948.948,0,0,0-1,.033l-2.87,1.919-1.589-1.581,1.925-2.872a.948.948,0,0,0,.032-1,9.358,9.358,0,0,1-.929-2.239.949.949,0,0,0-.728-.682l-3.392-.679v-2.237l3.395-.682a.949.949,0,0,0,.728-.682A9.332,9.332,0,0,1,988.59,948a.948.948,0,0,0-.032-1l-1.919-2.869,1.58-1.589,2.872,1.925a.952.952,0,0,0,1,.032,9.309,9.309,0,0,1,2.238-.929.948.948,0,0,0,.678-.729l.683-3.391h2.238l.682,3.394a.948.948,0,0,0,.681.728,9.358,9.358,0,0,1,2.239.93.948.948,0,0,0,1-.033l2.87-1.919,1.589,1.581L1005.071,947a.948.948,0,0,0-.032,1,9.374,9.374,0,0,1,.929,2.239.949.949,0,0,0,.728.682l3.392.678Z" fill="#b94a39"/>
        </g>
      </g>
    </g>
    <path id="Rectángulo_6488" data-name="Rectángulo 6488" d="M0,0H190a0,0,0,0,1,0,0V43a13,13,0,0,1-13,13H13A13,13,0,0,1,0,43V0A0,0,0,0,1,0,0Z" transform="translate(-5993 -10052)" fill="#f98473"/>
    <path id="Trazado_105021" data-name="Trazado 105021" d="M-59.234-3.609A4.185,4.185,0,0,1-60.566-.824a4.365,4.365,0,0,1-2.98.98,4.008,4.008,0,0,1-3.23-1.445,5.815,5.815,0,0,1-1.215-3.867V-6.25a6.481,6.481,0,0,1,.566-2.789,4.231,4.231,0,0,1,1.605-1.848,4.47,4.47,0,0,1,2.406-.645,4.11,4.11,0,0,1,2.906,1.012,4.235,4.235,0,0,1,1.273,2.8h-1.508a3.268,3.268,0,0,0-.848-1.975,2.565,2.565,0,0,0-1.824-.611,2.684,2.684,0,0,0-2.254,1.063,4.882,4.882,0,0,0-.816,3.026v1.1a5.018,5.018,0,0,0,.773,2.948A2.5,2.5,0,0,0-63.547-1.07a2.887,2.887,0,0,0,1.918-.566,3.143,3.143,0,0,0,.887-1.973Zm1.438-.7a4.993,4.993,0,0,1,.488-2.234A3.643,3.643,0,0,1-55.949-8.07a3.7,3.7,0,0,1,1.988-.539,3.565,3.565,0,0,1,2.793,1.2A4.6,4.6,0,0,1-50.1-4.234v.1a5.036,5.036,0,0,1-.473,2.215A3.589,3.589,0,0,1-51.926-.391a3.743,3.743,0,0,1-2.02.547,3.556,3.556,0,0,1-2.785-1.2A4.575,4.575,0,0,1-57.8-4.2Zm1.453.172a3.616,3.616,0,0,0,.652,2.258,2.088,2.088,0,0,0,1.746.852,2.075,2.075,0,0,0,1.75-.863A3.955,3.955,0,0,0-51.547-4.3a3.61,3.61,0,0,0-.66-2.254,2.1,2.1,0,0,0-1.754-.863,2.075,2.075,0,0,0-1.727.852A3.925,3.925,0,0,0-56.344-4.133Zm9.422-4.32.047,1.063a3.08,3.08,0,0,1,2.531-1.219q2.68,0,2.7,3.023V0h-1.445V-5.594A1.946,1.946,0,0,0-43.5-6.945a1.675,1.675,0,0,0-1.277-.437,2.086,2.086,0,0,0-1.234.375,2.546,2.546,0,0,0-.828.984V0h-1.445V-8.453ZM-39.812-4.3a4.952,4.952,0,0,1,.922-3.129,2.915,2.915,0,0,1,2.414-1.184,2.932,2.932,0,0,1,2.352,1.016V-12h1.445V0h-1.328l-.07-.906A2.943,2.943,0,0,1-36.492.156a2.887,2.887,0,0,1-2.395-1.2,5.008,5.008,0,0,1-.926-3.141Zm1.445.164a3.749,3.749,0,0,0,.594,2.25,1.92,1.92,0,0,0,1.641.813A2.108,2.108,0,0,0-34.125-2.3V-6.187a2.125,2.125,0,0,0-1.992-1.2,1.929,1.929,0,0,0-1.656.82A4.128,4.128,0,0,0-38.367-4.133ZM-28.867,0h-1.445V-8.453h1.445ZM-30.43-10.7a.863.863,0,0,1,.215-.594.807.807,0,0,1,.637-.242.819.819,0,0,1,.641.242.854.854,0,0,1,.219.594.826.826,0,0,1-.219.586.834.834,0,0,1-.641.234.821.821,0,0,1-.637-.234A.834.834,0,0,1-30.43-10.7Zm7.266,9.672a2.082,2.082,0,0,0,1.352-.469,1.649,1.649,0,0,0,.641-1.172H-19.8a2.621,2.621,0,0,1-.5,1.383,3.293,3.293,0,0,1-1.23,1.047,3.55,3.55,0,0,1-1.629.391A3.482,3.482,0,0,1-25.91-1a4.59,4.59,0,0,1-1.02-3.152v-.242a5.089,5.089,0,0,1,.453-2.2,3.451,3.451,0,0,1,1.3-1.492,3.7,3.7,0,0,1,2-.531,3.39,3.39,0,0,1,2.363.852,3.043,3.043,0,0,1,1,2.211h-1.367a1.992,1.992,0,0,0-.621-1.348,1.932,1.932,0,0,0-1.379-.527,2.023,2.023,0,0,0-1.707.793,3.724,3.724,0,0,0-.605,2.293v.273a3.65,3.65,0,0,0,.6,2.25A2.033,2.033,0,0,0-23.164-1.023ZM-16.609,0h-1.445V-8.453h1.445Zm-1.562-10.7a.863.863,0,0,1,.215-.594.807.807,0,0,1,.637-.242.819.819,0,0,1,.641.242.854.854,0,0,1,.219.594.826.826,0,0,1-.219.586.834.834,0,0,1-.641.234.821.821,0,0,1-.637-.234A.834.834,0,0,1-18.172-10.7ZM-14.68-4.3a4.993,4.993,0,0,1,.488-2.234A3.643,3.643,0,0,1-12.832-8.07a3.7,3.7,0,0,1,1.988-.539,3.565,3.565,0,0,1,2.793,1.2,4.6,4.6,0,0,1,1.066,3.18v.1a5.036,5.036,0,0,1-.473,2.215A3.589,3.589,0,0,1-8.809-.391a3.743,3.743,0,0,1-2.02.547,3.556,3.556,0,0,1-2.785-1.2A4.575,4.575,0,0,1-14.68-4.2Zm1.453.172a3.616,3.616,0,0,0,.652,2.258,2.088,2.088,0,0,0,1.746.852,2.075,2.075,0,0,0,1.75-.863A3.955,3.955,0,0,0-8.43-4.3a3.61,3.61,0,0,0-.66-2.254,2.1,2.1,0,0,0-1.754-.863,2.075,2.075,0,0,0-1.727.852A3.925,3.925,0,0,0-13.227-4.133ZM-3.8-8.453l.047,1.063A3.08,3.08,0,0,1-1.227-8.609q2.68,0,2.7,3.023V0H.031V-5.594A1.946,1.946,0,0,0-.387-6.945a1.675,1.675,0,0,0-1.277-.437A2.086,2.086,0,0,0-2.9-7.008a2.546,2.546,0,0,0-.828.984V0H-5.172V-8.453ZM8.875,0a3.036,3.036,0,0,1-.2-.891A3.225,3.225,0,0,1,6.266.156,2.984,2.984,0,0,1,4.215-.551a2.287,2.287,0,0,1-.8-1.793,2.39,2.39,0,0,1,1-2.051,4.733,4.733,0,0,1,2.824-.73H8.648v-.664A1.623,1.623,0,0,0,8.2-7a1.821,1.821,0,0,0-1.336-.449,2.107,2.107,0,0,0-1.3.391,1.151,1.151,0,0,0-.523.945H3.586a2,2,0,0,1,.449-1.223,3.066,3.066,0,0,1,1.219-.934,4.1,4.1,0,0,1,1.691-.344,3.342,3.342,0,0,1,2.289.73,2.635,2.635,0,0,1,.859,2.012v3.891a4.757,4.757,0,0,0,.3,1.852V0Zm-2.4-1.1a2.54,2.54,0,0,0,1.289-.352,2.127,2.127,0,0,0,.883-.914V-4.1H7.516q-2.656,0-2.656,1.555a1.316,1.316,0,0,0,.453,1.063A1.742,1.742,0,0,0,6.477-1.1Zm7.242-7.352.039.938a3.122,3.122,0,0,1,2.508-1.094A2.417,2.417,0,0,1,18.68-7.25a3.2,3.2,0,0,1,1.1-.984,3.242,3.242,0,0,1,1.6-.375q2.781,0,2.828,2.945V0H22.758V-5.578a1.941,1.941,0,0,0-.414-1.355,1.823,1.823,0,0,0-1.391-.449,1.916,1.916,0,0,0-1.336.48A1.949,1.949,0,0,0,19-5.609V0H17.547V-5.539a1.613,1.613,0,0,0-1.8-1.844A1.934,1.934,0,0,0,13.8-6.172V0H12.352V-8.453ZM27.953,0H26.508V-8.453h1.445ZM26.391-10.7a.863.863,0,0,1,.215-.594.807.807,0,0,1,.637-.242.819.819,0,0,1,.641.242.854.854,0,0,1,.219.594.826.826,0,0,1-.219.586.834.834,0,0,1-.641.234.821.821,0,0,1-.637-.234A.834.834,0,0,1,26.391-10.7ZM33.773.156a3.693,3.693,0,0,1-2.8-1.129A4.19,4.19,0,0,1,29.9-3.992v-.266a5.073,5.073,0,0,1,.48-2.246,3.748,3.748,0,0,1,1.344-1.547,3.378,3.378,0,0,1,1.871-.559,3.166,3.166,0,0,1,2.563,1.086,4.7,4.7,0,0,1,.914,3.109v.6H31.344a3,3,0,0,0,.73,2.02,2.3,2.3,0,0,0,1.777.77,2.517,2.517,0,0,0,1.3-.312,3.259,3.259,0,0,0,.93-.828l.883.688A3.55,3.55,0,0,1,33.773.156Zm-.18-7.578a1.928,1.928,0,0,0-1.469.637A3.1,3.1,0,0,0,31.391-5h4.234v-.109a2.753,2.753,0,0,0-.594-1.707A1.815,1.815,0,0,0,33.594-7.422Zm6.516-1.031.047,1.063a3.08,3.08,0,0,1,2.531-1.219q2.68,0,2.7,3.023V0H43.945V-5.594a1.946,1.946,0,0,0-.418-1.352,1.675,1.675,0,0,0-1.277-.437,2.086,2.086,0,0,0-1.234.375,2.546,2.546,0,0,0-.828.984V0H38.742V-8.453ZM49.531-10.5v2.047h1.578v1.117H49.531v5.249a1.173,1.173,0,0,0,.211.763.888.888,0,0,0,.719.254,3.5,3.5,0,0,0,.688-.094V0a4.215,4.215,0,0,1-1.109.155A1.8,1.8,0,0,1,48.578-.43a2.517,2.517,0,0,1-.492-1.664V-7.336H46.547V-8.453h1.539V-10.5Zm2.727,6.2a4.993,4.993,0,0,1,.488-2.234A3.643,3.643,0,0,1,54.105-8.07a3.7,3.7,0,0,1,1.988-.539,3.565,3.565,0,0,1,2.793,1.2,4.6,4.6,0,0,1,1.066,3.18v.1a5.036,5.036,0,0,1-.473,2.215A3.589,3.589,0,0,1,58.129-.391a3.743,3.743,0,0,1-2.02.547,3.556,3.556,0,0,1-2.785-1.2A4.575,4.575,0,0,1,52.258-4.2Zm1.453.172a3.616,3.616,0,0,0,.652,2.258,2.088,2.088,0,0,0,1.746.852,2.075,2.075,0,0,0,1.75-.863A3.955,3.955,0,0,0,58.508-4.3a3.61,3.61,0,0,0-.66-2.254,2.1,2.1,0,0,0-1.754-.863,2.075,2.075,0,0,0-1.727.852A3.925,3.925,0,0,0,53.711-4.133ZM66.688-2.242a1.064,1.064,0,0,0-.441-.91,4.249,4.249,0,0,0-1.539-.559,7.277,7.277,0,0,1-1.742-.562,2.479,2.479,0,0,1-.953-.781A1.869,1.869,0,0,1,61.7-6.133a2.193,2.193,0,0,1,.879-1.758,3.432,3.432,0,0,1,2.246-.719,3.532,3.532,0,0,1,2.332.742,2.357,2.357,0,0,1,.895,1.9H66.6a1.3,1.3,0,0,0-.5-1.023,1.888,1.888,0,0,0-1.27-.43,1.976,1.976,0,0,0-1.234.344,1.082,1.082,0,0,0-.445.9.877.877,0,0,0,.414.789,5.1,5.1,0,0,0,1.5.508,7.8,7.8,0,0,1,1.754.578,2.558,2.558,0,0,1,1,.809,1.988,1.988,0,0,1,.324,1.152,2.163,2.163,0,0,1-.906,1.816,3.8,3.8,0,0,1-2.352.684,4.257,4.257,0,0,1-1.8-.359,2.922,2.922,0,0,1-1.223-1A2.42,2.42,0,0,1,61.414-2.6h1.445a1.5,1.5,0,0,0,.582,1.152,2.258,2.258,0,0,0,1.434.426,2.331,2.331,0,0,0,1.316-.332A1.02,1.02,0,0,0,66.688-2.242Z" transform="translate(-5898 -10018)" fill="#fff"/>
  </g>
</svg>
